<?xml version="1.0" encoding="utf-8"?>
<svg xmlns="http://www.w3.org/2000/svg" xmlns:xlink="http://www.w3.org/1999/xlink" width="900" height="460" viewBox="0 0 3600 1840">
<defs>
  <clipPath id="clip0000">
    <rect x="0" y="0" width="3600" height="1840"/>
  </clipPath>
</defs>
<path clip-path="url(#clip0000)" d="M0 1840 L3600 1840 L3600 0 L0 0  Z" fill="#ffffff" fill-rule="evenodd" fill-opacity="1"/>
<defs>
  <clipPath id="clip0001">
    <rect x="357" y="47" width="3196" height="1545"/>
  </clipPath>
</defs>
<path clip-path="url(#clip0000)" d="M357.934 1591.26 L3552.76 1591.26 L3552.76 47.2441 L357.934 47.2441  Z" fill="#ffffff" fill-rule="evenodd" fill-opacity="1"/>
<polyline clip-path="url(#clip0001)" style="stroke:#000000; stroke-linecap:round; stroke-linejoin:round; stroke-width:2; stroke-opacity:0.1; fill:none" points="448.354,1591.26 448.354,47.2441 "/>
<polyline clip-path="url(#clip0001)" style="stroke:#000000; stroke-linecap:round; stroke-linejoin:round; stroke-width:2; stroke-opacity:0.1; fill:none" points="1201.85,1591.26 1201.85,47.2441 "/>
<polyline clip-path="url(#clip0001)" style="stroke:#000000; stroke-linecap:round; stroke-linejoin:round; stroke-width:2; stroke-opacity:0.1; fill:none" points="1955.35,1591.26 1955.35,47.2441 "/>
<polyline clip-path="url(#clip0001)" style="stroke:#000000; stroke-linecap:round; stroke-linejoin:round; stroke-width:2; stroke-opacity:0.1; fill:none" points="2708.84,1591.26 2708.84,47.2441 "/>
<polyline clip-path="url(#clip0001)" style="stroke:#000000; stroke-linecap:round; stroke-linejoin:round; stroke-width:2; stroke-opacity:0.1; fill:none" points="3462.34,1591.26 3462.34,47.2441 "/>
<polyline clip-path="url(#clip0001)" style="stroke:#000000; stroke-linecap:round; stroke-linejoin:round; stroke-width:2; stroke-opacity:0.1; fill:none" points="448.354,1591.26 448.354,47.2441 "/>
<polyline clip-path="url(#clip0001)" style="stroke:#000000; stroke-linecap:round; stroke-linejoin:round; stroke-width:2; stroke-opacity:0.1; fill:none" points="1201.85,1591.26 1201.85,47.2441 "/>
<polyline clip-path="url(#clip0001)" style="stroke:#000000; stroke-linecap:round; stroke-linejoin:round; stroke-width:2; stroke-opacity:0.1; fill:none" points="1955.35,1591.26 1955.35,47.2441 "/>
<polyline clip-path="url(#clip0001)" style="stroke:#000000; stroke-linecap:round; stroke-linejoin:round; stroke-width:2; stroke-opacity:0.1; fill:none" points="2708.84,1591.26 2708.84,47.2441 "/>
<polyline clip-path="url(#clip0001)" style="stroke:#000000; stroke-linecap:round; stroke-linejoin:round; stroke-width:2; stroke-opacity:0.1; fill:none" points="3462.34,1591.26 3462.34,47.2441 "/>
<polyline clip-path="url(#clip0001)" style="stroke:#000000; stroke-linecap:round; stroke-linejoin:round; stroke-width:2; stroke-opacity:0.1; fill:none" points="357.934,1547.56 3552.76,1547.56 "/>
<polyline clip-path="url(#clip0001)" style="stroke:#000000; stroke-linecap:round; stroke-linejoin:round; stroke-width:2; stroke-opacity:0.1; fill:none" points="357.934,1219.62 3552.76,1219.62 "/>
<polyline clip-path="url(#clip0001)" style="stroke:#000000; stroke-linecap:round; stroke-linejoin:round; stroke-width:2; stroke-opacity:0.1; fill:none" points="357.934,891.685 3552.76,891.685 "/>
<polyline clip-path="url(#clip0001)" style="stroke:#000000; stroke-linecap:round; stroke-linejoin:round; stroke-width:2; stroke-opacity:0.1; fill:none" points="357.934,563.749 3552.76,563.749 "/>
<polyline clip-path="url(#clip0001)" style="stroke:#000000; stroke-linecap:round; stroke-linejoin:round; stroke-width:2; stroke-opacity:0.1; fill:none" points="357.934,235.813 3552.76,235.813 "/>
<polyline clip-path="url(#clip0001)" style="stroke:#000000; stroke-linecap:round; stroke-linejoin:round; stroke-width:2; stroke-opacity:0.1; fill:none" points="357.934,1547.56 3552.76,1547.56 "/>
<polyline clip-path="url(#clip0001)" style="stroke:#000000; stroke-linecap:round; stroke-linejoin:round; stroke-width:2; stroke-opacity:0.1; fill:none" points="357.934,1219.62 3552.76,1219.62 "/>
<polyline clip-path="url(#clip0001)" style="stroke:#000000; stroke-linecap:round; stroke-linejoin:round; stroke-width:2; stroke-opacity:0.1; fill:none" points="357.934,891.685 3552.76,891.685 "/>
<polyline clip-path="url(#clip0001)" style="stroke:#000000; stroke-linecap:round; stroke-linejoin:round; stroke-width:2; stroke-opacity:0.1; fill:none" points="357.934,563.749 3552.76,563.749 "/>
<polyline clip-path="url(#clip0001)" style="stroke:#000000; stroke-linecap:round; stroke-linejoin:round; stroke-width:2; stroke-opacity:0.1; fill:none" points="357.934,235.813 3552.76,235.813 "/>
<polyline clip-path="url(#clip0000)" style="stroke:#000000; stroke-linecap:round; stroke-linejoin:round; stroke-width:4; stroke-opacity:1; fill:none" points="357.934,1591.26 3552.76,1591.26 "/>
<polyline clip-path="url(#clip0000)" style="stroke:#000000; stroke-linecap:round; stroke-linejoin:round; stroke-width:4; stroke-opacity:1; fill:none" points="357.934,47.2441 3552.76,47.2441 "/>
<polyline clip-path="url(#clip0000)" style="stroke:#000000; stroke-linecap:round; stroke-linejoin:round; stroke-width:4; stroke-opacity:1; fill:none" points="448.354,1591.26 448.354,1572.36 "/>
<polyline clip-path="url(#clip0000)" style="stroke:#000000; stroke-linecap:round; stroke-linejoin:round; stroke-width:4; stroke-opacity:1; fill:none" points="1201.85,1591.26 1201.85,1572.36 "/>
<polyline clip-path="url(#clip0000)" style="stroke:#000000; stroke-linecap:round; stroke-linejoin:round; stroke-width:4; stroke-opacity:1; fill:none" points="1955.35,1591.26 1955.35,1572.36 "/>
<polyline clip-path="url(#clip0000)" style="stroke:#000000; stroke-linecap:round; stroke-linejoin:round; stroke-width:4; stroke-opacity:1; fill:none" points="2708.84,1591.26 2708.84,1572.36 "/>
<polyline clip-path="url(#clip0000)" style="stroke:#000000; stroke-linecap:round; stroke-linejoin:round; stroke-width:4; stroke-opacity:1; fill:none" points="3462.34,1591.26 3462.34,1572.36 "/>
<polyline clip-path="url(#clip0000)" style="stroke:#000000; stroke-linecap:round; stroke-linejoin:round; stroke-width:4; stroke-opacity:1; fill:none" points="448.354,47.2441 448.354,66.1417 "/>
<polyline clip-path="url(#clip0000)" style="stroke:#000000; stroke-linecap:round; stroke-linejoin:round; stroke-width:4; stroke-opacity:1; fill:none" points="1201.85,47.2441 1201.85,66.1417 "/>
<polyline clip-path="url(#clip0000)" style="stroke:#000000; stroke-linecap:round; stroke-linejoin:round; stroke-width:4; stroke-opacity:1; fill:none" points="1955.35,47.2441 1955.35,66.1417 "/>
<polyline clip-path="url(#clip0000)" style="stroke:#000000; stroke-linecap:round; stroke-linejoin:round; stroke-width:4; stroke-opacity:1; fill:none" points="2708.84,47.2441 2708.84,66.1417 "/>
<polyline clip-path="url(#clip0000)" style="stroke:#000000; stroke-linecap:round; stroke-linejoin:round; stroke-width:4; stroke-opacity:1; fill:none" points="3462.34,47.2441 3462.34,66.1417 "/>
<path clip-path="url(#clip0000)" d="M448.354 1634.7 Q443.84 1634.7 441.554 1639.16 Q439.297 1643.59 439.297 1652.5 Q439.297 1661.38 441.554 1665.84 Q443.84 1670.27 448.354 1670.27 Q452.897 1670.27 455.154 1665.84 Q457.439 1661.38 457.439 1652.5 Q457.439 1643.59 455.154 1639.16 Q452.897 1634.7 448.354 1634.7 M448.354 1630.07 Q455.616 1630.07 459.436 1635.83 Q463.284 1641.56 463.284 1652.5 Q463.284 1663.41 459.436 1669.17 Q455.616 1674.89 448.354 1674.89 Q441.091 1674.89 437.243 1669.17 Q433.423 1663.41 433.423 1652.5 Q433.423 1641.56 437.243 1635.83 Q441.091 1630.07 448.354 1630.07 Z" fill="#000000" fill-rule="nonzero" fill-opacity="1" /><path clip-path="url(#clip0000)" d="M1175.32 1669.14 L1195.72 1669.14 L1195.72 1674.06 L1168.28 1674.06 L1168.28 1669.14 Q1171.61 1665.69 1177.34 1659.91 Q1183.1 1654.09 1184.58 1652.41 Q1187.38 1649.26 1188.48 1647.09 Q1189.61 1644.89 1189.61 1642.78 Q1189.61 1639.33 1187.18 1637.16 Q1184.78 1634.99 1180.9 1634.99 Q1178.15 1634.99 1175.08 1635.95 Q1172.05 1636.9 1168.57 1638.84 L1168.57 1632.94 Q1172.1 1631.52 1175.17 1630.8 Q1178.24 1630.07 1180.78 1630.07 Q1187.5 1630.07 1191.49 1633.43 Q1195.48 1636.79 1195.48 1642.4 Q1195.48 1645.06 1194.47 1647.46 Q1193.49 1649.84 1190.85 1653.08 Q1190.13 1653.92 1186.25 1657.94 Q1182.38 1661.93 1175.32 1669.14 Z" fill="#000000" fill-rule="nonzero" fill-opacity="1" /><path clip-path="url(#clip0000)" d="M1220.48 1634.7 Q1215.97 1634.7 1213.68 1639.16 Q1211.43 1643.59 1211.43 1652.5 Q1211.43 1661.38 1213.68 1665.84 Q1215.97 1670.27 1220.48 1670.27 Q1225.03 1670.27 1227.28 1665.84 Q1229.57 1661.38 1229.57 1652.5 Q1229.57 1643.59 1227.28 1639.16 Q1225.03 1634.7 1220.48 1634.7 M1220.48 1630.07 Q1227.75 1630.07 1231.57 1635.83 Q1235.41 1641.56 1235.41 1652.5 Q1235.41 1663.41 1231.57 1669.17 Q1227.75 1674.89 1220.48 1674.89 Q1213.22 1674.89 1209.37 1669.17 Q1205.55 1663.41 1205.55 1652.5 Q1205.55 1641.56 1209.37 1635.83 Q1213.22 1630.07 1220.48 1630.07 Z" fill="#000000" fill-rule="nonzero" fill-opacity="1" /><path clip-path="url(#clip0000)" d="M1940.56 1635.95 L1925.8 1659.01 L1940.56 1659.01 L1940.56 1635.95 M1939.03 1630.86 L1946.38 1630.86 L1946.38 1659.01 L1952.54 1659.01 L1952.54 1663.87 L1946.38 1663.87 L1946.38 1674.06 L1940.56 1674.06 L1940.56 1663.87 L1921.06 1663.87 L1921.06 1658.23 L1939.03 1630.86 Z" fill="#000000" fill-rule="nonzero" fill-opacity="1" /><path clip-path="url(#clip0000)" d="M1974.7 1634.7 Q1970.19 1634.7 1967.9 1639.16 Q1965.65 1643.59 1965.65 1652.5 Q1965.65 1661.38 1967.9 1665.84 Q1970.19 1670.27 1974.7 1670.27 Q1979.25 1670.27 1981.5 1665.84 Q1983.79 1661.38 1983.79 1652.5 Q1983.79 1643.59 1981.5 1639.16 Q1979.25 1634.7 1974.7 1634.7 M1974.7 1630.07 Q1981.97 1630.07 1985.78 1635.83 Q1989.63 1641.56 1989.63 1652.5 Q1989.63 1663.41 1985.78 1669.17 Q1981.97 1674.89 1974.7 1674.89 Q1967.44 1674.89 1963.59 1669.17 Q1959.77 1663.41 1959.77 1652.5 Q1959.77 1641.56 1963.59 1635.83 Q1967.44 1630.07 1974.7 1630.07 Z" fill="#000000" fill-rule="nonzero" fill-opacity="1" /><path clip-path="url(#clip0000)" d="M2690.6 1650.13 Q2686.66 1650.13 2684.35 1652.82 Q2682.06 1655.51 2682.06 1660.2 Q2682.06 1664.85 2684.35 1667.57 Q2686.66 1670.27 2690.6 1670.27 Q2694.53 1670.27 2696.82 1667.57 Q2699.13 1664.85 2699.13 1660.2 Q2699.13 1655.51 2696.82 1652.82 Q2694.53 1650.13 2690.6 1650.13 M2702.2 1631.81 L2702.2 1637.13 Q2700 1636.09 2697.74 1635.54 Q2695.52 1634.99 2693.32 1634.99 Q2687.53 1634.99 2684.46 1638.9 Q2681.42 1642.81 2680.99 1650.71 Q2682.7 1648.19 2685.27 1646.86 Q2687.85 1645.5 2690.94 1645.5 Q2697.45 1645.5 2701.22 1649.46 Q2705.01 1653.4 2705.01 1660.2 Q2705.01 1666.85 2701.07 1670.87 Q2697.14 1674.89 2690.6 1674.89 Q2683.1 1674.89 2679.14 1669.17 Q2675.17 1663.41 2675.17 1652.5 Q2675.17 1642.26 2680.04 1636.18 Q2684.9 1630.07 2693.09 1630.07 Q2695.28 1630.07 2697.51 1630.51 Q2699.77 1630.94 2702.2 1631.81 Z" fill="#000000" fill-rule="nonzero" fill-opacity="1" /><path clip-path="url(#clip0000)" d="M2727.58 1634.7 Q2723.06 1634.7 2720.78 1639.16 Q2718.52 1643.59 2718.52 1652.5 Q2718.52 1661.38 2720.78 1665.84 Q2723.06 1670.27 2727.58 1670.27 Q2732.12 1670.27 2734.38 1665.84 Q2736.66 1661.38 2736.66 1652.5 Q2736.66 1643.59 2734.38 1639.16 Q2732.12 1634.7 2727.58 1634.7 M2727.58 1630.07 Q2734.84 1630.07 2738.66 1635.83 Q2742.51 1641.56 2742.51 1652.5 Q2742.51 1663.41 2738.66 1669.17 Q2734.84 1674.89 2727.58 1674.89 Q2720.31 1674.89 2716.47 1669.17 Q2712.65 1663.41 2712.65 1652.5 Q2712.65 1641.56 2716.47 1635.83 Q2720.31 1630.07 2727.58 1630.07 Z" fill="#000000" fill-rule="nonzero" fill-opacity="1" /><path clip-path="url(#clip0000)" d="M3443.43 1653.54 Q3439.26 1653.54 3436.86 1655.77 Q3434.49 1658 3434.49 1661.9 Q3434.49 1665.81 3436.86 1668.04 Q3439.26 1670.27 3443.43 1670.27 Q3447.59 1670.27 3450 1668.04 Q3452.4 1665.78 3452.4 1661.9 Q3452.4 1658 3450 1655.77 Q3447.62 1653.54 3443.43 1653.54 M3437.58 1651.05 Q3433.82 1650.13 3431.71 1647.55 Q3429.63 1644.98 3429.63 1641.27 Q3429.63 1636.09 3433.3 1633.08 Q3437 1630.07 3443.43 1630.07 Q3449.88 1630.07 3453.55 1633.08 Q3457.23 1636.09 3457.23 1641.27 Q3457.23 1644.98 3455.12 1647.55 Q3453.03 1650.13 3449.3 1651.05 Q3453.53 1652.04 3455.87 1654.9 Q3458.24 1657.77 3458.24 1661.9 Q3458.24 1668.18 3454.39 1671.54 Q3450.57 1674.89 3443.43 1674.89 Q3436.28 1674.89 3432.43 1671.54 Q3428.61 1668.18 3428.61 1661.9 Q3428.61 1657.77 3430.99 1654.9 Q3433.36 1652.04 3437.58 1651.05 M3435.44 1641.82 Q3435.44 1645.18 3437.52 1647.06 Q3439.64 1648.94 3443.43 1648.94 Q3447.19 1648.94 3449.3 1647.06 Q3451.44 1645.18 3451.44 1641.82 Q3451.44 1638.47 3449.3 1636.58 Q3447.19 1634.7 3443.43 1634.7 Q3439.64 1634.7 3437.52 1636.58 Q3435.44 1638.47 3435.44 1641.82 Z" fill="#000000" fill-rule="nonzero" fill-opacity="1" /><path clip-path="url(#clip0000)" d="M3481.13 1634.7 Q3476.62 1634.7 3474.33 1639.16 Q3472.07 1643.59 3472.07 1652.5 Q3472.07 1661.38 3474.33 1665.84 Q3476.62 1670.27 3481.13 1670.27 Q3485.67 1670.27 3487.93 1665.84 Q3490.22 1661.38 3490.22 1652.5 Q3490.22 1643.59 3487.93 1639.16 Q3485.67 1634.7 3481.13 1634.7 M3481.13 1630.07 Q3488.39 1630.07 3492.21 1635.83 Q3496.06 1641.56 3496.06 1652.5 Q3496.06 1663.41 3492.21 1669.17 Q3488.39 1674.89 3481.13 1674.89 Q3473.87 1674.89 3470.02 1669.17 Q3466.2 1663.41 3466.2 1652.5 Q3466.2 1641.56 3470.02 1635.83 Q3473.87 1630.07 3481.13 1630.07 Z" fill="#000000" fill-rule="nonzero" fill-opacity="1" /><path clip-path="url(#clip0000)" d="M1711.28 1747.96 Q1713.54 1748.72 1715.66 1751.22 Q1717.81 1753.72 1719.96 1758.1 L1727.08 1772.26 L1719.55 1772.26 L1712.92 1758.97 Q1710.35 1753.76 1707.92 1752.06 Q1705.52 1750.35 1701.35 1750.35 L1693.71 1750.35 L1693.71 1772.26 L1686.7 1772.26 L1686.7 1720.42 L1702.53 1720.42 Q1711.42 1720.42 1715.8 1724.14 Q1720.17 1727.85 1720.17 1735.35 Q1720.17 1740.25 1717.88 1743.48 Q1715.62 1746.71 1711.28 1747.96 M1693.71 1726.19 L1693.71 1744.59 L1702.53 1744.59 Q1707.6 1744.59 1710.17 1742.26 Q1712.78 1739.9 1712.78 1735.35 Q1712.78 1730.81 1710.17 1728.51 Q1707.6 1726.19 1702.53 1726.19 L1693.71 1726.19 Z" fill="#000000" fill-rule="nonzero" fill-opacity="1" /><path clip-path="url(#clip0000)" d="M1765.9 1751.22 L1765.9 1754.35 L1736.53 1754.35 Q1736.94 1760.94 1740.49 1764.42 Q1744.06 1767.85 1750.42 1767.85 Q1754.1 1767.85 1757.53 1766.95 Q1761.01 1766.05 1764.41 1764.24 L1764.41 1770.28 Q1760.97 1771.74 1757.36 1772.51 Q1753.75 1773.27 1750.03 1773.27 Q1740.73 1773.27 1735.28 1767.85 Q1729.86 1762.44 1729.86 1753.2 Q1729.86 1743.65 1735 1738.06 Q1740.17 1732.44 1748.92 1732.44 Q1756.77 1732.44 1761.32 1737.51 Q1765.9 1742.54 1765.9 1751.22 M1759.51 1749.35 Q1759.44 1744.1 1756.56 1740.98 Q1753.71 1737.85 1748.99 1737.85 Q1743.64 1737.85 1740.42 1740.87 Q1737.22 1743.9 1736.74 1749.38 L1759.51 1749.35 Z" fill="#000000" fill-rule="nonzero" fill-opacity="1" /><path clip-path="url(#clip0000)" d="M1782.57 1766.43 L1782.57 1787.06 L1776.14 1787.06 L1776.14 1733.38 L1782.57 1733.38 L1782.57 1739.28 Q1784.58 1735.81 1787.64 1734.14 Q1790.73 1732.44 1795 1732.44 Q1802.08 1732.44 1806.49 1738.06 Q1810.94 1743.69 1810.94 1752.85 Q1810.94 1762.02 1806.49 1767.65 Q1802.08 1773.27 1795 1773.27 Q1790.73 1773.27 1787.64 1771.6 Q1784.58 1769.9 1782.57 1766.43 M1804.3 1752.85 Q1804.3 1745.81 1801.39 1741.81 Q1798.51 1737.78 1793.44 1737.78 Q1788.37 1737.78 1785.45 1741.81 Q1782.57 1745.81 1782.57 1752.85 Q1782.57 1759.9 1785.45 1763.93 Q1788.37 1767.92 1793.44 1767.92 Q1798.51 1767.92 1801.39 1763.93 Q1804.3 1759.9 1804.3 1752.85 Z" fill="#000000" fill-rule="nonzero" fill-opacity="1" /><path clip-path="url(#clip0000)" d="M1836.6 1737.85 Q1831.46 1737.85 1828.47 1741.88 Q1825.48 1745.87 1825.48 1752.85 Q1825.48 1759.83 1828.44 1763.86 Q1831.42 1767.85 1836.6 1767.85 Q1841.7 1767.85 1844.69 1763.83 Q1847.67 1759.8 1847.67 1752.85 Q1847.67 1745.94 1844.69 1741.92 Q1841.7 1737.85 1836.6 1737.85 M1836.6 1732.44 Q1844.93 1732.44 1849.69 1737.85 Q1854.44 1743.27 1854.44 1752.85 Q1854.44 1762.4 1849.69 1767.85 Q1844.93 1773.27 1836.6 1773.27 Q1828.23 1773.27 1823.47 1767.85 Q1818.75 1762.4 1818.75 1752.85 Q1818.75 1743.27 1823.47 1737.85 Q1828.23 1732.44 1836.6 1732.44 Z" fill="#000000" fill-rule="nonzero" fill-opacity="1" /><path clip-path="url(#clip0000)" d="M1887.57 1739.35 Q1886.49 1738.72 1885.21 1738.44 Q1883.96 1738.13 1882.43 1738.13 Q1877.01 1738.13 1874.1 1741.67 Q1871.21 1745.18 1871.21 1751.78 L1871.21 1772.26 L1864.79 1772.26 L1864.79 1733.38 L1871.21 1733.38 L1871.21 1739.42 Q1873.23 1735.87 1876.46 1734.17 Q1879.69 1732.44 1884.3 1732.44 Q1884.96 1732.44 1885.76 1732.54 Q1886.56 1732.61 1887.53 1732.78 L1887.57 1739.35 Z" fill="#000000" fill-rule="nonzero" fill-opacity="1" /><path clip-path="url(#clip0000)" d="M1900.59 1722.33 L1900.59 1733.38 L1913.75 1733.38 L1913.75 1738.34 L1900.59 1738.34 L1900.59 1759.45 Q1900.59 1764.21 1901.87 1765.56 Q1903.19 1766.92 1907.19 1766.92 L1913.75 1766.92 L1913.75 1772.26 L1907.19 1772.26 Q1899.79 1772.26 1896.98 1769.52 Q1894.16 1766.74 1894.16 1759.45 L1894.16 1738.34 L1889.48 1738.34 L1889.48 1733.38 L1894.16 1733.38 L1894.16 1722.33 L1900.59 1722.33 Z" fill="#000000" fill-rule="nonzero" fill-opacity="1" /><path clip-path="url(#clip0000)" d="M1955.41 1751.22 L1955.41 1754.35 L1926.04 1754.35 Q1926.46 1760.94 1930 1764.42 Q1933.57 1767.85 1939.93 1767.85 Q1943.61 1767.85 1947.05 1766.95 Q1950.52 1766.05 1953.92 1764.24 L1953.92 1770.28 Q1950.48 1771.74 1946.87 1772.51 Q1943.26 1773.27 1939.55 1773.27 Q1930.24 1773.27 1924.79 1767.85 Q1919.37 1762.44 1919.37 1753.2 Q1919.37 1743.65 1924.51 1738.06 Q1929.69 1732.44 1938.44 1732.44 Q1946.28 1732.44 1950.83 1737.51 Q1955.41 1742.54 1955.41 1751.22 M1949.03 1749.35 Q1948.96 1744.1 1946.07 1740.98 Q1943.23 1737.85 1938.5 1737.85 Q1933.16 1737.85 1929.93 1740.87 Q1926.73 1743.9 1926.25 1749.38 L1949.03 1749.35 Z" fill="#000000" fill-rule="nonzero" fill-opacity="1" /><path clip-path="url(#clip0000)" d="M1991.49 1739.28 L1991.49 1718.24 L1997.88 1718.24 L1997.88 1772.26 L1991.49 1772.26 L1991.49 1766.43 Q1989.48 1769.9 1986.39 1771.6 Q1983.33 1773.27 1979.03 1773.27 Q1971.98 1773.27 1967.53 1767.65 Q1963.12 1762.02 1963.12 1752.85 Q1963.12 1743.69 1967.53 1738.06 Q1971.98 1732.44 1979.03 1732.44 Q1983.33 1732.44 1986.39 1734.14 Q1989.48 1735.81 1991.49 1739.28 M1969.72 1752.85 Q1969.72 1759.9 1972.6 1763.93 Q1975.52 1767.92 1980.59 1767.92 Q1985.66 1767.92 1988.57 1763.93 Q1991.49 1759.9 1991.49 1752.85 Q1991.49 1745.81 1988.57 1741.81 Q1985.66 1737.78 1980.59 1737.78 Q1975.52 1737.78 1972.6 1741.81 Q1969.72 1745.81 1969.72 1752.85 Z" fill="#000000" fill-rule="nonzero" fill-opacity="1" /><path clip-path="url(#clip0000)" d="M2061.63 1734.87 L2061.63 1740.84 Q2058.92 1739.35 2056.18 1738.62 Q2053.47 1737.85 2050.69 1737.85 Q2044.48 1737.85 2041.04 1741.81 Q2037.6 1745.74 2037.6 1752.85 Q2037.6 1759.97 2041.04 1763.93 Q2044.48 1767.85 2050.69 1767.85 Q2053.47 1767.85 2056.18 1767.12 Q2058.92 1766.36 2061.63 1764.87 L2061.63 1770.77 Q2058.96 1772.02 2056.07 1772.65 Q2053.23 1773.27 2050 1773.27 Q2041.21 1773.27 2036.04 1767.75 Q2030.87 1762.23 2030.87 1752.85 Q2030.87 1743.34 2036.07 1737.89 Q2041.32 1732.44 2050.41 1732.44 Q2053.37 1732.44 2056.18 1733.06 Q2058.99 1733.65 2061.63 1734.87 Z" fill="#000000" fill-rule="nonzero" fill-opacity="1" /><path clip-path="url(#clip0000)" d="M2090.41 1752.72 Q2082.67 1752.72 2079.68 1754.49 Q2076.7 1756.26 2076.7 1760.53 Q2076.7 1763.93 2078.92 1765.94 Q2081.18 1767.92 2085.03 1767.92 Q2090.34 1767.92 2093.54 1764.17 Q2096.77 1760.39 2096.77 1754.14 L2096.77 1752.72 L2090.41 1752.72 M2103.16 1750.08 L2103.16 1772.26 L2096.77 1772.26 L2096.77 1766.36 Q2094.58 1769.9 2091.32 1771.6 Q2088.05 1773.27 2083.33 1773.27 Q2077.36 1773.27 2073.82 1769.94 Q2070.31 1766.57 2070.31 1760.94 Q2070.31 1754.38 2074.68 1751.05 Q2079.09 1747.72 2087.81 1747.72 L2096.77 1747.72 L2096.77 1747.09 Q2096.77 1742.68 2093.85 1740.28 Q2090.97 1737.85 2085.73 1737.85 Q2082.39 1737.85 2079.23 1738.65 Q2076.07 1739.45 2073.16 1741.05 L2073.16 1735.15 Q2076.66 1733.79 2079.96 1733.13 Q2083.26 1732.44 2086.39 1732.44 Q2094.82 1732.44 2098.99 1736.81 Q2103.16 1741.19 2103.16 1750.08 Z" fill="#000000" fill-rule="nonzero" fill-opacity="1" /><path clip-path="url(#clip0000)" d="M2141.11 1734.52 L2141.11 1740.56 Q2138.4 1739.17 2135.48 1738.48 Q2132.57 1737.78 2129.44 1737.78 Q2124.68 1737.78 2122.29 1739.24 Q2119.93 1740.7 2119.93 1743.62 Q2119.93 1745.84 2121.63 1747.12 Q2123.33 1748.37 2128.47 1749.52 L2130.66 1750.01 Q2137.46 1751.47 2140.31 1754.14 Q2143.19 1756.78 2143.19 1761.53 Q2143.19 1766.95 2138.89 1770.11 Q2134.61 1773.27 2127.12 1773.27 Q2123.99 1773.27 2120.59 1772.65 Q2117.22 1772.06 2113.47 1770.84 L2113.47 1764.24 Q2117.01 1766.08 2120.45 1767.02 Q2123.89 1767.92 2127.25 1767.92 Q2131.77 1767.92 2134.2 1766.4 Q2136.63 1764.83 2136.63 1762.02 Q2136.63 1759.42 2134.86 1758.03 Q2133.12 1756.64 2127.18 1755.35 L2124.96 1754.83 Q2119.02 1753.58 2116.39 1751.01 Q2113.75 1748.41 2113.75 1743.9 Q2113.75 1738.41 2117.64 1735.42 Q2121.52 1732.44 2128.68 1732.44 Q2132.22 1732.44 2135.34 1732.96 Q2138.47 1733.48 2141.11 1734.52 Z" fill="#000000" fill-rule="nonzero" fill-opacity="1" /><path clip-path="url(#clip0000)" d="M2186.63 1751.22 L2186.63 1754.35 L2157.25 1754.35 Q2157.67 1760.94 2161.21 1764.42 Q2164.79 1767.85 2171.14 1767.85 Q2174.82 1767.85 2178.26 1766.95 Q2181.73 1766.05 2185.14 1764.24 L2185.14 1770.28 Q2181.7 1771.74 2178.09 1772.51 Q2174.48 1773.27 2170.76 1773.27 Q2161.46 1773.27 2156 1767.85 Q2150.59 1762.44 2150.59 1753.2 Q2150.59 1743.65 2155.73 1738.06 Q2160.9 1732.44 2169.65 1732.44 Q2177.5 1732.44 2182.05 1737.51 Q2186.63 1742.54 2186.63 1751.22 M2180.24 1749.35 Q2180.17 1744.1 2177.29 1740.98 Q2174.44 1737.85 2169.72 1737.85 Q2164.37 1737.85 2161.14 1740.87 Q2157.95 1743.9 2157.46 1749.38 L2180.24 1749.35 Z" fill="#000000" fill-rule="nonzero" fill-opacity="1" /><path clip-path="url(#clip0000)" d="M2221.91 1734.52 L2221.91 1740.56 Q2219.2 1739.17 2216.28 1738.48 Q2213.36 1737.78 2210.24 1737.78 Q2205.48 1737.78 2203.09 1739.24 Q2200.73 1740.7 2200.73 1743.62 Q2200.73 1745.84 2202.43 1747.12 Q2204.13 1748.37 2209.27 1749.52 L2211.45 1750.01 Q2218.26 1751.47 2221.11 1754.14 Q2223.99 1756.78 2223.99 1761.53 Q2223.99 1766.95 2219.68 1770.11 Q2215.41 1773.27 2207.91 1773.27 Q2204.79 1773.27 2201.39 1772.65 Q2198.02 1772.06 2194.27 1770.84 L2194.27 1764.24 Q2197.81 1766.08 2201.25 1767.02 Q2204.68 1767.92 2208.05 1767.92 Q2212.57 1767.92 2215 1766.4 Q2217.43 1764.83 2217.43 1762.02 Q2217.43 1759.42 2215.66 1758.03 Q2213.92 1756.64 2207.98 1755.35 L2205.76 1754.83 Q2199.82 1753.58 2197.18 1751.01 Q2194.55 1748.41 2194.55 1743.9 Q2194.55 1738.41 2198.43 1735.42 Q2202.32 1732.44 2209.48 1732.44 Q2213.02 1732.44 2216.14 1732.96 Q2219.27 1733.48 2221.91 1734.52 Z" fill="#000000" fill-rule="nonzero" fill-opacity="1" /><polyline clip-path="url(#clip0000)" style="stroke:#000000; stroke-linecap:round; stroke-linejoin:round; stroke-width:4; stroke-opacity:1; fill:none" points="357.934,1591.26 357.934,47.2441 "/>
<polyline clip-path="url(#clip0000)" style="stroke:#000000; stroke-linecap:round; stroke-linejoin:round; stroke-width:4; stroke-opacity:1; fill:none" points="3552.76,1591.26 3552.76,47.2441 "/>
<polyline clip-path="url(#clip0000)" style="stroke:#000000; stroke-linecap:round; stroke-linejoin:round; stroke-width:4; stroke-opacity:1; fill:none" points="357.934,1547.56 376.832,1547.56 "/>
<polyline clip-path="url(#clip0000)" style="stroke:#000000; stroke-linecap:round; stroke-linejoin:round; stroke-width:4; stroke-opacity:1; fill:none" points="357.934,1219.62 376.832,1219.62 "/>
<polyline clip-path="url(#clip0000)" style="stroke:#000000; stroke-linecap:round; stroke-linejoin:round; stroke-width:4; stroke-opacity:1; fill:none" points="357.934,891.685 376.832,891.685 "/>
<polyline clip-path="url(#clip0000)" style="stroke:#000000; stroke-linecap:round; stroke-linejoin:round; stroke-width:4; stroke-opacity:1; fill:none" points="357.934,563.749 376.832,563.749 "/>
<polyline clip-path="url(#clip0000)" style="stroke:#000000; stroke-linecap:round; stroke-linejoin:round; stroke-width:4; stroke-opacity:1; fill:none" points="357.934,235.813 376.832,235.813 "/>
<polyline clip-path="url(#clip0000)" style="stroke:#000000; stroke-linecap:round; stroke-linejoin:round; stroke-width:4; stroke-opacity:1; fill:none" points="3552.76,1547.56 3533.86,1547.56 "/>
<polyline clip-path="url(#clip0000)" style="stroke:#000000; stroke-linecap:round; stroke-linejoin:round; stroke-width:4; stroke-opacity:1; fill:none" points="3552.76,1219.62 3533.86,1219.62 "/>
<polyline clip-path="url(#clip0000)" style="stroke:#000000; stroke-linecap:round; stroke-linejoin:round; stroke-width:4; stroke-opacity:1; fill:none" points="3552.76,891.685 3533.86,891.685 "/>
<polyline clip-path="url(#clip0000)" style="stroke:#000000; stroke-linecap:round; stroke-linejoin:round; stroke-width:4; stroke-opacity:1; fill:none" points="3552.76,563.749 3533.86,563.749 "/>
<polyline clip-path="url(#clip0000)" style="stroke:#000000; stroke-linecap:round; stroke-linejoin:round; stroke-width:4; stroke-opacity:1; fill:none" points="3552.76,235.813 3533.86,235.813 "/>
<path clip-path="url(#clip0000)" d="M194.762 1529.81 Q190.249 1529.81 187.963 1534.26 Q185.706 1538.69 185.706 1547.6 Q185.706 1556.48 187.963 1560.94 Q190.249 1565.37 194.762 1565.37 Q199.305 1565.37 201.562 1560.94 Q203.848 1556.48 203.848 1547.6 Q203.848 1538.69 201.562 1534.26 Q199.305 1529.81 194.762 1529.81 M194.762 1525.18 Q202.025 1525.18 205.845 1530.93 Q209.693 1536.66 209.693 1547.6 Q209.693 1558.51 205.845 1564.27 Q202.025 1570 194.762 1570 Q187.5 1570 183.651 1564.27 Q179.832 1558.51 179.832 1547.6 Q179.832 1536.66 183.651 1530.93 Q187.5 1525.18 194.762 1525.18 Z" fill="#000000" fill-rule="nonzero" fill-opacity="1" /><path clip-path="url(#clip0000)" d="M219.965 1561.81 L226.07 1561.81 L226.07 1569.16 L219.965 1569.16 L219.965 1561.81 Z" fill="#000000" fill-rule="nonzero" fill-opacity="1" /><path clip-path="url(#clip0000)" d="M251.301 1529.81 Q246.788 1529.81 244.502 1534.26 Q242.245 1538.69 242.245 1547.6 Q242.245 1556.48 244.502 1560.94 Q246.788 1565.37 251.301 1565.37 Q255.844 1565.37 258.101 1560.94 Q260.387 1556.48 260.387 1547.6 Q260.387 1538.69 258.101 1534.26 Q255.844 1529.81 251.301 1529.81 M251.301 1525.18 Q258.564 1525.18 262.384 1530.93 Q266.232 1536.66 266.232 1547.6 Q266.232 1558.51 262.384 1564.27 Q258.564 1570 251.301 1570 Q244.039 1570 240.19 1564.27 Q236.371 1558.51 236.371 1547.6 Q236.371 1536.66 240.19 1530.93 Q244.039 1525.18 251.301 1525.18 Z" fill="#000000" fill-rule="nonzero" fill-opacity="1" /><path clip-path="url(#clip0000)" d="M289.004 1529.81 Q284.49 1529.81 282.204 1534.26 Q279.947 1538.69 279.947 1547.6 Q279.947 1556.48 282.204 1560.94 Q284.49 1565.37 289.004 1565.37 Q293.547 1565.37 295.804 1560.94 Q298.089 1556.48 298.089 1547.6 Q298.089 1538.69 295.804 1534.26 Q293.547 1529.81 289.004 1529.81 M289.004 1525.18 Q296.267 1525.18 300.086 1530.93 Q303.934 1536.66 303.934 1547.6 Q303.934 1558.51 300.086 1564.27 Q296.267 1570 289.004 1570 Q281.741 1570 277.893 1564.27 Q274.073 1558.51 274.073 1547.6 Q274.073 1536.66 277.893 1530.93 Q281.741 1525.18 289.004 1525.18 Z" fill="#000000" fill-rule="nonzero" fill-opacity="1" /><path clip-path="url(#clip0000)" d="M196.759 1201.87 Q192.245 1201.87 189.959 1206.33 Q187.702 1210.75 187.702 1219.66 Q187.702 1228.55 189.959 1233 Q192.245 1237.43 196.759 1237.43 Q201.302 1237.43 203.559 1233 Q205.845 1228.55 205.845 1219.66 Q205.845 1210.75 203.559 1206.33 Q201.302 1201.87 196.759 1201.87 M196.759 1197.24 Q204.022 1197.24 207.841 1203 Q211.689 1208.73 211.689 1219.66 Q211.689 1230.57 207.841 1236.33 Q204.022 1242.06 196.759 1242.06 Q189.496 1242.06 185.648 1236.33 Q181.828 1230.57 181.828 1219.66 Q181.828 1208.73 185.648 1203 Q189.496 1197.24 196.759 1197.24 Z" fill="#000000" fill-rule="nonzero" fill-opacity="1" /><path clip-path="url(#clip0000)" d="M221.961 1233.87 L228.067 1233.87 L228.067 1241.22 L221.961 1241.22 L221.961 1233.87 Z" fill="#000000" fill-rule="nonzero" fill-opacity="1" /><path clip-path="url(#clip0000)" d="M253.298 1201.87 Q248.784 1201.87 246.498 1206.33 Q244.241 1210.75 244.241 1219.66 Q244.241 1228.55 246.498 1233 Q248.784 1237.43 253.298 1237.43 Q257.841 1237.43 260.098 1233 Q262.384 1228.55 262.384 1219.66 Q262.384 1210.75 260.098 1206.33 Q257.841 1201.87 253.298 1201.87 M253.298 1197.24 Q260.561 1197.24 264.38 1203 Q268.228 1208.73 268.228 1219.66 Q268.228 1230.57 264.38 1236.33 Q260.561 1242.06 253.298 1242.06 Q246.035 1242.06 242.187 1236.33 Q238.368 1230.57 238.368 1219.66 Q238.368 1208.73 242.187 1203 Q246.035 1197.24 253.298 1197.24 Z" fill="#000000" fill-rule="nonzero" fill-opacity="1" /><path clip-path="url(#clip0000)" d="M283.535 1236.3 L303.934 1236.3 L303.934 1241.22 L276.504 1241.22 L276.504 1236.3 Q279.831 1232.86 285.561 1227.07 Q291.319 1221.26 292.794 1219.58 Q295.601 1216.42 296.701 1214.25 Q297.829 1212.05 297.829 1209.94 Q297.829 1206.5 295.398 1204.33 Q292.997 1202.16 289.12 1202.16 Q286.371 1202.16 283.304 1203.11 Q280.265 1204.07 276.793 1206.01 L276.793 1200.1 Q280.323 1198.69 283.39 1197.96 Q286.458 1197.24 289.004 1197.24 Q295.717 1197.24 299.71 1200.6 Q303.703 1203.95 303.703 1209.57 Q303.703 1212.23 302.69 1214.63 Q301.706 1217 299.073 1220.24 Q298.35 1221.08 294.473 1225.1 Q290.595 1229.1 283.535 1236.3 Z" fill="#000000" fill-rule="nonzero" fill-opacity="1" /><path clip-path="url(#clip0000)" d="M194.155 873.934 Q189.641 873.934 187.355 878.39 Q185.098 882.817 185.098 891.729 Q185.098 900.612 187.355 905.068 Q189.641 909.495 194.155 909.495 Q198.698 909.495 200.955 905.068 Q203.24 900.612 203.24 891.729 Q203.24 882.817 200.955 878.39 Q198.698 873.934 194.155 873.934 M194.155 869.304 Q201.417 869.304 205.237 875.062 Q209.085 880.791 209.085 891.729 Q209.085 902.637 205.237 908.395 Q201.417 914.124 194.155 914.124 Q186.892 914.124 183.044 908.395 Q179.224 902.637 179.224 891.729 Q179.224 880.791 183.044 875.062 Q186.892 869.304 194.155 869.304 Z" fill="#000000" fill-rule="nonzero" fill-opacity="1" /><path clip-path="url(#clip0000)" d="M219.357 905.936 L225.462 905.936 L225.462 913.285 L219.357 913.285 L219.357 905.936 Z" fill="#000000" fill-rule="nonzero" fill-opacity="1" /><path clip-path="url(#clip0000)" d="M250.694 873.934 Q246.18 873.934 243.894 878.39 Q241.637 882.817 241.637 891.729 Q241.637 900.612 243.894 905.068 Q246.18 909.495 250.694 909.495 Q255.237 909.495 257.494 905.068 Q259.779 900.612 259.779 891.729 Q259.779 882.817 257.494 878.39 Q255.237 873.934 250.694 873.934 M250.694 869.304 Q257.957 869.304 261.776 875.062 Q265.624 880.791 265.624 891.729 Q265.624 902.637 261.776 908.395 Q257.957 914.124 250.694 914.124 Q243.431 914.124 239.583 908.395 Q235.763 902.637 235.763 891.729 Q235.763 880.791 239.583 875.062 Q243.431 869.304 250.694 869.304 Z" fill="#000000" fill-rule="nonzero" fill-opacity="1" /><path clip-path="url(#clip0000)" d="M291.955 875.178 L277.198 898.239 L291.955 898.239 L291.955 875.178 M290.422 870.085 L297.771 870.085 L297.771 898.239 L303.934 898.239 L303.934 903.1 L297.771 903.1 L297.771 913.285 L291.955 913.285 L291.955 903.1 L272.453 903.1 L272.453 897.458 L290.422 870.085 Z" fill="#000000" fill-rule="nonzero" fill-opacity="1" /><path clip-path="url(#clip0000)" d="M194.56 545.998 Q190.046 545.998 187.76 550.454 Q185.503 554.881 185.503 563.793 Q185.503 572.676 187.76 577.132 Q190.046 581.559 194.56 581.559 Q199.103 581.559 201.36 577.132 Q203.645 572.676 203.645 563.793 Q203.645 554.881 201.36 550.454 Q199.103 545.998 194.56 545.998 M194.56 541.368 Q201.823 541.368 205.642 547.126 Q209.49 552.855 209.49 563.793 Q209.49 574.701 205.642 580.459 Q201.823 586.189 194.56 586.189 Q187.297 586.189 183.449 580.459 Q179.629 574.701 179.629 563.793 Q179.629 552.855 183.449 547.126 Q187.297 541.368 194.56 541.368 Z" fill="#000000" fill-rule="nonzero" fill-opacity="1" /><path clip-path="url(#clip0000)" d="M219.762 578 L225.868 578 L225.868 585.349 L219.762 585.349 L219.762 578 Z" fill="#000000" fill-rule="nonzero" fill-opacity="1" /><path clip-path="url(#clip0000)" d="M251.099 545.998 Q246.585 545.998 244.299 550.454 Q242.042 554.881 242.042 563.793 Q242.042 572.676 244.299 577.132 Q246.585 581.559 251.099 581.559 Q255.642 581.559 257.899 577.132 Q260.185 572.676 260.185 563.793 Q260.185 554.881 257.899 550.454 Q255.642 545.998 251.099 545.998 M251.099 541.368 Q258.362 541.368 262.181 547.126 Q266.029 552.855 266.029 563.793 Q266.029 574.701 262.181 580.459 Q258.362 586.189 251.099 586.189 Q243.836 586.189 239.988 580.459 Q236.168 574.701 236.168 563.793 Q236.168 552.855 239.988 547.126 Q243.836 541.368 251.099 541.368 Z" fill="#000000" fill-rule="nonzero" fill-opacity="1" /><path clip-path="url(#clip0000)" d="M289.525 561.42 Q285.589 561.42 283.275 564.111 Q280.989 566.802 280.989 571.49 Q280.989 576.148 283.275 578.868 Q285.589 581.559 289.525 581.559 Q293.46 581.559 295.746 578.868 Q298.06 576.148 298.06 571.49 Q298.06 566.802 295.746 564.111 Q293.46 561.42 289.525 561.42 M301.128 543.104 L301.128 548.428 Q298.929 547.387 296.672 546.837 Q294.444 546.287 292.245 546.287 Q286.458 546.287 283.39 550.193 Q280.352 554.1 279.918 561.999 Q281.625 559.481 284.201 558.15 Q286.776 556.791 289.872 556.791 Q296.382 556.791 300.144 560.755 Q303.934 564.69 303.934 571.49 Q303.934 578.145 299.999 582.167 Q296.064 586.189 289.525 586.189 Q282.03 586.189 278.066 580.459 Q274.102 574.701 274.102 563.793 Q274.102 553.55 278.963 547.473 Q283.824 541.368 292.013 541.368 Q294.212 541.368 296.44 541.802 Q298.697 542.236 301.128 543.104 Z" fill="#000000" fill-rule="nonzero" fill-opacity="1" /><path clip-path="url(#clip0000)" d="M194.878 218.062 Q190.364 218.062 188.078 222.518 Q185.822 226.945 185.822 235.857 Q185.822 244.74 188.078 249.196 Q190.364 253.623 194.878 253.623 Q199.421 253.623 201.678 249.196 Q203.964 244.74 203.964 235.857 Q203.964 226.945 201.678 222.518 Q199.421 218.062 194.878 218.062 M194.878 213.432 Q202.141 213.432 205.96 219.19 Q209.809 224.919 209.809 235.857 Q209.809 246.765 205.96 252.523 Q202.141 258.253 194.878 258.253 Q187.615 258.253 183.767 252.523 Q179.948 246.765 179.948 235.857 Q179.948 224.919 183.767 219.19 Q187.615 213.432 194.878 213.432 Z" fill="#000000" fill-rule="nonzero" fill-opacity="1" /><path clip-path="url(#clip0000)" d="M220.081 250.064 L226.186 250.064 L226.186 257.413 L220.081 257.413 L220.081 250.064 Z" fill="#000000" fill-rule="nonzero" fill-opacity="1" /><path clip-path="url(#clip0000)" d="M251.417 218.062 Q246.903 218.062 244.617 222.518 Q242.361 226.945 242.361 235.857 Q242.361 244.74 244.617 249.196 Q246.903 253.623 251.417 253.623 Q255.96 253.623 258.217 249.196 Q260.503 244.74 260.503 235.857 Q260.503 226.945 258.217 222.518 Q255.96 218.062 251.417 218.062 M251.417 213.432 Q258.68 213.432 262.499 219.19 Q266.348 224.919 266.348 235.857 Q266.348 246.765 262.499 252.523 Q258.68 258.253 251.417 258.253 Q244.155 258.253 240.306 252.523 Q236.487 246.765 236.487 235.857 Q236.487 224.919 240.306 219.19 Q244.155 213.432 251.417 213.432 Z" fill="#000000" fill-rule="nonzero" fill-opacity="1" /><path clip-path="url(#clip0000)" d="M289.12 236.899 Q284.953 236.899 282.551 239.127 Q280.179 241.355 280.179 245.261 Q280.179 249.167 282.551 251.395 Q284.953 253.623 289.12 253.623 Q293.286 253.623 295.688 251.395 Q298.089 249.138 298.089 245.261 Q298.089 241.355 295.688 239.127 Q293.315 236.899 289.12 236.899 M283.275 234.41 Q279.513 233.484 277.401 230.909 Q275.318 228.334 275.318 224.63 Q275.318 219.451 278.992 216.441 Q282.696 213.432 289.12 213.432 Q295.572 213.432 299.247 216.441 Q302.922 219.451 302.922 224.63 Q302.922 228.334 300.809 230.909 Q298.726 233.484 294.993 234.41 Q299.218 235.394 301.562 238.258 Q303.934 241.123 303.934 245.261 Q303.934 251.54 300.086 254.896 Q296.267 258.253 289.12 258.253 Q281.973 258.253 278.124 254.896 Q274.305 251.54 274.305 245.261 Q274.305 241.123 276.677 238.258 Q279.05 235.394 283.275 234.41 M281.133 225.18 Q281.133 228.536 283.217 230.417 Q285.329 232.298 289.12 232.298 Q292.881 232.298 294.993 230.417 Q297.135 228.536 297.135 225.18 Q297.135 221.823 294.993 219.943 Q292.881 218.062 289.12 218.062 Q285.329 218.062 283.217 219.943 Q281.133 221.823 281.133 225.18 Z" fill="#000000" fill-rule="nonzero" fill-opacity="1" /><path clip-path="url(#clip0000)" d="M63.5962 995.638 L83.0752 995.638 L83.0752 986.818 Q83.0752 981.923 80.5405 979.249 Q78.0058 976.575 73.3183 976.575 Q68.6656 976.575 66.1309 979.249 Q63.5962 981.923 63.5962 986.818 L63.5962 995.638 M57.8323 1002.65 L57.8323 986.818 Q57.8323 978.103 61.7906 973.659 Q65.7142 969.18 73.3183 969.18 Q80.9919 969.18 84.9155 973.659 Q88.8391 978.103 88.8391 986.818 L88.8391 995.638 L109.672 995.638 L109.672 1002.65 L57.8323 1002.65 Z" fill="#000000" fill-rule="nonzero" fill-opacity="1" /><path clip-path="url(#clip0000)" d="M76.7558 938.763 Q76.1308 939.84 75.8531 941.124 Q75.5406 942.374 75.5406 943.902 Q75.5406 949.319 79.0822 952.235 Q82.5891 955.117 89.1863 955.117 L109.672 955.117 L109.672 961.541 L70.7836 961.541 L70.7836 955.117 L76.8253 955.117 Q73.2836 953.103 71.5822 949.874 Q69.8461 946.645 69.8461 942.027 Q69.8461 941.367 69.9503 940.569 Q70.0197 939.77 70.1934 938.798 L76.7558 938.763 Z" fill="#000000" fill-rule="nonzero" fill-opacity="1" /><path clip-path="url(#clip0000)" d="M75.2628 918.555 Q75.2628 923.694 79.2905 926.68 Q83.2836 929.666 90.2627 929.666 Q97.2418 929.666 101.27 926.715 Q105.263 923.728 105.263 918.555 Q105.263 913.451 101.235 910.465 Q97.2071 907.479 90.2627 907.479 Q83.353 907.479 79.3253 910.465 Q75.2628 913.451 75.2628 918.555 M69.8461 918.555 Q69.8461 910.222 75.2628 905.465 Q80.6794 900.708 90.2627 900.708 Q99.8113 900.708 105.263 905.465 Q110.679 910.222 110.679 918.555 Q110.679 926.923 105.263 931.68 Q99.8113 936.402 90.2627 936.402 Q80.6794 936.402 75.2628 931.68 Q69.8461 926.923 69.8461 918.555 Z" fill="#000000" fill-rule="nonzero" fill-opacity="1" /><path clip-path="url(#clip0000)" d="M90.2627 862.201 Q83.2141 862.201 79.2211 865.118 Q75.1933 868 75.1933 873.069 Q75.1933 878.138 79.2211 881.055 Q83.2141 883.937 90.2627 883.937 Q97.3113 883.937 101.339 881.055 Q105.332 878.138 105.332 873.069 Q105.332 868 101.339 865.118 Q97.3113 862.201 90.2627 862.201 M76.6864 883.937 Q73.2142 881.923 71.5475 878.868 Q69.8461 875.777 69.8461 871.507 Q69.8461 864.423 75.4711 860.014 Q81.0961 855.569 90.2627 855.569 Q99.4293 855.569 105.054 860.014 Q110.679 864.423 110.679 871.507 Q110.679 875.777 109.013 878.868 Q107.311 881.923 103.839 883.937 L109.672 883.937 L109.672 890.361 L55.6448 890.361 L55.6448 883.937 L76.6864 883.937 Z" fill="#000000" fill-rule="nonzero" fill-opacity="1" /><path clip-path="url(#clip0000)" d="M90.1238 827.305 Q90.1238 835.048 91.8946 838.035 Q93.6655 841.021 97.9363 841.021 Q101.339 841.021 103.353 838.798 Q105.332 836.541 105.332 832.687 Q105.332 827.375 101.582 824.18 Q97.7974 820.951 91.5474 820.951 L90.1238 820.951 L90.1238 827.305 M87.4849 814.562 L109.672 814.562 L109.672 820.951 L103.77 820.951 Q107.311 823.139 109.013 826.403 Q110.679 829.667 110.679 834.389 Q110.679 840.361 107.346 843.903 Q103.978 847.409 98.3529 847.409 Q91.7905 847.409 88.4572 843.034 Q85.1238 838.625 85.1238 829.91 L85.1238 820.951 L84.4988 820.951 Q80.0891 820.951 77.6933 823.868 Q75.2628 826.75 75.2628 831.993 Q75.2628 835.326 76.0614 838.486 Q76.86 841.646 78.4572 844.562 L72.5545 844.562 Q71.2003 841.055 70.5406 837.757 Q69.8461 834.458 69.8461 831.333 Q69.8461 822.896 74.2211 818.729 Q78.5961 814.562 87.4849 814.562 Z" fill="#000000" fill-rule="nonzero" fill-opacity="1" /><path clip-path="url(#clip0000)" d="M90.2627 773.486 Q83.2141 773.486 79.2211 776.403 Q75.1933 779.285 75.1933 784.354 Q75.1933 789.424 79.2211 792.34 Q83.2141 795.222 90.2627 795.222 Q97.3113 795.222 101.339 792.34 Q105.332 789.424 105.332 784.354 Q105.332 779.285 101.339 776.403 Q97.3113 773.486 90.2627 773.486 M76.6864 795.222 Q73.2142 793.208 71.5475 790.153 Q69.8461 787.063 69.8461 782.792 Q69.8461 775.708 75.4711 771.299 Q81.0961 766.854 90.2627 766.854 Q99.4293 766.854 105.054 771.299 Q110.679 775.708 110.679 782.792 Q110.679 787.063 109.013 790.153 Q107.311 793.208 103.839 795.222 L109.672 795.222 L109.672 801.646 L55.6448 801.646 L55.6448 795.222 L76.6864 795.222 Z" fill="#000000" fill-rule="nonzero" fill-opacity="1" /><path clip-path="url(#clip0000)" d="M70.7836 756.264 L70.7836 749.875 L109.672 749.875 L109.672 756.264 L70.7836 756.264 M55.6448 756.264 L55.6448 749.875 L63.7351 749.875 L63.7351 756.264 L55.6448 756.264 Z" fill="#000000" fill-rule="nonzero" fill-opacity="1" /><path clip-path="url(#clip0000)" d="M55.6448 736.507 L55.6448 730.118 L109.672 730.118 L109.672 736.507 L55.6448 736.507 Z" fill="#000000" fill-rule="nonzero" fill-opacity="1" /><path clip-path="url(#clip0000)" d="M70.7836 716.75 L70.7836 710.362 L109.672 710.362 L109.672 716.75 L70.7836 716.75 M55.6448 716.75 L55.6448 710.362 L63.7351 710.362 L63.7351 716.75 L55.6448 716.75 Z" fill="#000000" fill-rule="nonzero" fill-opacity="1" /><path clip-path="url(#clip0000)" d="M59.742 690.674 L70.7836 690.674 L70.7836 677.515 L75.7489 677.515 L75.7489 690.674 L96.8599 690.674 Q101.617 690.674 102.971 689.389 Q104.325 688.07 104.325 684.077 L104.325 677.515 L109.672 677.515 L109.672 684.077 Q109.672 691.473 106.929 694.285 Q104.152 697.098 96.8599 697.098 L75.7489 697.098 L75.7489 701.785 L70.7836 701.785 L70.7836 697.098 L59.742 697.098 L59.742 690.674 Z" fill="#000000" fill-rule="nonzero" fill-opacity="1" /><path clip-path="url(#clip0000)" d="M113.283 652.931 Q120.228 655.64 122.346 658.209 Q124.464 660.779 124.464 665.084 L124.464 670.188 L119.117 670.188 L119.117 666.438 Q119.117 663.799 117.867 662.341 Q116.617 660.883 111.964 659.112 L109.047 657.966 L70.7836 673.695 L70.7836 666.924 L101.2 654.772 L70.7836 642.619 L70.7836 635.848 L113.283 652.931 Z" fill="#000000" fill-rule="nonzero" fill-opacity="1" /><polyline clip-path="url(#clip0001)" style="stroke:#4682b4; stroke-linecap:round; stroke-linejoin:round; stroke-width:12; stroke-opacity:1; fill:none" points="448.354,1547.56 486.029,1547.56 523.703,1547.55 561.378,1547.51 599.053,1547.33 636.728,1546.66 674.402,1544.55 712.077,1538.97 749.752,1526.1 787.427,1499.87 825.102,1452.19 862.776,1374.16 900.451,1258.56 938.126,1102.95 975.801,912.4 1013.48,700.681 1051.15,488.963 1088.83,302.152 1126.5,163.773 1164.17,90.9425 1201.85,90.9425 1239.52,160.305 1277.2,286.419 1314.87,450.915 1352.55,633.689 1390.22,816.463 1427.9,985.177 1465.57,1130.98 1503.25,1250 1540.92,1342.35 1578.6,1410.75 1616.27,1459.29 1653.95,1492.39 1691.62,1514.12 1729.3,1527.89 1766.97,1536.32 1804.65,1541.31 1842.32,1544.18 1880,1545.78 1917.67,1546.65 1955.35,1547.1 1993.02,1547.34 2030.69,1547.45 2068.37,1547.51 2106.04,1547.53 2143.72,1547.55 2181.39,1547.55 2219.07,1547.56 2256.74,1547.56 2294.42,1547.56 2332.09,1547.56 2369.77,1547.56 2407.44,1547.56 2445.12,1547.56 2482.79,1547.56 2520.47,1547.56 2558.14,1547.56 2595.82,1547.56 2633.49,1547.56 2671.17,1547.56 2708.84,1547.56 2746.52,1547.56 2784.19,1547.56 2821.87,1547.56 2859.54,1547.56 2897.21,1547.56 2934.89,1547.56 2972.56,1547.56 3010.24,1547.56 3047.91,1547.56 3085.59,1547.56 3123.26,1547.56 3160.94,1547.56 3198.61,1547.56 3236.29,1547.56 3273.96,1547.56 3311.64,1547.56 3349.31,1547.56 3386.99,1547.56 3424.66,1547.56 3462.34,1547.56 "/>
<polyline clip-path="url(#clip0001)" style="stroke:#ff8c00; stroke-linecap:round; stroke-linejoin:round; stroke-width:12; stroke-opacity:1; fill:none" points="448.354,1542.31 486.029,1526.57 523.703,1497.19 561.378,1453.53 599.053,1397.12 636.728,1330.92 674.402,1258.71 712.077,1184.43 749.752,1111.81 787.427,1044.03 825.102,983.604 862.776,932.336 900.451,891.321 938.126,861.033 975.801,841.418 1013.48,832.003 1051.15,832.003 1088.83,840.421 1126.5,856.135 1164.17,877.97 1201.85,904.753 1239.52,935.363 1277.2,968.755 1314.87,1003.99 1352.55,1040.22 1390.22,1076.75 1427.9,1112.97 1465.57,1148.38 1503.25,1182.59 1540.92,1215.32 1578.6,1246.32 1616.27,1275.48 1653.95,1302.68 1691.62,1327.91 1729.3,1351.17 1766.97,1372.49 1804.65,1391.94 1842.32,1409.61 1880,1425.58 1917.67,1439.97 1955.35,1452.88 1993.02,1464.42 2030.69,1474.72 2068.37,1483.86 2106.04,1491.97 2143.72,1499.14 2181.39,1505.45 2219.07,1511.01 2256.74,1515.88 2294.42,1520.15 2332.09,1523.87 2369.77,1527.12 2407.44,1529.95 2445.12,1532.41 2482.79,1534.54 2520.47,1536.39 2558.14,1537.98 2595.82,1539.36 2633.49,1540.55 2671.17,1541.57 2708.84,1542.45 2746.52,1543.2 2784.19,1543.85 2821.87,1544.4 2859.54,1544.88 2897.21,1545.28 2934.89,1545.62 2972.56,1545.92 3010.24,1546.17 3047.91,1546.38 3085.59,1546.56 3123.26,1546.72 3160.94,1546.85 3198.61,1546.96 3236.29,1547.05 3273.96,1547.13 3311.64,1547.2 3349.31,1547.26 3386.99,1547.3 3424.66,1547.34 3462.34,1547.38 "/>
<polyline clip-path="url(#clip0001)" style="stroke:#ff8c00; stroke-linecap:round; stroke-linejoin:round; stroke-width:12; stroke-opacity:1; fill:none" stroke-dasharray="48, 30" points="448.354,766.757 486.029,803.938 523.703,839.349 561.378,873.073 599.053,905.191 636.728,935.78 674.402,964.912 712.077,992.657 749.752,1019.08 787.427,1044.25 825.102,1068.21 862.776,1091.04 900.451,1112.78 938.126,1133.48 975.801,1153.2 1013.48,1171.98 1051.15,1189.86 1088.83,1206.9 1126.5,1223.12 1164.17,1238.57 1201.85,1253.28 1239.52,1267.3 1277.2,1280.64 1314.87,1293.35 1352.55,1305.46 1390.22,1316.98 1427.9,1327.96 1465.57,1338.42 1503.25,1348.38 1540.92,1357.86 1578.6,1366.9 1616.27,1375.5 1653.95,1383.69 1691.62,1391.5 1729.3,1398.93 1766.97,1406.01 1804.65,1412.75 1842.32,1419.17 1880,1425.28 1917.67,1431.1 1955.35,1436.65 1993.02,1441.93 2030.69,1446.96 2068.37,1451.75 2106.04,1456.31 2143.72,1460.66 2181.39,1464.8 2219.07,1468.74 2256.74,1472.49 2294.42,1476.06 2332.09,1479.47 2369.77,1482.71 2407.44,1485.8 2445.12,1488.74 2482.79,1491.54 2520.47,1494.21 2558.14,1496.75 2595.82,1499.17 2633.49,1501.47 2671.17,1503.67 2708.84,1505.76 2746.52,1507.75 2784.19,1509.64 2821.87,1511.45 2859.54,1513.17 2897.21,1514.81 2934.89,1516.37 2972.56,1517.85 3010.24,1519.26 3047.91,1520.61 3085.59,1521.9 3123.26,1523.12 3160.94,1524.28 3198.61,1525.39 3236.29,1526.45 3273.96,1527.45 3311.64,1528.41 3349.31,1529.32 3386.99,1530.19 3424.66,1531.02 3462.34,1531.8 "/>
<polyline clip-path="url(#clip0001)" style="stroke:#808080; stroke-linecap:round; stroke-linejoin:round; stroke-width:8; stroke-opacity:1; fill:none" stroke-dasharray="4, 8" points="1201.85,3135.27 1201.85,-1496.77 "/>
<path clip-path="url(#clip0000)" d="M2419.23 455.111 L3446.26 455.111 L3446.26 98.7111 L2419.23 98.7111  Z" fill="#ffffff" fill-rule="evenodd" fill-opacity="1"/>
<polyline clip-path="url(#clip0000)" style="stroke:#000000; stroke-linecap:round; stroke-linejoin:round; stroke-width:4; stroke-opacity:1; fill:none" points="2419.23,455.111 3446.26,455.111 3446.26,98.7111 2419.23,98.7111 2419.23,455.111 "/>
<polyline clip-path="url(#clip0000)" style="stroke:#4682b4; stroke-linecap:round; stroke-linejoin:round; stroke-width:16.5; stroke-opacity:1; fill:none" points="2454.73,169.991 2667.72,169.991 "/>
<path clip-path="url(#clip0000)" d="M2709.64 151.515 L2709.64 169.37 L2717.73 169.37 Q2722.22 169.37 2724.67 167.047 Q2727.12 164.724 2727.12 160.427 Q2727.12 156.162 2724.67 153.838 Q2722.22 151.515 2717.73 151.515 L2709.64 151.515 M2703.22 146.231 L2717.73 146.231 Q2725.72 146.231 2729.79 149.86 Q2733.9 153.456 2733.9 160.427 Q2733.9 167.461 2729.79 171.057 Q2725.72 174.654 2717.73 174.654 L2709.64 174.654 L2709.64 193.751 L2703.22 193.751 L2703.22 146.231 Z" fill="#000000" fill-rule="nonzero" fill-opacity="1" /><path clip-path="url(#clip0000)" d="M2753.76 162.209 Q2749.05 162.209 2746.31 165.901 Q2743.57 169.561 2743.57 175.959 Q2743.57 182.357 2746.28 186.049 Q2749.02 189.709 2753.76 189.709 Q2758.44 189.709 2761.18 186.017 Q2763.91 182.325 2763.91 175.959 Q2763.91 169.625 2761.18 165.933 Q2758.44 162.209 2753.76 162.209 M2753.76 157.244 Q2761.4 157.244 2765.76 162.209 Q2770.12 167.174 2770.12 175.959 Q2770.12 184.712 2765.76 189.709 Q2761.4 194.674 2753.76 194.674 Q2746.09 194.674 2741.73 189.709 Q2737.4 184.712 2737.4 175.959 Q2737.4 167.174 2741.73 162.209 Q2746.09 157.244 2753.76 157.244 Z" fill="#000000" fill-rule="nonzero" fill-opacity="1" /><path clip-path="url(#clip0000)" d="M2779.83 158.103 L2785.68 158.103 L2785.68 193.751 L2779.83 193.751 L2779.83 158.103 M2779.83 144.226 L2785.68 144.226 L2785.68 151.642 L2779.83 151.642 L2779.83 144.226 Z" fill="#000000" fill-rule="nonzero" fill-opacity="1" /><path clip-path="url(#clip0000)" d="M2820.66 159.154 L2820.66 164.692 Q2818.18 163.419 2815.51 162.782 Q2812.83 162.145 2809.97 162.145 Q2805.61 162.145 2803.41 163.482 Q2801.25 164.819 2801.25 167.493 Q2801.25 169.53 2802.81 170.707 Q2804.37 171.853 2809.08 172.903 L2811.08 173.349 Q2817.32 174.686 2819.93 177.137 Q2822.57 179.556 2822.57 183.916 Q2822.57 188.881 2818.63 191.778 Q2814.71 194.674 2807.84 194.674 Q2804.97 194.674 2801.85 194.101 Q2798.76 193.56 2795.33 192.446 L2795.33 186.399 Q2798.57 188.086 2801.72 188.945 Q2804.88 189.773 2807.96 189.773 Q2812.1 189.773 2814.33 188.372 Q2816.56 186.94 2816.56 184.362 Q2816.56 181.975 2814.93 180.701 Q2813.34 179.428 2807.9 178.251 L2805.86 177.773 Q2800.42 176.627 2798 174.272 Q2795.58 171.885 2795.58 167.747 Q2795.58 162.718 2799.15 159.981 Q2802.71 157.244 2809.27 157.244 Q2812.51 157.244 2815.38 157.721 Q2818.24 158.199 2820.66 159.154 Z" fill="#000000" fill-rule="nonzero" fill-opacity="1" /><path clip-path="url(#clip0000)" d="M2854.62 159.154 L2854.62 164.692 Q2852.14 163.419 2849.47 162.782 Q2846.79 162.145 2843.93 162.145 Q2839.57 162.145 2837.37 163.482 Q2835.21 164.819 2835.21 167.493 Q2835.21 169.53 2836.77 170.707 Q2838.33 171.853 2843.04 172.903 L2845.04 173.349 Q2851.28 174.686 2853.89 177.137 Q2856.53 179.556 2856.53 183.916 Q2856.53 188.881 2852.59 191.778 Q2848.67 194.674 2841.8 194.674 Q2838.93 194.674 2835.81 194.101 Q2832.73 193.56 2829.29 192.446 L2829.29 186.399 Q2832.53 188.086 2835.69 188.945 Q2838.84 189.773 2841.92 189.773 Q2846.06 189.773 2848.29 188.372 Q2850.52 186.94 2850.52 184.362 Q2850.52 181.975 2848.89 180.701 Q2847.3 179.428 2841.86 178.251 L2839.82 177.773 Q2834.38 176.627 2831.96 174.272 Q2829.54 171.885 2829.54 167.747 Q2829.54 162.718 2833.11 159.981 Q2836.67 157.244 2843.23 157.244 Q2846.48 157.244 2849.34 157.721 Q2852.2 158.199 2854.62 159.154 Z" fill="#000000" fill-rule="nonzero" fill-opacity="1" /><path clip-path="url(#clip0000)" d="M2879.67 162.209 Q2874.96 162.209 2872.23 165.901 Q2869.49 169.561 2869.49 175.959 Q2869.49 182.357 2872.19 186.049 Q2874.93 189.709 2879.67 189.709 Q2884.35 189.709 2887.09 186.017 Q2889.83 182.325 2889.83 175.959 Q2889.83 169.625 2887.09 165.933 Q2884.35 162.209 2879.67 162.209 M2879.67 157.244 Q2887.31 157.244 2891.67 162.209 Q2896.03 167.174 2896.03 175.959 Q2896.03 184.712 2891.67 189.709 Q2887.31 194.674 2879.67 194.674 Q2872 194.674 2867.64 189.709 Q2863.31 184.712 2863.31 175.959 Q2863.31 167.174 2867.64 162.209 Q2872 157.244 2879.67 157.244 Z" fill="#000000" fill-rule="nonzero" fill-opacity="1" /><path clip-path="url(#clip0000)" d="M2935.37 172.235 L2935.37 193.751 L2929.52 193.751 L2929.52 172.426 Q2929.52 167.365 2927.54 164.851 Q2925.57 162.336 2921.62 162.336 Q2916.88 162.336 2914.14 165.36 Q2911.41 168.384 2911.41 173.604 L2911.41 193.751 L2905.52 193.751 L2905.52 158.103 L2911.41 158.103 L2911.41 163.641 Q2913.51 160.427 2916.34 158.835 Q2919.2 157.244 2922.93 157.244 Q2929.07 157.244 2932.22 161.063 Q2935.37 164.851 2935.37 172.235 Z" fill="#000000" fill-rule="nonzero" fill-opacity="1" /><path clip-path="url(#clip0000)" d="M2948.55 185.667 L2955.27 185.667 L2955.27 191.141 L2950.05 201.326 L2945.94 201.326 L2948.55 191.141 L2948.55 185.667 Z" fill="#000000" fill-rule="nonzero" fill-opacity="1" /><path clip-path="url(#clip0000)" d="M3011.22 159.154 L3011.22 164.692 Q3008.74 163.419 3006.06 162.782 Q3003.39 162.145 3000.53 162.145 Q2996.17 162.145 2993.97 163.482 Q2991.8 164.819 2991.8 167.493 Q2991.8 169.53 2993.36 170.707 Q2994.92 171.853 2999.63 172.903 L3001.64 173.349 Q3007.88 174.686 3010.49 177.137 Q3013.13 179.556 3013.13 183.916 Q3013.13 188.881 3009.18 191.778 Q3005.27 194.674 2998.39 194.674 Q2995.53 194.674 2992.41 194.101 Q2989.32 193.56 2985.88 192.446 L2985.88 186.399 Q2989.13 188.086 2992.28 188.945 Q2995.43 189.773 2998.52 189.773 Q3002.66 189.773 3004.89 188.372 Q3007.11 186.94 3007.11 184.362 Q3007.11 181.975 3005.49 180.701 Q3003.9 179.428 2998.46 178.251 L2996.42 177.773 Q2990.98 176.627 2988.56 174.272 Q2986.14 171.885 2986.14 167.747 Q2986.14 162.718 2989.7 159.981 Q2993.27 157.244 2999.83 157.244 Q3003.07 157.244 3005.94 157.721 Q3008.8 158.199 3011.22 159.154 Z" fill="#000000" fill-rule="nonzero" fill-opacity="1" /><path clip-path="url(#clip0000)" d="M3045.91 163.514 L3045.91 144.226 L3051.77 144.226 L3051.77 193.751 L3045.91 193.751 L3045.91 188.404 Q3044.07 191.587 3041.23 193.146 Q3038.43 194.674 3034.49 194.674 Q3028.03 194.674 3023.95 189.518 Q3019.91 184.362 3019.91 175.959 Q3019.91 167.556 3023.95 162.4 Q3028.03 157.244 3034.49 157.244 Q3038.43 157.244 3041.23 158.803 Q3044.07 160.331 3045.91 163.514 M3025.96 175.959 Q3025.96 182.42 3028.6 186.112 Q3031.27 189.773 3035.92 189.773 Q3040.57 189.773 3043.24 186.112 Q3045.91 182.42 3045.91 175.959 Q3045.91 169.498 3043.24 165.838 Q3040.57 162.145 3035.92 162.145 Q3031.27 162.145 3028.6 165.838 Q3025.96 169.498 3025.96 175.959 Z" fill="#000000" fill-rule="nonzero" fill-opacity="1" /><path clip-path="url(#clip0000)" d="M3103.05 151.833 L3086.81 177.2 L3103.05 177.2 L3103.05 151.833 M3101.36 146.231 L3109.44 146.231 L3109.44 177.2 L3116.22 177.2 L3116.22 182.548 L3109.44 182.548 L3109.44 193.751 L3103.05 193.751 L3103.05 182.548 L3081.59 182.548 L3081.59 176.341 L3101.36 146.231 Z" fill="#000000" fill-rule="nonzero" fill-opacity="1" /><path clip-path="url(#clip0000)" d="M3126.85 185.667 L3133.57 185.667 L3133.57 193.751 L3126.85 193.751 L3126.85 185.667 Z" fill="#000000" fill-rule="nonzero" fill-opacity="1" /><path clip-path="url(#clip0000)" d="M3147.64 146.231 L3172.88 146.231 L3172.88 151.642 L3153.53 151.642 L3153.53 163.291 Q3154.93 162.814 3156.33 162.591 Q3157.73 162.336 3159.13 162.336 Q3167.08 162.336 3171.73 166.697 Q3176.38 171.057 3176.38 178.505 Q3176.38 186.176 3171.6 190.441 Q3166.83 194.674 3158.14 194.674 Q3155.15 194.674 3152.03 194.165 Q3148.94 193.656 3145.63 192.637 L3145.63 186.176 Q3148.5 187.736 3151.55 188.499 Q3154.61 189.263 3158.01 189.263 Q3163.52 189.263 3166.73 186.367 Q3169.95 183.471 3169.95 178.505 Q3169.95 173.54 3166.73 170.644 Q3163.52 167.747 3158.01 167.747 Q3155.44 167.747 3152.86 168.32 Q3150.31 168.893 3147.64 170.103 L3147.64 146.231 Z" fill="#000000" fill-rule="nonzero" fill-opacity="1" /><polyline clip-path="url(#clip0000)" style="stroke:#ff8c00; stroke-linecap:round; stroke-linejoin:round; stroke-width:16.5; stroke-opacity:1; fill:none" points="2454.73,241.271 2667.72,241.271 "/>
<path clip-path="url(#clip0000)" d="M2703.22 217.511 L2711.87 217.511 L2732.94 257.265 L2732.94 217.511 L2739.18 217.511 L2739.18 265.031 L2730.52 265.031 L2709.45 225.277 L2709.45 265.031 L2703.22 265.031 L2703.22 217.511 Z" fill="#000000" fill-rule="nonzero" fill-opacity="1" /><path clip-path="url(#clip0000)" d="M2782.21 245.743 L2782.21 248.608 L2755.29 248.608 Q2755.67 254.655 2758.92 257.838 Q2762.19 260.989 2768.02 260.989 Q2771.39 260.989 2774.54 260.161 Q2777.73 259.334 2780.85 257.679 L2780.85 263.217 Q2777.69 264.554 2774.38 265.254 Q2771.07 265.954 2767.67 265.954 Q2759.14 265.954 2754.14 260.989 Q2749.18 256.024 2749.18 247.557 Q2749.18 238.804 2753.89 233.68 Q2758.63 228.524 2766.65 228.524 Q2773.84 228.524 2778.01 233.171 Q2782.21 237.786 2782.21 245.743 M2776.36 244.024 Q2776.29 239.218 2773.65 236.354 Q2771.04 233.489 2766.71 233.489 Q2761.81 233.489 2758.85 236.258 Q2755.92 239.027 2755.48 244.056 L2776.36 244.024 Z" fill="#000000" fill-rule="nonzero" fill-opacity="1" /><path clip-path="url(#clip0000)" d="M2815.28 246.793 Q2815.28 240.428 2812.64 236.927 Q2810.03 233.425 2805.29 233.425 Q2800.58 233.425 2797.94 236.927 Q2795.33 240.428 2795.33 246.793 Q2795.33 253.127 2797.94 256.628 Q2800.58 260.13 2805.29 260.13 Q2810.03 260.13 2812.64 256.628 Q2815.28 253.127 2815.28 246.793 M2821.14 260.607 Q2821.14 269.71 2817.1 274.134 Q2813.06 278.59 2804.72 278.59 Q2801.63 278.59 2798.89 278.113 Q2796.15 277.667 2793.58 276.712 L2793.58 271.015 Q2796.15 272.415 2798.67 273.084 Q2801.18 273.752 2803.79 273.752 Q2809.55 273.752 2812.42 270.728 Q2815.28 267.737 2815.28 261.657 L2815.28 258.761 Q2813.47 261.912 2810.64 263.472 Q2807.8 265.031 2803.86 265.031 Q2797.3 265.031 2793.29 260.034 Q2789.28 255.037 2789.28 246.793 Q2789.28 238.518 2793.29 233.521 Q2797.3 228.524 2803.86 228.524 Q2807.8 228.524 2810.64 230.083 Q2813.47 231.643 2815.28 234.794 L2815.28 229.383 L2821.14 229.383 L2821.14 260.607 Z" fill="#000000" fill-rule="nonzero" fill-opacity="1" /><path clip-path="url(#clip0000)" d="M2839.89 242.337 L2839.89 259.748 L2850.2 259.748 Q2855.39 259.748 2857.87 257.615 Q2860.38 255.451 2860.38 251.027 Q2860.38 246.571 2857.87 244.47 Q2855.39 242.337 2850.2 242.337 L2839.89 242.337 M2839.89 222.795 L2839.89 237.118 L2849.4 237.118 Q2854.11 237.118 2856.41 235.367 Q2858.73 233.585 2858.73 229.956 Q2858.73 226.359 2856.41 224.577 Q2854.11 222.795 2849.4 222.795 L2839.89 222.795 M2833.46 217.511 L2849.88 217.511 Q2857.23 217.511 2861.21 220.567 Q2865.19 223.622 2865.19 229.256 Q2865.19 233.616 2863.15 236.194 Q2861.12 238.773 2857.17 239.409 Q2861.91 240.428 2864.52 243.674 Q2867.16 246.889 2867.16 251.727 Q2867.16 258.093 2862.84 261.562 Q2858.51 265.031 2850.52 265.031 L2833.46 265.031 L2833.46 217.511 Z" fill="#000000" fill-rule="nonzero" fill-opacity="1" /><path clip-path="url(#clip0000)" d="M2877.92 229.383 L2883.78 229.383 L2883.78 265.031 L2877.92 265.031 L2877.92 229.383 M2877.92 215.506 L2883.78 215.506 L2883.78 222.922 L2877.92 222.922 L2877.92 215.506 Z" fill="#000000" fill-rule="nonzero" fill-opacity="1" /><path clip-path="url(#clip0000)" d="M2925.67 243.515 L2925.67 265.031 L2919.81 265.031 L2919.81 243.706 Q2919.81 238.645 2917.84 236.131 Q2915.86 233.616 2911.92 233.616 Q2907.17 233.616 2904.44 236.64 Q2901.7 239.664 2901.7 244.884 L2901.7 265.031 L2895.81 265.031 L2895.81 229.383 L2901.7 229.383 L2901.7 234.921 Q2903.8 231.707 2906.63 230.115 Q2909.5 228.524 2913.22 228.524 Q2919.36 228.524 2922.51 232.343 Q2925.67 236.131 2925.67 243.515 Z" fill="#000000" fill-rule="nonzero" fill-opacity="1" /><path clip-path="url(#clip0000)" d="M2978.31 234.126 Q2976.24 234.126 2976.24 238.741 L2976.24 260.575 Q2979.26 260.575 2982.29 257.265 Q2984.99 254.305 2984.99 247.207 Q2984.99 240.587 2982.26 237.022 Q2980.03 234.126 2978.31 234.126 M2978.31 229.129 Q2982.77 229.129 2986.81 233.33 Q2991.17 237.818 2991.17 247.207 Q2991.17 255.833 2986.81 260.957 Q2982.7 265.795 2976.24 265.795 L2976.24 278.59 L2970.42 278.59 L2970.42 265.827 Q2964.08 265.827 2959.82 260.957 Q2955.49 255.992 2955.49 247.239 Q2955.49 238.136 2959.82 233.489 Q2963.06 230.02 2968.35 229.129 L2968.35 234.317 Q2966.25 235.049 2964.4 237.531 Q2961.66 241.192 2961.66 247.239 Q2961.66 253.668 2964.4 257.329 Q2966.85 260.607 2970.42 260.607 L2970.42 238.741 Q2970.42 229.129 2978.31 229.129 Z" fill="#000000" fill-rule="nonzero" fill-opacity="1" /><path clip-path="url(#clip0000)" d="M3022.55 235.431 L3063.36 235.431 L3063.36 240.778 L3022.55 240.778 L3022.55 235.431 M3022.55 248.417 L3063.36 248.417 L3063.36 253.828 L3022.55 253.828 L3022.55 248.417 Z" fill="#000000" fill-rule="nonzero" fill-opacity="1" /><path clip-path="url(#clip0000)" d="M3098.02 217.511 L3123.26 217.511 L3123.26 222.922 L3103.9 222.922 L3103.9 234.571 Q3105.31 234.094 3106.71 233.871 Q3108.11 233.616 3109.51 233.616 Q3117.46 233.616 3122.11 237.977 Q3126.76 242.337 3126.76 249.785 Q3126.76 257.456 3121.98 261.721 Q3117.21 265.954 3108.52 265.954 Q3105.53 265.954 3102.41 265.445 Q3099.32 264.936 3096.01 263.917 L3096.01 257.456 Q3098.88 259.016 3101.93 259.779 Q3104.99 260.543 3108.39 260.543 Q3113.9 260.543 3117.11 257.647 Q3120.33 254.751 3120.33 249.785 Q3120.33 244.82 3117.11 241.924 Q3113.9 239.027 3108.39 239.027 Q3105.81 239.027 3103.24 239.6 Q3100.69 240.173 3098.02 241.383 L3098.02 217.511 Z" fill="#000000" fill-rule="nonzero" fill-opacity="1" /><path clip-path="url(#clip0000)" d="M3140.09 256.947 L3146.81 256.947 L3146.81 262.421 L3141.59 272.606 L3137.48 272.606 L3140.09 262.421 L3140.09 256.947 Z" fill="#000000" fill-rule="nonzero" fill-opacity="1" /><path clip-path="url(#clip0000)" d="M3202.76 230.434 L3202.76 235.972 Q3200.28 234.699 3197.61 234.062 Q3194.93 233.425 3192.07 233.425 Q3187.71 233.425 3185.51 234.762 Q3183.35 236.099 3183.35 238.773 Q3183.35 240.81 3184.91 241.987 Q3186.47 243.133 3191.18 244.183 L3193.18 244.629 Q3199.42 245.966 3202.03 248.417 Q3204.67 250.836 3204.67 255.196 Q3204.67 260.161 3200.73 263.058 Q3196.81 265.954 3189.94 265.954 Q3187.07 265.954 3183.95 265.381 Q3180.87 264.84 3177.43 263.726 L3177.43 257.679 Q3180.68 259.366 3183.83 260.225 Q3186.98 261.053 3190.06 261.053 Q3194.2 261.053 3196.43 259.652 Q3198.66 258.22 3198.66 255.642 Q3198.66 253.255 3197.04 251.981 Q3195.44 250.708 3190 249.531 L3187.96 249.053 Q3182.52 247.907 3180.1 245.552 Q3177.68 243.165 3177.68 239.027 Q3177.68 233.998 3181.25 231.261 Q3184.81 228.524 3191.37 228.524 Q3194.62 228.524 3197.48 229.001 Q3200.35 229.479 3202.76 230.434 Z" fill="#000000" fill-rule="nonzero" fill-opacity="1" /><path clip-path="url(#clip0000)" d="M3237.46 234.794 L3237.46 215.506 L3243.31 215.506 L3243.31 265.031 L3237.46 265.031 L3237.46 259.684 Q3235.61 262.867 3232.78 264.426 Q3229.98 265.954 3226.03 265.954 Q3219.57 265.954 3215.5 260.798 Q3211.45 255.642 3211.45 247.239 Q3211.45 238.836 3215.5 233.68 Q3219.57 228.524 3226.03 228.524 Q3229.98 228.524 3232.78 230.083 Q3235.61 231.611 3237.46 234.794 M3217.5 247.239 Q3217.5 253.7 3220.14 257.392 Q3222.82 261.053 3227.46 261.053 Q3232.11 261.053 3234.78 257.392 Q3237.46 253.7 3237.46 247.239 Q3237.46 240.778 3234.78 237.118 Q3232.11 233.425 3227.46 233.425 Q3222.82 233.425 3220.14 237.118 Q3217.5 240.778 3217.5 247.239 Z" fill="#000000" fill-rule="nonzero" fill-opacity="1" /><path clip-path="url(#clip0000)" d="M3278.04 259.62 L3288.54 259.62 L3288.54 223.368 L3277.12 225.659 L3277.12 219.803 L3288.48 217.511 L3294.91 217.511 L3294.91 259.62 L3305.41 259.62 L3305.41 265.031 L3278.04 265.031 L3278.04 259.62 Z" fill="#000000" fill-rule="nonzero" fill-opacity="1" /><path clip-path="url(#clip0000)" d="M3332.15 221.744 Q3327.18 221.744 3324.67 226.646 Q3322.19 231.516 3322.19 241.319 Q3322.19 251.09 3324.67 255.992 Q3327.18 260.862 3332.15 260.862 Q3337.14 260.862 3339.63 255.992 Q3342.14 251.09 3342.14 241.319 Q3342.14 231.516 3339.63 226.646 Q3337.14 221.744 3332.15 221.744 M3332.15 216.652 Q3340.14 216.652 3344.34 222.986 Q3348.57 229.288 3348.57 241.319 Q3348.57 253.318 3344.34 259.652 Q3340.14 265.954 3332.15 265.954 Q3324.16 265.954 3319.93 259.652 Q3315.72 253.318 3315.72 241.319 Q3315.72 229.288 3319.93 222.986 Q3324.16 216.652 3332.15 216.652 Z" fill="#000000" fill-rule="nonzero" fill-opacity="1" /><path clip-path="url(#clip0000)" d="M3359.87 256.947 L3366.59 256.947 L3366.59 265.031 L3359.87 265.031 L3359.87 256.947 Z" fill="#000000" fill-rule="nonzero" fill-opacity="1" /><path clip-path="url(#clip0000)" d="M3394.34 221.744 Q3389.38 221.744 3386.86 226.646 Q3384.38 231.516 3384.38 241.319 Q3384.38 251.09 3386.86 255.992 Q3389.38 260.862 3394.34 260.862 Q3399.34 260.862 3401.82 255.992 Q3404.33 251.09 3404.33 241.319 Q3404.33 231.516 3401.82 226.646 Q3399.34 221.744 3394.34 221.744 M3394.34 216.652 Q3402.33 216.652 3406.53 222.986 Q3410.76 229.288 3410.76 241.319 Q3410.76 253.318 3406.53 259.652 Q3402.33 265.954 3394.34 265.954 Q3386.35 265.954 3382.12 259.652 Q3377.92 253.318 3377.92 241.319 Q3377.92 229.288 3382.12 222.986 Q3386.35 216.652 3394.34 216.652 Z" fill="#000000" fill-rule="nonzero" fill-opacity="1" /><polyline clip-path="url(#clip0000)" style="stroke:#ff8c00; stroke-linecap:round; stroke-linejoin:round; stroke-width:16.5; stroke-opacity:1; fill:none" stroke-dasharray="66, 41" points="2454.73,312.551 2667.72,312.551 "/>
<path clip-path="url(#clip0000)" d="M2703.22 288.791 L2711.87 288.791 L2732.94 328.545 L2732.94 288.791 L2739.18 288.791 L2739.18 336.311 L2730.52 336.311 L2709.45 296.557 L2709.45 336.311 L2703.22 336.311 L2703.22 288.791 Z" fill="#000000" fill-rule="nonzero" fill-opacity="1" /><path clip-path="url(#clip0000)" d="M2782.21 317.023 L2782.21 319.888 L2755.29 319.888 Q2755.67 325.935 2758.92 329.118 Q2762.19 332.269 2768.02 332.269 Q2771.39 332.269 2774.54 331.441 Q2777.73 330.614 2780.85 328.959 L2780.85 334.497 Q2777.69 335.834 2774.38 336.534 Q2771.07 337.234 2767.67 337.234 Q2759.14 337.234 2754.14 332.269 Q2749.18 327.304 2749.18 318.837 Q2749.18 310.084 2753.89 304.96 Q2758.63 299.804 2766.65 299.804 Q2773.84 299.804 2778.01 304.451 Q2782.21 309.066 2782.21 317.023 M2776.36 315.304 Q2776.29 310.498 2773.65 307.634 Q2771.04 304.769 2766.71 304.769 Q2761.81 304.769 2758.85 307.538 Q2755.92 310.307 2755.48 315.336 L2776.36 315.304 Z" fill="#000000" fill-rule="nonzero" fill-opacity="1" /><path clip-path="url(#clip0000)" d="M2815.28 318.073 Q2815.28 311.708 2812.64 308.207 Q2810.03 304.705 2805.29 304.705 Q2800.58 304.705 2797.94 308.207 Q2795.33 311.708 2795.33 318.073 Q2795.33 324.407 2797.94 327.908 Q2800.58 331.41 2805.29 331.41 Q2810.03 331.41 2812.64 327.908 Q2815.28 324.407 2815.28 318.073 M2821.14 331.887 Q2821.14 340.99 2817.1 345.414 Q2813.06 349.87 2804.72 349.87 Q2801.63 349.87 2798.89 349.393 Q2796.15 348.947 2793.58 347.992 L2793.58 342.295 Q2796.15 343.695 2798.67 344.364 Q2801.18 345.032 2803.79 345.032 Q2809.55 345.032 2812.42 342.008 Q2815.28 339.017 2815.28 332.937 L2815.28 330.041 Q2813.47 333.192 2810.64 334.752 Q2807.8 336.311 2803.86 336.311 Q2797.3 336.311 2793.29 331.314 Q2789.28 326.317 2789.28 318.073 Q2789.28 309.798 2793.29 304.801 Q2797.3 299.804 2803.86 299.804 Q2807.8 299.804 2810.64 301.363 Q2813.47 302.923 2815.28 306.074 L2815.28 300.663 L2821.14 300.663 L2821.14 331.887 Z" fill="#000000" fill-rule="nonzero" fill-opacity="1" /><path clip-path="url(#clip0000)" d="M2839.89 313.617 L2839.89 331.028 L2850.2 331.028 Q2855.39 331.028 2857.87 328.895 Q2860.38 326.731 2860.38 322.307 Q2860.38 317.851 2857.87 315.75 Q2855.39 313.617 2850.2 313.617 L2839.89 313.617 M2839.89 294.075 L2839.89 308.398 L2849.4 308.398 Q2854.11 308.398 2856.41 306.647 Q2858.73 304.865 2858.73 301.236 Q2858.73 297.639 2856.41 295.857 Q2854.11 294.075 2849.4 294.075 L2839.89 294.075 M2833.46 288.791 L2849.88 288.791 Q2857.23 288.791 2861.21 291.847 Q2865.19 294.902 2865.19 300.536 Q2865.19 304.896 2863.15 307.474 Q2861.12 310.053 2857.17 310.689 Q2861.91 311.708 2864.52 314.954 Q2867.16 318.169 2867.16 323.007 Q2867.16 329.373 2862.84 332.842 Q2858.51 336.311 2850.52 336.311 L2833.46 336.311 L2833.46 288.791 Z" fill="#000000" fill-rule="nonzero" fill-opacity="1" /><path clip-path="url(#clip0000)" d="M2877.92 300.663 L2883.78 300.663 L2883.78 336.311 L2877.92 336.311 L2877.92 300.663 M2877.92 286.786 L2883.78 286.786 L2883.78 294.202 L2877.92 294.202 L2877.92 286.786 Z" fill="#000000" fill-rule="nonzero" fill-opacity="1" /><path clip-path="url(#clip0000)" d="M2925.67 314.795 L2925.67 336.311 L2919.81 336.311 L2919.81 314.986 Q2919.81 309.925 2917.84 307.411 Q2915.86 304.896 2911.92 304.896 Q2907.17 304.896 2904.44 307.92 Q2901.7 310.944 2901.7 316.164 L2901.7 336.311 L2895.81 336.311 L2895.81 300.663 L2901.7 300.663 L2901.7 306.201 Q2903.8 302.987 2906.63 301.395 Q2909.5 299.804 2913.22 299.804 Q2919.36 299.804 2922.51 303.623 Q2925.67 307.411 2925.67 314.795 Z" fill="#000000" fill-rule="nonzero" fill-opacity="1" /><path clip-path="url(#clip0000)" d="M2978.31 305.406 Q2976.24 305.406 2976.24 310.021 L2976.24 331.855 Q2979.26 331.855 2982.29 328.545 Q2984.99 325.585 2984.99 318.487 Q2984.99 311.867 2982.26 308.302 Q2980.03 305.406 2978.31 305.406 M2978.31 300.409 Q2982.77 300.409 2986.81 304.61 Q2991.17 309.098 2991.17 318.487 Q2991.17 327.113 2986.81 332.237 Q2982.7 337.075 2976.24 337.075 L2976.24 349.87 L2970.42 349.87 L2970.42 337.107 Q2964.08 337.107 2959.82 332.237 Q2955.49 327.272 2955.49 318.519 Q2955.49 309.416 2959.82 304.769 Q2963.06 301.3 2968.35 300.409 L2968.35 305.597 Q2966.25 306.329 2964.4 308.811 Q2961.66 312.472 2961.66 318.519 Q2961.66 324.948 2964.4 328.609 Q2966.85 331.887 2970.42 331.887 L2970.42 310.021 Q2970.42 300.409 2978.31 300.409 Z" fill="#000000" fill-rule="nonzero" fill-opacity="1" /><path clip-path="url(#clip0000)" d="M3022.55 306.711 L3063.36 306.711 L3063.36 312.058 L3022.55 312.058 L3022.55 306.711 M3022.55 319.697 L3063.36 319.697 L3063.36 325.108 L3022.55 325.108 L3022.55 319.697 Z" fill="#000000" fill-rule="nonzero" fill-opacity="1" /><path clip-path="url(#clip0000)" d="M3099.07 330.9 L3109.57 330.9 L3109.57 294.648 L3098.14 296.939 L3098.14 291.083 L3109.51 288.791 L3115.94 288.791 L3115.94 330.9 L3126.44 330.9 L3126.44 336.311 L3099.07 336.311 L3099.07 330.9 Z" fill="#000000" fill-rule="nonzero" fill-opacity="1" /><path clip-path="url(#clip0000)" d="M3140.09 328.227 L3146.81 328.227 L3146.81 333.701 L3141.59 343.886 L3137.48 343.886 L3140.09 333.701 L3140.09 328.227 Z" fill="#000000" fill-rule="nonzero" fill-opacity="1" /><path clip-path="url(#clip0000)" d="M3202.76 301.714 L3202.76 307.252 Q3200.28 305.979 3197.61 305.342 Q3194.93 304.705 3192.07 304.705 Q3187.71 304.705 3185.51 306.042 Q3183.35 307.379 3183.35 310.053 Q3183.35 312.09 3184.91 313.267 Q3186.47 314.413 3191.18 315.463 L3193.18 315.909 Q3199.42 317.246 3202.03 319.697 Q3204.67 322.116 3204.67 326.476 Q3204.67 331.441 3200.73 334.338 Q3196.81 337.234 3189.94 337.234 Q3187.07 337.234 3183.95 336.661 Q3180.87 336.12 3177.43 335.006 L3177.43 328.959 Q3180.68 330.646 3183.83 331.505 Q3186.98 332.333 3190.06 332.333 Q3194.2 332.333 3196.43 330.932 Q3198.66 329.5 3198.66 326.922 Q3198.66 324.535 3197.04 323.261 Q3195.44 321.988 3190 320.811 L3187.96 320.333 Q3182.52 319.187 3180.1 316.832 Q3177.68 314.445 3177.68 310.307 Q3177.68 305.278 3181.25 302.541 Q3184.81 299.804 3191.37 299.804 Q3194.62 299.804 3197.48 300.281 Q3200.35 300.759 3202.76 301.714 Z" fill="#000000" fill-rule="nonzero" fill-opacity="1" /><path clip-path="url(#clip0000)" d="M3237.46 306.074 L3237.46 286.786 L3243.31 286.786 L3243.31 336.311 L3237.46 336.311 L3237.46 330.964 Q3235.61 334.147 3232.78 335.706 Q3229.98 337.234 3226.03 337.234 Q3219.57 337.234 3215.5 332.078 Q3211.45 326.922 3211.45 318.519 Q3211.45 310.116 3215.5 304.96 Q3219.57 299.804 3226.03 299.804 Q3229.98 299.804 3232.78 301.363 Q3235.61 302.891 3237.46 306.074 M3217.5 318.519 Q3217.5 324.98 3220.14 328.672 Q3222.82 332.333 3227.46 332.333 Q3232.11 332.333 3234.78 328.672 Q3237.46 324.98 3237.46 318.519 Q3237.46 312.058 3234.78 308.398 Q3232.11 304.705 3227.46 304.705 Q3222.82 304.705 3220.14 308.398 Q3217.5 312.058 3217.5 318.519 Z" fill="#000000" fill-rule="nonzero" fill-opacity="1" /><path clip-path="url(#clip0000)" d="M3282.46 330.9 L3304.9 330.9 L3304.9 336.311 L3274.73 336.311 L3274.73 330.9 Q3278.39 327.113 3284.69 320.747 Q3291.02 314.349 3292.65 312.503 Q3295.74 309.034 3296.94 306.647 Q3298.19 304.228 3298.19 301.905 Q3298.19 298.117 3295.51 295.73 Q3292.87 293.343 3288.61 293.343 Q3285.58 293.343 3282.21 294.393 Q3278.87 295.443 3275.05 297.576 L3275.05 291.083 Q3278.93 289.523 3282.3 288.727 Q3285.68 287.932 3288.48 287.932 Q3295.86 287.932 3300.26 291.624 Q3304.65 295.316 3304.65 301.491 Q3304.65 304.419 3303.53 307.061 Q3302.45 309.671 3299.55 313.235 Q3298.76 314.158 3294.49 318.583 Q3290.23 322.975 3282.46 330.9 Z" fill="#000000" fill-rule="nonzero" fill-opacity="1" /><path clip-path="url(#clip0000)" d="M3332.15 293.024 Q3327.18 293.024 3324.67 297.926 Q3322.19 302.796 3322.19 312.599 Q3322.19 322.37 3324.67 327.272 Q3327.18 332.142 3332.15 332.142 Q3337.14 332.142 3339.63 327.272 Q3342.14 322.37 3342.14 312.599 Q3342.14 302.796 3339.63 297.926 Q3337.14 293.024 3332.15 293.024 M3332.15 287.932 Q3340.14 287.932 3344.34 294.266 Q3348.57 300.568 3348.57 312.599 Q3348.57 324.598 3344.34 330.932 Q3340.14 337.234 3332.15 337.234 Q3324.16 337.234 3319.93 330.932 Q3315.72 324.598 3315.72 312.599 Q3315.72 300.568 3319.93 294.266 Q3324.16 287.932 3332.15 287.932 Z" fill="#000000" fill-rule="nonzero" fill-opacity="1" /><path clip-path="url(#clip0000)" d="M3359.87 328.227 L3366.59 328.227 L3366.59 336.311 L3359.87 336.311 L3359.87 328.227 Z" fill="#000000" fill-rule="nonzero" fill-opacity="1" /><path clip-path="url(#clip0000)" d="M3380.65 288.791 L3405.89 288.791 L3405.89 294.202 L3386.54 294.202 L3386.54 305.851 Q3387.94 305.374 3389.34 305.151 Q3390.74 304.896 3392.14 304.896 Q3400.1 304.896 3404.75 309.257 Q3409.4 313.617 3409.4 321.065 Q3409.4 328.736 3404.62 333.001 Q3399.85 337.234 3391.16 337.234 Q3388.17 337.234 3385.05 336.725 Q3381.96 336.216 3378.65 335.197 L3378.65 328.736 Q3381.51 330.296 3384.57 331.059 Q3387.62 331.823 3391.03 331.823 Q3396.54 331.823 3399.75 328.927 Q3402.97 326.031 3402.97 321.065 Q3402.97 316.1 3399.75 313.204 Q3396.54 310.307 3391.03 310.307 Q3388.45 310.307 3385.87 310.88 Q3383.33 311.453 3380.65 312.663 L3380.65 288.791 Z" fill="#000000" fill-rule="nonzero" fill-opacity="1" /><polyline clip-path="url(#clip0000)" style="stroke:#808080; stroke-linecap:round; stroke-linejoin:round; stroke-width:11; stroke-opacity:1; fill:none" stroke-dasharray="6, 11" points="2454.73,383.831 2667.72,383.831 "/>
<path clip-path="url(#clip0000)" d="M2703.22 360.071 L2712.8 360.071 L2724.92 392.409 L2737.11 360.071 L2746.69 360.071 L2746.69 407.591 L2740.42 407.591 L2740.42 365.864 L2728.17 398.456 L2721.71 398.456 L2709.45 365.864 L2709.45 407.591 L2703.22 407.591 L2703.22 360.071 Z" fill="#000000" fill-rule="nonzero" fill-opacity="1" /><path clip-path="url(#clip0000)" d="M2789.69 388.303 L2789.69 391.168 L2762.77 391.168 Q2763.15 397.215 2766.4 400.398 Q2769.67 403.549 2775.5 403.549 Q2778.87 403.549 2782.02 402.721 Q2785.21 401.894 2788.33 400.239 L2788.33 405.777 Q2785.17 407.114 2781.86 407.814 Q2778.55 408.514 2775.15 408.514 Q2766.62 408.514 2761.62 403.549 Q2756.66 398.584 2756.66 390.117 Q2756.66 381.364 2761.37 376.24 Q2766.11 371.084 2774.13 371.084 Q2781.32 371.084 2785.49 375.731 Q2789.69 380.346 2789.69 388.303 M2783.84 386.584 Q2783.77 381.778 2781.13 378.914 Q2778.52 376.049 2774.19 376.049 Q2769.29 376.049 2766.33 378.818 Q2763.4 381.587 2762.96 386.616 L2783.84 386.584 Z" fill="#000000" fill-rule="nonzero" fill-opacity="1" /><path clip-path="url(#clip0000)" d="M2815.51 389.672 Q2808.41 389.672 2805.67 391.295 Q2802.93 392.918 2802.93 396.833 Q2802.93 399.952 2804.97 401.798 Q2807.04 403.613 2810.57 403.613 Q2815.44 403.613 2818.37 400.175 Q2821.33 396.706 2821.33 390.977 L2821.33 389.672 L2815.51 389.672 M2827.19 387.253 L2827.19 407.591 L2821.33 407.591 L2821.33 402.18 Q2819.33 405.427 2816.33 406.986 Q2813.34 408.514 2809.01 408.514 Q2803.54 408.514 2800.29 405.459 Q2797.08 402.371 2797.08 397.215 Q2797.08 391.199 2801.09 388.144 Q2805.13 385.088 2813.12 385.088 L2821.33 385.088 L2821.33 384.515 Q2821.33 380.473 2818.66 378.277 Q2816.02 376.049 2811.21 376.049 Q2808.15 376.049 2805.26 376.781 Q2802.36 377.513 2799.69 378.977 L2799.69 373.566 Q2802.9 372.325 2805.93 371.72 Q2808.95 371.084 2811.81 371.084 Q2819.55 371.084 2823.37 375.094 Q2827.19 379.105 2827.19 387.253 Z" fill="#000000" fill-rule="nonzero" fill-opacity="1" /><path clip-path="url(#clip0000)" d="M2868.88 386.075 L2868.88 407.591 L2863.03 407.591 L2863.03 386.266 Q2863.03 381.205 2861.05 378.691 Q2859.08 376.176 2855.13 376.176 Q2850.39 376.176 2847.65 379.2 Q2844.92 382.224 2844.92 387.444 L2844.92 407.591 L2839.03 407.591 L2839.03 371.943 L2844.92 371.943 L2844.92 377.481 Q2847.02 374.267 2849.85 372.675 Q2852.71 371.084 2856.44 371.084 Q2862.58 371.084 2865.73 374.903 Q2868.88 378.691 2868.88 386.075 Z" fill="#000000" fill-rule="nonzero" fill-opacity="1" /></svg>
