<?xml version="1.0" encoding="utf-8"?>
<svg xmlns="http://www.w3.org/2000/svg" xmlns:xlink="http://www.w3.org/1999/xlink" width="900" height="460" viewBox="0 0 3600 1840">
<defs>
  <clipPath id="clip0000">
    <rect x="0" y="0" width="3600" height="1840"/>
  </clipPath>
</defs>
<path clip-path="url(#clip0000)" d="M0 1840 L3600 1840 L3600 0 L0 0  Z" fill="#ffffff" fill-rule="evenodd" fill-opacity="1"/>
<defs>
  <clipPath id="clip0001">
    <rect x="319" y="47" width="3234" height="1545"/>
  </clipPath>
</defs>
<path clip-path="url(#clip0000)" d="M354.723 1591.26 L3552.76 1591.26 L3552.76 47.2441 L354.723 47.2441  Z" fill="#ffffff" fill-rule="evenodd" fill-opacity="1"/>
<defs>
  <clipPath id="clip0002">
    <rect x="354" y="47" width="3199" height="1545"/>
  </clipPath>
</defs>
<polyline clip-path="url(#clip0002)" style="stroke:#000000; stroke-linecap:round; stroke-linejoin:round; stroke-width:2; stroke-opacity:0.1; fill:none" points="948.068,1591.26 948.068,47.2441 "/>
<polyline clip-path="url(#clip0002)" style="stroke:#000000; stroke-linecap:round; stroke-linejoin:round; stroke-width:2; stroke-opacity:0.1; fill:none" points="1576.61,1591.26 1576.61,47.2441 "/>
<polyline clip-path="url(#clip0002)" style="stroke:#000000; stroke-linecap:round; stroke-linejoin:round; stroke-width:2; stroke-opacity:0.1; fill:none" points="2205.16,1591.26 2205.16,47.2441 "/>
<polyline clip-path="url(#clip0002)" style="stroke:#000000; stroke-linecap:round; stroke-linejoin:round; stroke-width:2; stroke-opacity:0.1; fill:none" points="2833.7,1591.26 2833.7,47.2441 "/>
<polyline clip-path="url(#clip0002)" style="stroke:#000000; stroke-linecap:round; stroke-linejoin:round; stroke-width:2; stroke-opacity:0.1; fill:none" points="3462.25,1591.26 3462.25,47.2441 "/>
<polyline clip-path="url(#clip0002)" style="stroke:#000000; stroke-linecap:round; stroke-linejoin:round; stroke-width:2; stroke-opacity:0.1; fill:none" points="948.068,1591.26 948.068,47.2441 "/>
<polyline clip-path="url(#clip0002)" style="stroke:#000000; stroke-linecap:round; stroke-linejoin:round; stroke-width:2; stroke-opacity:0.1; fill:none" points="1576.61,1591.26 1576.61,47.2441 "/>
<polyline clip-path="url(#clip0002)" style="stroke:#000000; stroke-linecap:round; stroke-linejoin:round; stroke-width:2; stroke-opacity:0.1; fill:none" points="2205.16,1591.26 2205.16,47.2441 "/>
<polyline clip-path="url(#clip0002)" style="stroke:#000000; stroke-linecap:round; stroke-linejoin:round; stroke-width:2; stroke-opacity:0.1; fill:none" points="2833.7,1591.26 2833.7,47.2441 "/>
<polyline clip-path="url(#clip0002)" style="stroke:#000000; stroke-linecap:round; stroke-linejoin:round; stroke-width:2; stroke-opacity:0.1; fill:none" points="3462.25,1591.26 3462.25,47.2441 "/>
<polyline clip-path="url(#clip0002)" style="stroke:#000000; stroke-linecap:round; stroke-linejoin:round; stroke-width:2; stroke-opacity:0.1; fill:none" points="354.723,1497.67 3552.76,1497.67 "/>
<polyline clip-path="url(#clip0002)" style="stroke:#000000; stroke-linecap:round; stroke-linejoin:round; stroke-width:2; stroke-opacity:0.1; fill:none" points="354.723,1239.16 3552.76,1239.16 "/>
<polyline clip-path="url(#clip0002)" style="stroke:#000000; stroke-linecap:round; stroke-linejoin:round; stroke-width:2; stroke-opacity:0.1; fill:none" points="354.723,980.659 3552.76,980.659 "/>
<polyline clip-path="url(#clip0002)" style="stroke:#000000; stroke-linecap:round; stroke-linejoin:round; stroke-width:2; stroke-opacity:0.1; fill:none" points="354.723,722.153 3552.76,722.153 "/>
<polyline clip-path="url(#clip0002)" style="stroke:#000000; stroke-linecap:round; stroke-linejoin:round; stroke-width:2; stroke-opacity:0.1; fill:none" points="354.723,463.647 3552.76,463.647 "/>
<polyline clip-path="url(#clip0002)" style="stroke:#000000; stroke-linecap:round; stroke-linejoin:round; stroke-width:2; stroke-opacity:0.1; fill:none" points="354.723,205.141 3552.76,205.141 "/>
<polyline clip-path="url(#clip0002)" style="stroke:#000000; stroke-linecap:round; stroke-linejoin:round; stroke-width:2; stroke-opacity:0.1; fill:none" points="354.723,1497.67 3552.76,1497.67 "/>
<polyline clip-path="url(#clip0002)" style="stroke:#000000; stroke-linecap:round; stroke-linejoin:round; stroke-width:2; stroke-opacity:0.1; fill:none" points="354.723,1239.16 3552.76,1239.16 "/>
<polyline clip-path="url(#clip0002)" style="stroke:#000000; stroke-linecap:round; stroke-linejoin:round; stroke-width:2; stroke-opacity:0.1; fill:none" points="354.723,980.659 3552.76,980.659 "/>
<polyline clip-path="url(#clip0002)" style="stroke:#000000; stroke-linecap:round; stroke-linejoin:round; stroke-width:2; stroke-opacity:0.1; fill:none" points="354.723,722.153 3552.76,722.153 "/>
<polyline clip-path="url(#clip0002)" style="stroke:#000000; stroke-linecap:round; stroke-linejoin:round; stroke-width:2; stroke-opacity:0.1; fill:none" points="354.723,463.647 3552.76,463.647 "/>
<polyline clip-path="url(#clip0002)" style="stroke:#000000; stroke-linecap:round; stroke-linejoin:round; stroke-width:2; stroke-opacity:0.1; fill:none" points="354.723,205.141 3552.76,205.141 "/>
<polyline clip-path="url(#clip0000)" style="stroke:#000000; stroke-linecap:round; stroke-linejoin:round; stroke-width:4; stroke-opacity:1; fill:none" points="354.723,1591.26 3552.76,1591.26 "/>
<polyline clip-path="url(#clip0000)" style="stroke:#000000; stroke-linecap:round; stroke-linejoin:round; stroke-width:4; stroke-opacity:1; fill:none" points="354.723,47.2441 3552.76,47.2441 "/>
<polyline clip-path="url(#clip0000)" style="stroke:#000000; stroke-linecap:round; stroke-linejoin:round; stroke-width:4; stroke-opacity:1; fill:none" points="948.068,1591.26 948.068,1572.36 "/>
<polyline clip-path="url(#clip0000)" style="stroke:#000000; stroke-linecap:round; stroke-linejoin:round; stroke-width:4; stroke-opacity:1; fill:none" points="1576.61,1591.26 1576.61,1572.36 "/>
<polyline clip-path="url(#clip0000)" style="stroke:#000000; stroke-linecap:round; stroke-linejoin:round; stroke-width:4; stroke-opacity:1; fill:none" points="2205.16,1591.26 2205.16,1572.36 "/>
<polyline clip-path="url(#clip0000)" style="stroke:#000000; stroke-linecap:round; stroke-linejoin:round; stroke-width:4; stroke-opacity:1; fill:none" points="2833.7,1591.26 2833.7,1572.36 "/>
<polyline clip-path="url(#clip0000)" style="stroke:#000000; stroke-linecap:round; stroke-linejoin:round; stroke-width:4; stroke-opacity:1; fill:none" points="3462.25,1591.26 3462.25,1572.36 "/>
<polyline clip-path="url(#clip0000)" style="stroke:#000000; stroke-linecap:round; stroke-linejoin:round; stroke-width:4; stroke-opacity:1; fill:none" points="948.068,47.2441 948.068,66.1417 "/>
<polyline clip-path="url(#clip0000)" style="stroke:#000000; stroke-linecap:round; stroke-linejoin:round; stroke-width:4; stroke-opacity:1; fill:none" points="1576.61,47.2441 1576.61,66.1417 "/>
<polyline clip-path="url(#clip0000)" style="stroke:#000000; stroke-linecap:round; stroke-linejoin:round; stroke-width:4; stroke-opacity:1; fill:none" points="2205.16,47.2441 2205.16,66.1417 "/>
<polyline clip-path="url(#clip0000)" style="stroke:#000000; stroke-linecap:round; stroke-linejoin:round; stroke-width:4; stroke-opacity:1; fill:none" points="2833.7,47.2441 2833.7,66.1417 "/>
<polyline clip-path="url(#clip0000)" style="stroke:#000000; stroke-linecap:round; stroke-linejoin:round; stroke-width:4; stroke-opacity:1; fill:none" points="3462.25,47.2441 3462.25,66.1417 "/>
<path clip-path="url(#clip0000)" d="M935.916 1630.86 L958.861 1630.86 L958.861 1635.77 L941.269 1635.77 L941.269 1646.36 Q942.542 1645.93 943.815 1645.73 Q945.088 1645.5 946.361 1645.5 Q953.595 1645.5 957.819 1649.46 Q962.044 1653.43 962.044 1660.2 Q962.044 1667.17 957.704 1671.05 Q953.363 1674.89 945.464 1674.89 Q942.744 1674.89 939.909 1674.43 Q937.102 1673.97 934.093 1673.04 L934.093 1667.17 Q936.697 1668.59 939.475 1669.28 Q942.252 1669.98 945.348 1669.98 Q950.354 1669.98 953.277 1667.34 Q956.199 1664.71 956.199 1660.2 Q956.199 1655.68 953.277 1653.05 Q950.354 1650.42 945.348 1650.42 Q943.005 1650.42 940.661 1650.94 Q938.346 1651.46 935.916 1652.56 L935.916 1630.86 Z" fill="#000000" fill-rule="nonzero" fill-opacity="1" /><path clip-path="url(#clip0000)" d="M1544.97 1669.14 L1554.52 1669.14 L1554.52 1636.18 L1544.13 1638.26 L1544.13 1632.94 L1554.46 1630.86 L1560.31 1630.86 L1560.31 1669.14 L1569.86 1669.14 L1569.86 1674.06 L1544.97 1674.06 L1544.97 1669.14 Z" fill="#000000" fill-rule="nonzero" fill-opacity="1" /><path clip-path="url(#clip0000)" d="M1594.16 1634.7 Q1589.65 1634.7 1587.36 1639.16 Q1585.11 1643.59 1585.11 1652.5 Q1585.11 1661.38 1587.36 1665.84 Q1589.65 1670.27 1594.16 1670.27 Q1598.7 1670.27 1600.96 1665.84 Q1603.25 1661.38 1603.25 1652.5 Q1603.25 1643.59 1600.96 1639.16 Q1598.7 1634.7 1594.16 1634.7 M1594.16 1630.07 Q1601.42 1630.07 1605.24 1635.83 Q1609.09 1641.56 1609.09 1652.5 Q1609.09 1663.41 1605.24 1669.17 Q1601.42 1674.89 1594.16 1674.89 Q1586.9 1674.89 1583.05 1669.17 Q1579.23 1663.41 1579.23 1652.5 Q1579.23 1641.56 1583.05 1635.83 Q1586.9 1630.07 1594.16 1630.07 Z" fill="#000000" fill-rule="nonzero" fill-opacity="1" /><path clip-path="url(#clip0000)" d="M2174.14 1669.14 L2183.69 1669.14 L2183.69 1636.18 L2173.3 1638.26 L2173.3 1632.94 L2183.63 1630.86 L2189.47 1630.86 L2189.47 1669.14 L2199.02 1669.14 L2199.02 1674.06 L2174.14 1674.06 L2174.14 1669.14 Z" fill="#000000" fill-rule="nonzero" fill-opacity="1" /><path clip-path="url(#clip0000)" d="M2210.89 1630.86 L2233.83 1630.86 L2233.83 1635.77 L2216.24 1635.77 L2216.24 1646.36 Q2217.51 1645.93 2218.79 1645.73 Q2220.06 1645.5 2221.33 1645.5 Q2228.57 1645.5 2232.79 1649.46 Q2237.01 1653.43 2237.01 1660.2 Q2237.01 1667.17 2232.67 1671.05 Q2228.33 1674.89 2220.43 1674.89 Q2217.71 1674.89 2214.88 1674.43 Q2212.07 1673.97 2209.06 1673.04 L2209.06 1667.17 Q2211.67 1668.59 2214.45 1669.28 Q2217.22 1669.98 2220.32 1669.98 Q2225.32 1669.98 2228.25 1667.34 Q2231.17 1664.71 2231.17 1660.2 Q2231.17 1655.68 2228.25 1653.05 Q2225.32 1650.42 2220.32 1650.42 Q2217.98 1650.42 2215.63 1650.94 Q2213.32 1651.46 2210.89 1652.56 L2210.89 1630.86 Z" fill="#000000" fill-rule="nonzero" fill-opacity="1" /><path clip-path="url(#clip0000)" d="M2807.17 1669.14 L2827.57 1669.14 L2827.57 1674.06 L2800.14 1674.06 L2800.14 1669.14 Q2803.46 1665.69 2809.19 1659.91 Q2814.95 1654.09 2816.43 1652.41 Q2819.23 1649.26 2820.33 1647.09 Q2821.46 1644.89 2821.46 1642.78 Q2821.46 1639.33 2819.03 1637.16 Q2816.63 1634.99 2812.75 1634.99 Q2810 1634.99 2806.94 1635.95 Q2803.9 1636.9 2800.43 1638.84 L2800.43 1632.94 Q2803.96 1631.52 2807.02 1630.8 Q2810.09 1630.07 2812.64 1630.07 Q2819.35 1630.07 2823.34 1633.43 Q2827.34 1636.79 2827.34 1642.4 Q2827.34 1645.06 2826.32 1647.46 Q2825.34 1649.84 2822.71 1653.08 Q2821.98 1653.92 2818.11 1657.94 Q2814.23 1661.93 2807.17 1669.14 Z" fill="#000000" fill-rule="nonzero" fill-opacity="1" /><path clip-path="url(#clip0000)" d="M2852.34 1634.7 Q2847.82 1634.7 2845.54 1639.16 Q2843.28 1643.59 2843.28 1652.5 Q2843.28 1661.38 2845.54 1665.84 Q2847.82 1670.27 2852.34 1670.27 Q2856.88 1670.27 2859.14 1665.84 Q2861.42 1661.38 2861.42 1652.5 Q2861.42 1643.59 2859.14 1639.16 Q2856.88 1634.7 2852.34 1634.7 M2852.34 1630.07 Q2859.6 1630.07 2863.42 1635.83 Q2867.27 1641.56 2867.27 1652.5 Q2867.27 1663.41 2863.42 1669.17 Q2859.6 1674.89 2852.34 1674.89 Q2845.07 1674.89 2841.22 1669.17 Q2837.4 1663.41 2837.4 1652.5 Q2837.4 1641.56 2841.22 1635.83 Q2845.07 1630.07 2852.34 1630.07 Z" fill="#000000" fill-rule="nonzero" fill-opacity="1" /><path clip-path="url(#clip0000)" d="M3436.33 1669.14 L3456.73 1669.14 L3456.73 1674.06 L3429.3 1674.06 L3429.3 1669.14 Q3432.63 1665.69 3438.36 1659.91 Q3444.12 1654.09 3445.59 1652.41 Q3448.4 1649.26 3449.5 1647.09 Q3450.63 1644.89 3450.63 1642.78 Q3450.63 1639.33 3448.2 1637.16 Q3445.8 1634.99 3441.92 1634.99 Q3439.17 1634.99 3436.1 1635.95 Q3433.06 1636.9 3429.59 1638.84 L3429.59 1632.94 Q3433.12 1631.52 3436.19 1630.8 Q3439.26 1630.07 3441.8 1630.07 Q3448.52 1630.07 3452.51 1633.43 Q3456.5 1636.79 3456.5 1642.4 Q3456.5 1645.06 3455.49 1647.46 Q3454.51 1649.84 3451.87 1653.08 Q3451.15 1653.92 3447.27 1657.94 Q3443.39 1661.93 3436.33 1669.14 Z" fill="#000000" fill-rule="nonzero" fill-opacity="1" /><path clip-path="url(#clip0000)" d="M3469.06 1630.86 L3492.01 1630.86 L3492.01 1635.77 L3474.41 1635.77 L3474.41 1646.36 Q3475.69 1645.93 3476.96 1645.73 Q3478.23 1645.5 3479.51 1645.5 Q3486.74 1645.5 3490.96 1649.46 Q3495.19 1653.43 3495.19 1660.2 Q3495.19 1667.17 3490.85 1671.05 Q3486.51 1674.89 3478.61 1674.89 Q3475.89 1674.89 3473.05 1674.43 Q3470.25 1673.97 3467.24 1673.04 L3467.24 1667.17 Q3469.84 1668.59 3472.62 1669.28 Q3475.4 1669.98 3478.49 1669.98 Q3483.5 1669.98 3486.42 1667.34 Q3489.34 1664.71 3489.34 1660.2 Q3489.34 1655.68 3486.42 1653.05 Q3483.5 1650.42 3478.49 1650.42 Q3476.15 1650.42 3473.81 1650.94 Q3471.49 1651.46 3469.06 1652.56 L3469.06 1630.86 Z" fill="#000000" fill-rule="nonzero" fill-opacity="1" /><path clip-path="url(#clip0000)" d="M1687.51 1726.19 L1687.51 1745.67 L1696.33 1745.67 Q1701.22 1745.67 1703.9 1743.13 Q1706.57 1740.6 1706.57 1735.91 Q1706.57 1731.26 1703.9 1728.72 Q1701.22 1726.19 1696.33 1726.19 L1687.51 1726.19 M1680.49 1720.42 L1696.33 1720.42 Q1705.04 1720.42 1709.49 1724.38 Q1713.97 1728.31 1713.97 1735.91 Q1713.97 1743.58 1709.49 1747.51 Q1705.04 1751.43 1696.33 1751.43 L1687.51 1751.43 L1687.51 1772.26 L1680.49 1772.26 L1680.49 1720.42 Z" fill="#000000" fill-rule="nonzero" fill-opacity="1" /><path clip-path="url(#clip0000)" d="M1744.38 1739.35 Q1743.31 1738.72 1742.02 1738.44 Q1740.77 1738.13 1739.24 1738.13 Q1733.83 1738.13 1730.91 1741.67 Q1728.03 1745.18 1728.03 1751.78 L1728.03 1772.26 L1721.61 1772.26 L1721.61 1733.38 L1728.03 1733.38 L1728.03 1739.42 Q1730.04 1735.87 1733.27 1734.17 Q1736.5 1732.44 1741.12 1732.44 Q1741.78 1732.44 1742.58 1732.54 Q1743.38 1732.61 1744.35 1732.78 L1744.38 1739.35 Z" fill="#000000" fill-rule="nonzero" fill-opacity="1" /><path clip-path="url(#clip0000)" d="M1782.79 1751.22 L1782.79 1754.35 L1753.41 1754.35 Q1753.83 1760.94 1757.37 1764.42 Q1760.95 1767.85 1767.3 1767.85 Q1770.98 1767.85 1774.42 1766.95 Q1777.89 1766.05 1781.29 1764.24 L1781.29 1770.28 Q1777.85 1771.74 1774.24 1772.51 Q1770.63 1773.27 1766.92 1773.27 Q1757.61 1773.27 1752.16 1767.85 Q1746.74 1762.44 1746.74 1753.2 Q1746.74 1743.65 1751.88 1738.06 Q1757.06 1732.44 1765.81 1732.44 Q1773.65 1732.44 1778.2 1737.51 Q1782.79 1742.54 1782.79 1751.22 M1776.4 1749.35 Q1776.33 1744.1 1773.45 1740.98 Q1770.6 1737.85 1765.88 1737.85 Q1760.53 1737.85 1757.3 1740.87 Q1754.1 1743.9 1753.62 1749.38 L1776.4 1749.35 Z" fill="#000000" fill-rule="nonzero" fill-opacity="1" /><path clip-path="url(#clip0000)" d="M1818.86 1739.28 L1818.86 1718.24 L1825.25 1718.24 L1825.25 1772.26 L1818.86 1772.26 L1818.86 1766.43 Q1816.85 1769.9 1813.76 1771.6 Q1810.7 1773.27 1806.4 1773.27 Q1799.35 1773.27 1794.9 1767.65 Q1790.49 1762.02 1790.49 1752.85 Q1790.49 1743.69 1794.9 1738.06 Q1799.35 1732.44 1806.4 1732.44 Q1810.7 1732.44 1813.76 1734.14 Q1816.85 1735.81 1818.86 1739.28 M1797.09 1752.85 Q1797.09 1759.9 1799.97 1763.93 Q1802.89 1767.92 1807.96 1767.92 Q1813.03 1767.92 1815.94 1763.93 Q1818.86 1759.9 1818.86 1752.85 Q1818.86 1745.81 1815.94 1741.81 Q1813.03 1737.78 1807.96 1737.78 Q1802.89 1737.78 1799.97 1741.81 Q1797.09 1745.81 1797.09 1752.85 Z" fill="#000000" fill-rule="nonzero" fill-opacity="1" /><path clip-path="url(#clip0000)" d="M1838.41 1733.38 L1844.8 1733.38 L1844.8 1772.26 L1838.41 1772.26 L1838.41 1733.38 M1838.41 1718.24 L1844.8 1718.24 L1844.8 1726.33 L1838.41 1726.33 L1838.41 1718.24 Z" fill="#000000" fill-rule="nonzero" fill-opacity="1" /><path clip-path="url(#clip0000)" d="M1886.15 1734.87 L1886.15 1740.84 Q1883.44 1739.35 1880.7 1738.62 Q1877.99 1737.85 1875.22 1737.85 Q1869 1737.85 1865.56 1741.81 Q1862.13 1745.74 1862.13 1752.85 Q1862.13 1759.97 1865.56 1763.93 Q1869 1767.85 1875.22 1767.85 Q1877.99 1767.85 1880.7 1767.12 Q1883.44 1766.36 1886.15 1764.87 L1886.15 1770.77 Q1883.48 1772.02 1880.6 1772.65 Q1877.75 1773.27 1874.52 1773.27 Q1865.74 1773.27 1860.56 1767.75 Q1855.39 1762.23 1855.39 1752.85 Q1855.39 1743.34 1860.6 1737.89 Q1865.84 1732.44 1874.94 1732.44 Q1877.89 1732.44 1880.7 1733.06 Q1883.51 1733.65 1886.15 1734.87 Z" fill="#000000" fill-rule="nonzero" fill-opacity="1" /><path clip-path="url(#clip0000)" d="M1903.58 1722.33 L1903.58 1733.38 L1916.74 1733.38 L1916.74 1738.34 L1903.58 1738.34 L1903.58 1759.45 Q1903.58 1764.21 1904.87 1765.56 Q1906.19 1766.92 1910.18 1766.92 L1916.74 1766.92 L1916.74 1772.26 L1910.18 1772.26 Q1902.78 1772.26 1899.97 1769.52 Q1897.16 1766.74 1897.16 1759.45 L1897.16 1738.34 L1892.47 1738.34 L1892.47 1733.38 L1897.16 1733.38 L1897.16 1722.33 L1903.58 1722.33 Z" fill="#000000" fill-rule="nonzero" fill-opacity="1" /><path clip-path="url(#clip0000)" d="M1958.41 1751.22 L1958.41 1754.35 L1929.03 1754.35 Q1929.45 1760.94 1932.99 1764.42 Q1936.57 1767.85 1942.92 1767.85 Q1946.6 1767.85 1950.04 1766.95 Q1953.51 1766.05 1956.92 1764.24 L1956.92 1770.28 Q1953.48 1771.74 1949.87 1772.51 Q1946.26 1773.27 1942.54 1773.27 Q1933.24 1773.27 1927.78 1767.85 Q1922.37 1762.44 1922.37 1753.2 Q1922.37 1743.65 1927.51 1738.06 Q1932.68 1732.44 1941.43 1732.44 Q1949.28 1732.44 1953.83 1737.51 Q1958.41 1742.54 1958.41 1751.22 M1952.02 1749.35 Q1951.95 1744.1 1949.07 1740.98 Q1946.22 1737.85 1941.5 1737.85 Q1936.15 1737.85 1932.92 1740.87 Q1929.73 1743.9 1929.24 1749.38 L1952.02 1749.35 Z" fill="#000000" fill-rule="nonzero" fill-opacity="1" /><path clip-path="url(#clip0000)" d="M1994.49 1739.28 L1994.49 1718.24 L2000.87 1718.24 L2000.87 1772.26 L1994.49 1772.26 L1994.49 1766.43 Q1992.47 1769.9 1989.38 1771.6 Q1986.33 1773.27 1982.02 1773.27 Q1974.97 1773.27 1970.53 1767.65 Q1966.12 1762.02 1966.12 1752.85 Q1966.12 1743.69 1970.53 1738.06 Q1974.97 1732.44 1982.02 1732.44 Q1986.33 1732.44 1989.38 1734.14 Q1992.47 1735.81 1994.49 1739.28 M1972.71 1752.85 Q1972.71 1759.9 1975.6 1763.93 Q1978.51 1767.92 1983.58 1767.92 Q1988.65 1767.92 1991.57 1763.93 Q1994.49 1759.9 1994.49 1752.85 Q1994.49 1745.81 1991.57 1741.81 Q1988.65 1737.78 1983.58 1737.78 Q1978.51 1737.78 1975.6 1741.81 Q1972.71 1745.81 1972.71 1752.85 Z" fill="#000000" fill-rule="nonzero" fill-opacity="1" /><path clip-path="url(#clip0000)" d="M2064.62 1734.87 L2064.62 1740.84 Q2061.92 1739.35 2059.17 1738.62 Q2056.46 1737.85 2053.69 1737.85 Q2047.47 1737.85 2044.03 1741.81 Q2040.6 1745.74 2040.6 1752.85 Q2040.6 1759.97 2044.03 1763.93 Q2047.47 1767.85 2053.69 1767.85 Q2056.46 1767.85 2059.17 1767.12 Q2061.92 1766.36 2064.62 1764.87 L2064.62 1770.77 Q2061.95 1772.02 2059.07 1772.65 Q2056.22 1773.27 2052.99 1773.27 Q2044.21 1773.27 2039.03 1767.75 Q2033.86 1762.23 2033.86 1752.85 Q2033.86 1743.34 2039.07 1737.89 Q2044.31 1732.44 2053.41 1732.44 Q2056.36 1732.44 2059.17 1733.06 Q2061.99 1733.65 2064.62 1734.87 Z" fill="#000000" fill-rule="nonzero" fill-opacity="1" /><path clip-path="url(#clip0000)" d="M2093.41 1752.72 Q2085.67 1752.72 2082.68 1754.49 Q2079.69 1756.26 2079.69 1760.53 Q2079.69 1763.93 2081.92 1765.94 Q2084.17 1767.92 2088.03 1767.92 Q2093.34 1767.92 2096.53 1764.17 Q2099.76 1760.39 2099.76 1754.14 L2099.76 1752.72 L2093.41 1752.72 M2106.15 1750.08 L2106.15 1772.26 L2099.76 1772.26 L2099.76 1766.36 Q2097.58 1769.9 2094.31 1771.6 Q2091.05 1773.27 2086.33 1773.27 Q2080.35 1773.27 2076.81 1769.94 Q2073.3 1766.57 2073.3 1760.94 Q2073.3 1754.38 2077.68 1751.05 Q2082.09 1747.72 2090.8 1747.72 L2099.76 1747.72 L2099.76 1747.09 Q2099.76 1742.68 2096.85 1740.28 Q2093.96 1737.85 2088.72 1737.85 Q2085.39 1737.85 2082.23 1738.65 Q2079.07 1739.45 2076.15 1741.05 L2076.15 1735.15 Q2079.66 1733.79 2082.96 1733.13 Q2086.26 1732.44 2089.38 1732.44 Q2097.82 1732.44 2101.98 1736.81 Q2106.15 1741.19 2106.15 1750.08 Z" fill="#000000" fill-rule="nonzero" fill-opacity="1" /><path clip-path="url(#clip0000)" d="M2144.1 1734.52 L2144.1 1740.56 Q2141.39 1739.17 2138.48 1738.48 Q2135.56 1737.78 2132.44 1737.78 Q2127.68 1737.78 2125.28 1739.24 Q2122.92 1740.7 2122.92 1743.62 Q2122.92 1745.84 2124.62 1747.12 Q2126.33 1748.37 2131.46 1749.52 L2133.65 1750.01 Q2140.46 1751.47 2143.3 1754.14 Q2146.19 1756.78 2146.19 1761.53 Q2146.19 1766.95 2141.88 1770.11 Q2137.61 1773.27 2130.11 1773.27 Q2126.98 1773.27 2123.58 1772.65 Q2120.21 1772.06 2116.46 1770.84 L2116.46 1764.24 Q2120.01 1766.08 2123.44 1767.02 Q2126.88 1767.92 2130.25 1767.92 Q2134.76 1767.92 2137.19 1766.4 Q2139.62 1764.83 2139.62 1762.02 Q2139.62 1759.42 2137.85 1758.03 Q2136.12 1756.64 2130.18 1755.35 L2127.96 1754.83 Q2122.02 1753.58 2119.38 1751.01 Q2116.74 1748.41 2116.74 1743.9 Q2116.74 1738.41 2120.63 1735.42 Q2124.52 1732.44 2131.67 1732.44 Q2135.21 1732.44 2138.34 1732.96 Q2141.46 1733.48 2144.1 1734.52 Z" fill="#000000" fill-rule="nonzero" fill-opacity="1" /><path clip-path="url(#clip0000)" d="M2189.62 1751.22 L2189.62 1754.35 L2160.25 1754.35 Q2160.67 1760.94 2164.21 1764.42 Q2167.78 1767.85 2174.14 1767.85 Q2177.82 1767.85 2181.26 1766.95 Q2184.73 1766.05 2188.13 1764.24 L2188.13 1770.28 Q2184.69 1771.74 2181.08 1772.51 Q2177.47 1773.27 2173.76 1773.27 Q2164.45 1773.27 2159 1767.85 Q2153.58 1762.44 2153.58 1753.2 Q2153.58 1743.65 2158.72 1738.06 Q2163.89 1732.44 2172.64 1732.44 Q2180.49 1732.44 2185.04 1737.51 Q2189.62 1742.54 2189.62 1751.22 M2183.23 1749.35 Q2183.17 1744.1 2180.28 1740.98 Q2177.44 1737.85 2172.71 1737.85 Q2167.37 1737.85 2164.14 1740.87 Q2160.94 1743.9 2160.46 1749.38 L2183.23 1749.35 Z" fill="#000000" fill-rule="nonzero" fill-opacity="1" /><path clip-path="url(#clip0000)" d="M2224.9 1734.52 L2224.9 1740.56 Q2222.19 1739.17 2219.28 1738.48 Q2216.36 1737.78 2213.23 1737.78 Q2208.48 1737.78 2206.08 1739.24 Q2203.72 1740.7 2203.72 1743.62 Q2203.72 1745.84 2205.42 1747.12 Q2207.12 1748.37 2212.26 1749.52 L2214.45 1750.01 Q2221.26 1751.47 2224.1 1754.14 Q2226.98 1756.78 2226.98 1761.53 Q2226.98 1766.95 2222.68 1770.11 Q2218.41 1773.27 2210.91 1773.27 Q2207.78 1773.27 2204.38 1772.65 Q2201.01 1772.06 2197.26 1770.84 L2197.26 1764.24 Q2200.8 1766.08 2204.24 1767.02 Q2207.68 1767.92 2211.05 1767.92 Q2215.56 1767.92 2217.99 1766.4 Q2220.42 1764.83 2220.42 1762.02 Q2220.42 1759.42 2218.65 1758.03 Q2216.91 1756.64 2210.98 1755.35 L2208.76 1754.83 Q2202.82 1753.58 2200.18 1751.01 Q2197.54 1748.41 2197.54 1743.9 Q2197.54 1738.41 2201.43 1735.42 Q2205.32 1732.44 2212.47 1732.44 Q2216.01 1732.44 2219.14 1732.96 Q2222.26 1733.48 2224.9 1734.52 Z" fill="#000000" fill-rule="nonzero" fill-opacity="1" /><polyline clip-path="url(#clip0000)" style="stroke:#000000; stroke-linecap:round; stroke-linejoin:round; stroke-width:4; stroke-opacity:1; fill:none" points="354.723,1591.26 354.723,47.2441 "/>
<polyline clip-path="url(#clip0000)" style="stroke:#000000; stroke-linecap:round; stroke-linejoin:round; stroke-width:4; stroke-opacity:1; fill:none" points="3552.76,1591.26 3552.76,47.2441 "/>
<polyline clip-path="url(#clip0000)" style="stroke:#000000; stroke-linecap:round; stroke-linejoin:round; stroke-width:4; stroke-opacity:1; fill:none" points="354.723,1497.67 373.62,1497.67 "/>
<polyline clip-path="url(#clip0000)" style="stroke:#000000; stroke-linecap:round; stroke-linejoin:round; stroke-width:4; stroke-opacity:1; fill:none" points="354.723,1239.16 373.62,1239.16 "/>
<polyline clip-path="url(#clip0000)" style="stroke:#000000; stroke-linecap:round; stroke-linejoin:round; stroke-width:4; stroke-opacity:1; fill:none" points="354.723,980.659 373.62,980.659 "/>
<polyline clip-path="url(#clip0000)" style="stroke:#000000; stroke-linecap:round; stroke-linejoin:round; stroke-width:4; stroke-opacity:1; fill:none" points="354.723,722.153 373.62,722.153 "/>
<polyline clip-path="url(#clip0000)" style="stroke:#000000; stroke-linecap:round; stroke-linejoin:round; stroke-width:4; stroke-opacity:1; fill:none" points="354.723,463.647 373.62,463.647 "/>
<polyline clip-path="url(#clip0000)" style="stroke:#000000; stroke-linecap:round; stroke-linejoin:round; stroke-width:4; stroke-opacity:1; fill:none" points="354.723,205.141 373.62,205.141 "/>
<polyline clip-path="url(#clip0000)" style="stroke:#000000; stroke-linecap:round; stroke-linejoin:round; stroke-width:4; stroke-opacity:1; fill:none" points="3552.76,1497.67 3533.86,1497.67 "/>
<polyline clip-path="url(#clip0000)" style="stroke:#000000; stroke-linecap:round; stroke-linejoin:round; stroke-width:4; stroke-opacity:1; fill:none" points="3552.76,1239.16 3533.86,1239.16 "/>
<polyline clip-path="url(#clip0000)" style="stroke:#000000; stroke-linecap:round; stroke-linejoin:round; stroke-width:4; stroke-opacity:1; fill:none" points="3552.76,980.659 3533.86,980.659 "/>
<polyline clip-path="url(#clip0000)" style="stroke:#000000; stroke-linecap:round; stroke-linejoin:round; stroke-width:4; stroke-opacity:1; fill:none" points="3552.76,722.153 3533.86,722.153 "/>
<polyline clip-path="url(#clip0000)" style="stroke:#000000; stroke-linecap:round; stroke-linejoin:round; stroke-width:4; stroke-opacity:1; fill:none" points="3552.76,463.647 3533.86,463.647 "/>
<polyline clip-path="url(#clip0000)" style="stroke:#000000; stroke-linecap:round; stroke-linejoin:round; stroke-width:4; stroke-opacity:1; fill:none" points="3552.76,205.141 3533.86,205.141 "/>
<path clip-path="url(#clip0000)" d="M223.032 1514.35 L243.431 1514.35 L243.431 1519.27 L216.001 1519.27 L216.001 1514.35 Q219.328 1510.91 225.057 1505.12 Q230.815 1499.31 232.291 1497.63 Q235.098 1494.47 236.197 1492.3 Q237.326 1490.1 237.326 1487.99 Q237.326 1484.55 234.895 1482.38 Q232.494 1480.21 228.616 1480.21 Q225.868 1480.21 222.8 1481.16 Q219.762 1482.12 216.29 1484.06 L216.29 1478.15 Q219.82 1476.74 222.887 1476.01 Q225.954 1475.29 228.501 1475.29 Q235.214 1475.29 239.207 1478.65 Q243.2 1482 243.2 1487.62 Q243.2 1490.28 242.187 1492.68 Q241.203 1495.05 238.57 1498.29 Q237.847 1499.13 233.969 1503.15 Q230.092 1507.15 223.032 1514.35 Z" fill="#000000" fill-rule="nonzero" fill-opacity="1" /><path clip-path="url(#clip0000)" d="M255.7 1511.92 L261.805 1511.92 L261.805 1519.27 L255.7 1519.27 L255.7 1511.92 Z" fill="#000000" fill-rule="nonzero" fill-opacity="1" /><path clip-path="url(#clip0000)" d="M274.594 1476.07 L297.54 1476.07 L297.54 1480.99 L279.947 1480.99 L279.947 1491.58 Q281.22 1491.15 282.493 1490.94 Q283.767 1490.71 285.04 1490.71 Q292.273 1490.71 296.498 1494.68 Q300.723 1498.64 300.723 1505.41 Q300.723 1512.38 296.382 1516.26 Q292.042 1520.11 284.143 1520.11 Q281.423 1520.11 278.587 1519.65 Q275.781 1519.18 272.771 1518.26 L272.771 1512.38 Q275.375 1513.8 278.153 1514.5 Q280.931 1515.19 284.027 1515.19 Q289.033 1515.19 291.955 1512.56 Q294.878 1509.92 294.878 1505.41 Q294.878 1500.9 291.955 1498.26 Q289.033 1495.63 284.027 1495.63 Q281.683 1495.63 279.34 1496.15 Q277.025 1496.67 274.594 1497.77 L274.594 1476.07 Z" fill="#000000" fill-rule="nonzero" fill-opacity="1" /><path clip-path="url(#clip0000)" d="M216.811 1217.56 L239.756 1217.56 L239.756 1222.48 L222.164 1222.48 L222.164 1233.07 Q223.437 1232.64 224.71 1232.44 Q225.983 1232.21 227.256 1232.21 Q234.49 1232.21 238.715 1236.17 Q242.939 1240.13 242.939 1246.91 Q242.939 1253.88 238.599 1257.76 Q234.259 1261.6 226.359 1261.6 Q223.64 1261.6 220.804 1261.14 Q217.997 1260.68 214.988 1259.75 L214.988 1253.88 Q217.592 1255.3 220.37 1255.99 Q223.148 1256.69 226.244 1256.69 Q231.249 1256.69 234.172 1254.05 Q237.094 1251.42 237.094 1246.91 Q237.094 1242.39 234.172 1239.76 Q231.249 1237.13 226.244 1237.13 Q223.9 1237.13 221.556 1237.65 Q219.241 1238.17 216.811 1239.27 L216.811 1217.56 Z" fill="#000000" fill-rule="nonzero" fill-opacity="1" /><path clip-path="url(#clip0000)" d="M254.455 1253.42 L260.561 1253.42 L260.561 1260.76 L254.455 1260.76 L254.455 1253.42 Z" fill="#000000" fill-rule="nonzero" fill-opacity="1" /><path clip-path="url(#clip0000)" d="M285.792 1221.41 Q281.278 1221.41 278.992 1225.87 Q276.735 1230.3 276.735 1239.21 Q276.735 1248.09 278.992 1252.55 Q281.278 1256.97 285.792 1256.97 Q290.335 1256.97 292.592 1252.55 Q294.878 1248.09 294.878 1239.21 Q294.878 1230.3 292.592 1225.87 Q290.335 1221.41 285.792 1221.41 M285.792 1216.78 Q293.055 1216.78 296.874 1222.54 Q300.723 1228.27 300.723 1239.21 Q300.723 1250.12 296.874 1255.87 Q293.055 1261.6 285.792 1261.6 Q278.529 1261.6 274.681 1255.87 Q270.862 1250.12 270.862 1239.21 Q270.862 1228.27 274.681 1222.54 Q278.529 1216.78 285.792 1216.78 Z" fill="#000000" fill-rule="nonzero" fill-opacity="1" /><path clip-path="url(#clip0000)" d="M216.522 959.059 L244.299 959.059 L244.299 961.547 L228.616 1002.26 L222.511 1002.26 L237.268 963.978 L216.522 963.978 L216.522 959.059 Z" fill="#000000" fill-rule="nonzero" fill-opacity="1" /><path clip-path="url(#clip0000)" d="M255.7 994.91 L261.805 994.91 L261.805 1002.26 L255.7 1002.26 L255.7 994.91 Z" fill="#000000" fill-rule="nonzero" fill-opacity="1" /><path clip-path="url(#clip0000)" d="M274.594 959.059 L297.54 959.059 L297.54 963.978 L279.947 963.978 L279.947 974.568 Q281.22 974.134 282.493 973.932 Q283.767 973.7 285.04 973.7 Q292.273 973.7 296.498 977.664 Q300.723 981.628 300.723 988.399 Q300.723 995.373 296.382 999.25 Q292.042 1003.1 284.143 1003.1 Q281.423 1003.1 278.587 1002.64 Q275.781 1002.17 272.771 1001.25 L272.771 995.373 Q275.375 996.79 278.153 997.485 Q280.931 998.179 284.027 998.179 Q289.033 998.179 291.955 995.546 Q294.878 992.913 294.878 988.399 Q294.878 983.885 291.955 981.252 Q289.033 978.619 284.027 978.619 Q281.683 978.619 279.34 979.14 Q277.025 979.661 274.594 980.76 L274.594 959.059 Z" fill="#000000" fill-rule="nonzero" fill-opacity="1" /><path clip-path="url(#clip0000)" d="M180.063 738.834 L189.612 738.834 L189.612 705.877 L179.224 707.961 L179.224 702.637 L189.554 700.553 L195.399 700.553 L195.399 738.834 L204.948 738.834 L204.948 743.753 L180.063 743.753 L180.063 738.834 Z" fill="#000000" fill-rule="nonzero" fill-opacity="1" /><path clip-path="url(#clip0000)" d="M229.253 704.402 Q224.739 704.402 222.453 708.858 Q220.196 713.285 220.196 722.197 Q220.196 731.08 222.453 735.536 Q224.739 739.963 229.253 739.963 Q233.796 739.963 236.053 735.536 Q238.339 731.08 238.339 722.197 Q238.339 713.285 236.053 708.858 Q233.796 704.402 229.253 704.402 M229.253 699.772 Q236.516 699.772 240.335 705.53 Q244.183 711.259 244.183 722.197 Q244.183 733.105 240.335 738.863 Q236.516 744.592 229.253 744.592 Q221.99 744.592 218.142 738.863 Q214.323 733.105 214.323 722.197 Q214.323 711.259 218.142 705.53 Q221.99 699.772 229.253 699.772 Z" fill="#000000" fill-rule="nonzero" fill-opacity="1" /><path clip-path="url(#clip0000)" d="M254.455 736.404 L260.561 736.404 L260.561 743.753 L254.455 743.753 L254.455 736.404 Z" fill="#000000" fill-rule="nonzero" fill-opacity="1" /><path clip-path="url(#clip0000)" d="M285.792 704.402 Q281.278 704.402 278.992 708.858 Q276.735 713.285 276.735 722.197 Q276.735 731.08 278.992 735.536 Q281.278 739.963 285.792 739.963 Q290.335 739.963 292.592 735.536 Q294.878 731.08 294.878 722.197 Q294.878 713.285 292.592 708.858 Q290.335 704.402 285.792 704.402 M285.792 699.772 Q293.055 699.772 296.874 705.53 Q300.723 711.259 300.723 722.197 Q300.723 733.105 296.874 738.863 Q293.055 744.592 285.792 744.592 Q278.529 744.592 274.681 738.863 Q270.862 733.105 270.862 722.197 Q270.862 711.259 274.681 705.53 Q278.529 699.772 285.792 699.772 Z" fill="#000000" fill-rule="nonzero" fill-opacity="1" /><path clip-path="url(#clip0000)" d="M181.308 480.328 L190.856 480.328 L190.856 447.371 L180.469 449.455 L180.469 444.131 L190.798 442.047 L196.643 442.047 L196.643 480.328 L206.192 480.328 L206.192 485.247 L181.308 485.247 L181.308 480.328 Z" fill="#000000" fill-rule="nonzero" fill-opacity="1" /><path clip-path="url(#clip0000)" d="M223.032 480.328 L243.431 480.328 L243.431 485.247 L216.001 485.247 L216.001 480.328 Q219.328 476.885 225.057 471.098 Q230.815 465.282 232.291 463.604 Q235.098 460.45 236.197 458.28 Q237.326 456.081 237.326 453.969 Q237.326 450.525 234.895 448.355 Q232.494 446.185 228.616 446.185 Q225.868 446.185 222.8 447.14 Q219.762 448.095 216.29 450.033 L216.29 444.131 Q219.82 442.713 222.887 441.989 Q225.954 441.266 228.501 441.266 Q235.214 441.266 239.207 444.623 Q243.2 447.979 243.2 453.592 Q243.2 456.254 242.187 458.656 Q241.203 461.029 238.57 464.269 Q237.847 465.109 233.969 469.13 Q230.092 473.124 223.032 480.328 Z" fill="#000000" fill-rule="nonzero" fill-opacity="1" /><path clip-path="url(#clip0000)" d="M255.7 477.898 L261.805 477.898 L261.805 485.247 L255.7 485.247 L255.7 477.898 Z" fill="#000000" fill-rule="nonzero" fill-opacity="1" /><path clip-path="url(#clip0000)" d="M274.594 442.047 L297.54 442.047 L297.54 446.966 L279.947 446.966 L279.947 457.556 Q281.22 457.122 282.493 456.92 Q283.767 456.688 285.04 456.688 Q292.273 456.688 296.498 460.653 Q300.723 464.617 300.723 471.387 Q300.723 478.361 296.382 482.238 Q292.042 486.086 284.143 486.086 Q281.423 486.086 278.587 485.623 Q275.781 485.16 272.771 484.235 L272.771 478.361 Q275.375 479.779 278.153 480.473 Q280.931 481.167 284.027 481.167 Q289.033 481.167 291.955 478.534 Q294.878 475.901 294.878 471.387 Q294.878 466.874 291.955 464.24 Q289.033 461.607 284.027 461.607 Q281.683 461.607 279.34 462.128 Q277.025 462.649 274.594 463.749 L274.594 442.047 Z" fill="#000000" fill-rule="nonzero" fill-opacity="1" /><path clip-path="url(#clip0000)" d="M180.063 221.822 L189.612 221.822 L189.612 188.865 L179.224 190.949 L179.224 185.625 L189.554 183.541 L195.399 183.541 L195.399 221.822 L204.948 221.822 L204.948 226.741 L180.063 226.741 L180.063 221.822 Z" fill="#000000" fill-rule="nonzero" fill-opacity="1" /><path clip-path="url(#clip0000)" d="M216.811 183.541 L239.756 183.541 L239.756 188.46 L222.164 188.46 L222.164 199.051 Q223.437 198.617 224.71 198.414 Q225.983 198.183 227.256 198.183 Q234.49 198.183 238.715 202.147 Q242.939 206.111 242.939 212.882 Q242.939 219.855 238.599 223.732 Q234.259 227.581 226.359 227.581 Q223.64 227.581 220.804 227.118 Q217.997 226.655 214.988 225.729 L214.988 219.855 Q217.592 221.273 220.37 221.967 Q223.148 222.662 226.244 222.662 Q231.249 222.662 234.172 220.028 Q237.094 217.395 237.094 212.882 Q237.094 208.368 234.172 205.735 Q231.249 203.101 226.244 203.101 Q223.9 203.101 221.556 203.622 Q219.241 204.143 216.811 205.243 L216.811 183.541 Z" fill="#000000" fill-rule="nonzero" fill-opacity="1" /><path clip-path="url(#clip0000)" d="M254.455 219.392 L260.561 219.392 L260.561 226.741 L254.455 226.741 L254.455 219.392 Z" fill="#000000" fill-rule="nonzero" fill-opacity="1" /><path clip-path="url(#clip0000)" d="M285.792 187.39 Q281.278 187.39 278.992 191.846 Q276.735 196.273 276.735 205.185 Q276.735 214.068 278.992 218.524 Q281.278 222.951 285.792 222.951 Q290.335 222.951 292.592 218.524 Q294.878 214.068 294.878 205.185 Q294.878 196.273 292.592 191.846 Q290.335 187.39 285.792 187.39 M285.792 182.76 Q293.055 182.76 296.874 188.518 Q300.723 194.247 300.723 205.185 Q300.723 216.093 296.874 221.851 Q293.055 227.581 285.792 227.581 Q278.529 227.581 274.681 221.851 Q270.862 216.093 270.862 205.185 Q270.862 194.247 274.681 188.518 Q278.529 182.76 285.792 182.76 Z" fill="#000000" fill-rule="nonzero" fill-opacity="1" /><path clip-path="url(#clip0000)" d="M57.8323 1219.75 L57.8323 1210.31 L101.2 1187.32 L57.8323 1187.32 L57.8323 1180.52 L109.672 1180.52 L109.672 1189.96 L66.3045 1212.95 L109.672 1212.95 L109.672 1219.75 L57.8323 1219.75 Z" fill="#000000" fill-rule="nonzero" fill-opacity="1" /><path clip-path="url(#clip0000)" d="M88.6308 1133.57 L91.7557 1133.57 L91.7557 1162.95 Q98.3529 1162.53 101.825 1158.99 Q105.263 1155.41 105.263 1149.06 Q105.263 1145.38 104.36 1141.94 Q103.457 1138.47 101.652 1135.06 L107.693 1135.06 Q109.151 1138.5 109.915 1142.11 Q110.679 1145.72 110.679 1149.44 Q110.679 1158.74 105.263 1164.2 Q99.846 1169.61 90.6099 1169.61 Q81.0614 1169.61 75.4711 1164.47 Q69.8461 1159.3 69.8461 1150.55 Q69.8461 1142.7 74.9156 1138.15 Q79.9503 1133.57 88.6308 1133.57 M86.7558 1139.96 Q81.5127 1140.03 78.3878 1142.91 Q75.2628 1145.76 75.2628 1150.48 Q75.2628 1155.83 78.2836 1159.06 Q81.3044 1162.25 86.7905 1162.74 L86.7558 1139.96 Z" fill="#000000" fill-rule="nonzero" fill-opacity="1" /><path clip-path="url(#clip0000)" d="M89.7766 1097.49 Q82.8322 1097.49 79.0128 1100.38 Q75.1933 1103.22 75.1933 1108.4 Q75.1933 1113.54 79.0128 1116.42 Q82.8322 1119.27 89.7766 1119.27 Q96.6863 1119.27 100.506 1116.42 Q104.325 1113.54 104.325 1108.4 Q104.325 1103.22 100.506 1100.38 Q96.6863 1097.49 89.7766 1097.49 M104.846 1091.11 Q114.776 1091.11 119.603 1095.52 Q124.464 1099.93 124.464 1109.02 Q124.464 1112.39 123.943 1115.38 Q123.457 1118.36 122.415 1121.18 L116.2 1121.18 Q117.728 1118.36 118.457 1115.62 Q119.186 1112.88 119.186 1110.03 Q119.186 1103.74 115.888 1100.62 Q112.624 1097.49 105.992 1097.49 L102.832 1097.49 Q106.27 1099.47 107.971 1102.56 Q109.672 1105.65 109.672 1109.96 Q109.672 1117.11 104.221 1121.49 Q98.7696 1125.86 89.7766 1125.86 Q80.7489 1125.86 75.2975 1121.49 Q69.8461 1117.11 69.8461 1109.96 Q69.8461 1105.65 71.5475 1102.56 Q73.2489 1099.47 76.6864 1097.49 L70.7836 1097.49 L70.7836 1091.11 L104.846 1091.11 Z" fill="#000000" fill-rule="nonzero" fill-opacity="1" /><path clip-path="url(#clip0000)" d="M90.1238 1060.27 Q90.1238 1068.02 91.8946 1071 Q93.6655 1073.99 97.9363 1073.99 Q101.339 1073.99 103.353 1071.77 Q105.332 1069.51 105.332 1065.65 Q105.332 1060.34 101.582 1057.15 Q97.7974 1053.92 91.5474 1053.92 L90.1238 1053.92 L90.1238 1060.27 M87.4849 1047.53 L109.672 1047.53 L109.672 1053.92 L103.77 1053.92 Q107.311 1056.11 109.013 1059.37 Q110.679 1062.63 110.679 1067.36 Q110.679 1073.33 107.346 1076.87 Q103.978 1080.38 98.3529 1080.38 Q91.7905 1080.38 88.4572 1076 Q85.1238 1071.59 85.1238 1062.88 L85.1238 1053.92 L84.4988 1053.92 Q80.0891 1053.92 77.6933 1056.84 Q75.2628 1059.72 75.2628 1064.96 Q75.2628 1068.29 76.0614 1071.45 Q76.86 1074.61 78.4572 1077.53 L72.5545 1077.53 Q71.2003 1074.02 70.5406 1070.72 Q69.8461 1067.43 69.8461 1064.3 Q69.8461 1055.86 74.2211 1051.7 Q78.5961 1047.53 87.4849 1047.53 Z" fill="#000000" fill-rule="nonzero" fill-opacity="1" /><path clip-path="url(#clip0000)" d="M59.742 1028.05 L70.7836 1028.05 L70.7836 1014.89 L75.7489 1014.89 L75.7489 1028.05 L96.8599 1028.05 Q101.617 1028.05 102.971 1026.77 Q104.325 1025.45 104.325 1021.45 L104.325 1014.89 L109.672 1014.89 L109.672 1021.45 Q109.672 1028.85 106.929 1031.66 Q104.152 1034.47 96.8599 1034.47 L75.7489 1034.47 L75.7489 1039.16 L70.7836 1039.16 L70.7836 1034.47 L59.742 1034.47 L59.742 1028.05 Z" fill="#000000" fill-rule="nonzero" fill-opacity="1" /><path clip-path="url(#clip0000)" d="M70.7836 1006.49 L70.7836 1000.1 L109.672 1000.1 L109.672 1006.49 L70.7836 1006.49 M55.6448 1006.49 L55.6448 1000.1 L63.7351 1000.1 L63.7351 1006.49 L55.6448 1006.49 Z" fill="#000000" fill-rule="nonzero" fill-opacity="1" /><path clip-path="url(#clip0000)" d="M70.7836 991.315 L70.7836 984.544 L103.422 972.391 L70.7836 960.239 L70.7836 953.468 L109.672 968.051 L109.672 976.732 L70.7836 991.315 Z" fill="#000000" fill-rule="nonzero" fill-opacity="1" /><path clip-path="url(#clip0000)" d="M88.6308 911.385 L91.7557 911.385 L91.7557 940.76 Q98.3529 940.343 101.825 936.801 Q105.263 933.225 105.263 926.871 Q105.263 923.19 104.36 919.753 Q103.457 916.281 101.652 912.878 L107.693 912.878 Q109.151 916.315 109.915 919.926 Q110.679 923.538 110.679 927.253 Q110.679 936.558 105.263 942.01 Q99.846 947.426 90.6099 947.426 Q81.0614 947.426 75.4711 942.287 Q69.8461 937.114 69.8461 928.364 Q69.8461 920.517 74.9156 915.968 Q79.9503 911.385 88.6308 911.385 M86.7558 917.774 Q81.5127 917.843 78.3878 920.725 Q75.2628 923.572 75.2628 928.294 Q75.2628 933.642 78.2836 936.871 Q81.3044 940.065 86.7905 940.551 L86.7558 917.774 Z" fill="#000000" fill-rule="nonzero" fill-opacity="1" /><path clip-path="url(#clip0000)" d="M55.6448 878.295 L55.6448 871.906 L109.672 871.906 L109.672 878.295 L55.6448 878.295 Z" fill="#000000" fill-rule="nonzero" fill-opacity="1" /><path clip-path="url(#clip0000)" d="M75.2628 843.469 Q75.2628 848.607 79.2905 851.593 Q83.2836 854.58 90.2627 854.58 Q97.2418 854.58 101.27 851.628 Q105.263 848.642 105.263 843.469 Q105.263 838.364 101.235 835.378 Q97.2071 832.392 90.2627 832.392 Q83.353 832.392 79.3253 835.378 Q75.2628 838.364 75.2628 843.469 M69.8461 843.469 Q69.8461 835.135 75.2628 830.378 Q80.6794 825.621 90.2627 825.621 Q99.8113 825.621 105.263 830.378 Q110.679 835.135 110.679 843.469 Q110.679 851.837 105.263 856.593 Q99.8113 861.316 90.2627 861.316 Q80.6794 861.316 75.2628 856.593 Q69.8461 851.837 69.8461 843.469 Z" fill="#000000" fill-rule="nonzero" fill-opacity="1" /><path clip-path="url(#clip0000)" d="M89.7766 789.441 Q82.8322 789.441 79.0128 792.323 Q75.1933 795.17 75.1933 800.344 Q75.1933 805.483 79.0128 808.365 Q82.8322 811.212 89.7766 811.212 Q96.6863 811.212 100.506 808.365 Q104.325 805.483 104.325 800.344 Q104.325 795.17 100.506 792.323 Q96.6863 789.441 89.7766 789.441 M104.846 783.052 Q114.776 783.052 119.603 787.462 Q124.464 791.872 124.464 800.969 Q124.464 804.337 123.943 807.323 Q123.457 810.309 122.415 813.121 L116.2 813.121 Q117.728 810.309 118.457 807.566 Q119.186 804.823 119.186 801.976 Q119.186 795.691 115.888 792.566 Q112.624 789.441 105.992 789.441 L102.832 789.441 Q106.27 791.42 107.971 794.51 Q109.672 797.601 109.672 801.906 Q109.672 809.059 104.221 813.434 Q98.7696 817.809 89.7766 817.809 Q80.7489 817.809 75.2975 813.434 Q69.8461 809.059 69.8461 801.906 Q69.8461 797.601 71.5475 794.51 Q73.2489 791.42 76.6864 789.441 L70.7836 789.441 L70.7836 783.052 L104.846 783.052 Z" fill="#000000" fill-rule="nonzero" fill-opacity="1" /><path clip-path="url(#clip0000)" d="M87.346 773.122 L87.346 754.406 L93.0405 754.406 L93.0405 773.122 L87.346 773.122 Z" fill="#000000" fill-rule="nonzero" fill-opacity="1" /><path clip-path="url(#clip0000)" d="M55.6448 744.233 L55.6448 737.844 L109.672 737.844 L109.672 744.233 L55.6448 744.233 Z" fill="#000000" fill-rule="nonzero" fill-opacity="1" /><path clip-path="url(#clip0000)" d="M70.7836 724.476 L70.7836 718.087 L109.672 718.087 L109.672 724.476 L70.7836 724.476 M55.6448 724.476 L55.6448 718.087 L63.7351 718.087 L63.7351 724.476 L55.6448 724.476 Z" fill="#000000" fill-rule="nonzero" fill-opacity="1" /><path clip-path="url(#clip0000)" d="M55.6448 704.962 L55.6448 698.539 L87.5544 698.539 L70.7836 679.476 L70.7836 671.317 L88.978 691.942 L109.672 670.449 L109.672 678.782 L90.6794 698.539 L109.672 698.539 L109.672 704.962 L55.6448 704.962 Z" fill="#000000" fill-rule="nonzero" fill-opacity="1" /><path clip-path="url(#clip0000)" d="M88.6308 632.81 L91.7557 632.81 L91.7557 662.185 Q98.3529 661.768 101.825 658.226 Q105.263 654.65 105.263 648.296 Q105.263 644.615 104.36 641.178 Q103.457 637.706 101.652 634.303 L107.693 634.303 Q109.151 637.74 109.915 641.352 Q110.679 644.963 110.679 648.678 Q110.679 657.983 105.263 663.435 Q99.846 668.851 90.6099 668.851 Q81.0614 668.851 75.4711 663.713 Q69.8461 658.539 69.8461 649.789 Q69.8461 641.942 74.9156 637.393 Q79.9503 632.81 88.6308 632.81 M86.7558 639.199 Q81.5127 639.268 78.3878 642.15 Q75.2628 644.997 75.2628 649.72 Q75.2628 655.067 78.2836 658.296 Q81.3044 661.49 86.7905 661.976 L86.7558 639.199 Z" fill="#000000" fill-rule="nonzero" fill-opacity="1" /><path clip-path="url(#clip0000)" d="M55.6448 622.324 L55.6448 615.935 L109.672 615.935 L109.672 622.324 L55.6448 622.324 Z" fill="#000000" fill-rule="nonzero" fill-opacity="1" /><path clip-path="url(#clip0000)" d="M70.7836 602.567 L70.7836 596.178 L109.672 596.178 L109.672 602.567 L70.7836 602.567 M55.6448 602.567 L55.6448 596.178 L63.7351 596.178 L63.7351 602.567 L55.6448 602.567 Z" fill="#000000" fill-rule="nonzero" fill-opacity="1" /><path clip-path="url(#clip0000)" d="M86.2002 550.484 L109.672 550.484 L109.672 556.873 L86.4086 556.873 Q80.8877 556.873 78.1447 559.026 Q75.4017 561.178 75.4017 565.484 Q75.4017 570.657 78.7003 573.644 Q81.9989 576.63 87.6933 576.63 L109.672 576.63 L109.672 583.053 L55.6448 583.053 L55.6448 576.63 L76.8253 576.63 Q73.3183 574.338 71.5822 571.248 Q69.8461 568.123 69.8461 564.06 Q69.8461 557.359 74.0128 553.921 Q78.1447 550.484 86.2002 550.484 Z" fill="#000000" fill-rule="nonzero" fill-opacity="1" /><path clip-path="url(#clip0000)" d="M75.2628 522.672 Q75.2628 527.81 79.2905 530.797 Q83.2836 533.783 90.2627 533.783 Q97.2418 533.783 101.27 530.831 Q105.263 527.845 105.263 522.672 Q105.263 517.567 101.235 514.581 Q97.2071 511.595 90.2627 511.595 Q83.353 511.595 79.3253 514.581 Q75.2628 517.567 75.2628 522.672 M69.8461 522.672 Q69.8461 514.338 75.2628 509.581 Q80.6794 504.824 90.2627 504.824 Q99.8113 504.824 105.263 509.581 Q110.679 514.338 110.679 522.672 Q110.679 531.04 105.263 535.797 Q99.8113 540.519 90.2627 540.519 Q80.6794 540.519 75.2628 535.797 Q69.8461 531.04 69.8461 522.672 Z" fill="#000000" fill-rule="nonzero" fill-opacity="1" /><path clip-path="url(#clip0000)" d="M75.2628 479.165 Q75.2628 484.304 79.2905 487.29 Q83.2836 490.276 90.2627 490.276 Q97.2418 490.276 101.27 487.325 Q105.263 484.338 105.263 479.165 Q105.263 474.061 101.235 471.075 Q97.2071 468.089 90.2627 468.089 Q83.353 468.089 79.3253 471.075 Q75.2628 474.061 75.2628 479.165 M69.8461 479.165 Q69.8461 470.832 75.2628 466.075 Q80.6794 461.318 90.2627 461.318 Q99.8113 461.318 105.263 466.075 Q110.679 470.832 110.679 479.165 Q110.679 487.533 105.263 492.29 Q99.8113 497.012 90.2627 497.012 Q80.6794 497.012 75.2628 492.29 Q69.8461 487.533 69.8461 479.165 Z" fill="#000000" fill-rule="nonzero" fill-opacity="1" /><path clip-path="url(#clip0000)" d="M76.6864 425.137 L55.6448 425.137 L55.6448 418.749 L109.672 418.749 L109.672 425.137 L103.839 425.137 Q107.311 427.151 109.013 430.242 Q110.679 433.297 110.679 437.603 Q110.679 444.651 105.054 449.096 Q99.4293 453.505 90.2627 453.505 Q81.0961 453.505 75.4711 449.096 Q69.8461 444.651 69.8461 437.603 Q69.8461 433.297 71.5475 430.242 Q73.2142 427.151 76.6864 425.137 M90.2627 446.908 Q97.3113 446.908 101.339 444.026 Q105.332 441.11 105.332 436.04 Q105.332 430.971 101.339 428.054 Q97.3113 425.137 90.2627 425.137 Q83.2141 425.137 79.2211 428.054 Q75.1933 430.971 75.1933 436.04 Q75.1933 441.11 79.2211 444.026 Q83.2141 446.908 90.2627 446.908 Z" fill="#000000" fill-rule="nonzero" fill-opacity="1" /><polyline clip-path="url(#clip0002)" style="stroke:#4682b4; stroke-linecap:round; stroke-linejoin:round; stroke-width:12; stroke-opacity:1; fill:none" points="445.233,90.9425 476.66,295.828 508.087,458.502 539.515,592.047 570.942,704.271 602.369,800.211 633.796,883.305 665.223,956.008 696.651,1020.13 728.078,1077.04 759.505,1127.82 790.932,1173.31 822.359,1214.2 853.787,1251.03 885.214,1284.29 916.641,1314.34 948.068,1341.53 979.496,1366.13 1010.92,1388.38 1042.35,1408.5 1073.78,1426.65 1105.2,1443.01 1136.63,1457.72 1168.06,1470.89 1199.49,1482.65 1230.91,1493.08 1262.34,1502.28 1293.77,1510.34 1325.19,1517.32 1356.62,1523.29 1388.05,1528.3 1419.48,1532.43 1450.9,1535.71 1482.33,1538.19 1513.76,1539.91 1545.19,1540.92 1576.61,1541.25 1608.04,1540.93 1639.47,1540 1670.89,1538.48 1702.32,1536.4 1733.75,1533.79 1765.18,1530.66 1796.6,1527.05 1828.03,1522.97 1859.46,1518.44 1890.88,1513.48 1922.31,1508.1 1953.74,1502.33 1985.17,1496.18 2016.59,1489.66 2048.02,1482.78 2079.45,1475.56 2110.88,1468.01 2142.3,1460.14 2173.73,1451.97 2205.16,1443.5 2236.58,1434.74 2268.01,1425.7 2299.44,1416.4 2330.87,1406.83 2362.29,1397.01 2393.72,1386.95 2425.15,1376.65 2456.57,1366.11 2488,1355.36 2519.43,1344.39 2550.86,1333.2 2582.28,1321.81 2613.71,1310.23 2645.14,1298.44 2676.57,1286.47 2707.99,1274.32 2739.42,1261.99 2770.85,1249.48 2802.27,1236.8 2833.7,1223.96 2865.13,1210.95 2896.56,1197.79 2927.98,1184.47 2959.41,1171 2990.84,1157.39 3022.26,1143.63 3053.69,1129.74 3085.12,1115.7 3116.55,1101.54 3147.97,1087.24 3179.4,1072.82 3210.83,1058.27 3242.26,1043.59 3273.68,1028.8 3305.11,1013.89 3336.54,998.871 3367.96,983.736 3399.39,968.491 3430.82,953.138 3462.25,937.679 "/>
<polyline clip-path="url(#clip0002)" style="stroke:#ff8c00; stroke-linecap:round; stroke-linejoin:round; stroke-width:12; stroke-opacity:1; fill:none" points="445.233,523.574 476.66,690.994 508.087,818.686 539.515,919.545 570.942,1001.21 602.369,1068.57 633.796,1124.94 665.223,1172.63 696.651,1213.36 728.078,1248.4 759.505,1278.72 790.932,1305.1 822.359,1328.14 853.787,1348.34 885.214,1366.07 916.641,1381.69 948.068,1395.46 979.496,1407.61 1010.92,1418.34 1042.35,1427.81 1073.78,1436.16 1105.2,1443.51 1136.63,1449.98 1168.06,1455.65 1199.49,1460.6 1230.91,1464.9 1262.34,1468.62 1293.77,1471.81 1325.19,1474.52 1356.62,1476.8 1388.05,1478.67 1419.48,1480.19 1450.9,1481.37 1482.33,1482.25 1513.76,1482.85 1545.19,1483.19 1576.61,1483.3 1608.04,1483.2 1639.47,1482.89 1670.89,1482.41 1702.32,1481.75 1733.75,1480.94 1765.18,1479.99 1796.6,1478.9 1828.03,1477.69 1859.46,1476.37 1890.88,1474.94 1922.31,1473.42 1953.74,1471.81 1985.17,1470.11 2016.59,1468.33 2048.02,1466.49 2079.45,1464.58 2110.88,1462.6 2142.3,1460.57 2173.73,1458.49 2205.16,1456.36 2236.58,1454.18 2268.01,1451.96 2299.44,1449.71 2330.87,1447.42 2362.29,1445.09 2393.72,1442.74 2425.15,1440.36 2456.57,1437.95 2488,1435.52 2519.43,1433.07 2550.86,1430.6 2582.28,1428.11 2613.71,1425.6 2645.14,1423.08 2676.57,1420.55 2707.99,1418 2739.42,1415.45 2770.85,1412.88 2802.27,1410.31 2833.7,1407.72 2865.13,1405.14 2896.56,1402.54 2927.98,1399.94 2959.41,1397.34 2990.84,1394.74 3022.26,1392.13 3053.69,1389.52 3085.12,1386.91 3116.55,1384.3 3147.97,1381.69 3179.4,1379.07 3210.83,1376.46 3242.26,1373.86 3273.68,1371.25 3305.11,1368.65 3336.54,1366.04 3367.96,1363.45 3399.39,1360.85 3430.82,1358.26 3462.25,1355.67 "/>
<polyline clip-path="url(#clip0002)" style="stroke:#2e8b57; stroke-linecap:round; stroke-linejoin:round; stroke-width:12; stroke-opacity:1; fill:none" stroke-dasharray="48, 30" points="445.233,1082.25 476.66,1107.74 508.087,1132.51 539.515,1156.57 570.942,1179.9 602.369,1202.52 633.796,1224.42 665.223,1245.61 696.651,1266.07 728.078,1285.82 759.505,1304.85 790.932,1323.16 822.359,1340.75 853.787,1357.63 885.214,1373.78 916.641,1389.22 948.068,1403.94 979.496,1417.95 1010.92,1431.23 1042.35,1443.8 1073.78,1455.64 1105.2,1466.77 1136.63,1477.19 1168.06,1486.88 1199.49,1495.86 1230.91,1504.11 1262.34,1511.65 1293.77,1518.48 1325.19,1524.58 1356.62,1529.96 1388.05,1534.63 1419.48,1538.58 1450.9,1541.81 1482.33,1544.33 1513.76,1546.12 1545.19,1547.2 1576.61,1547.56 1608.04,1547.2 1639.47,1546.12 1670.89,1544.33 1702.32,1541.81 1733.75,1538.58 1765.18,1534.63 1796.6,1529.96 1828.03,1524.58 1859.46,1518.48 1890.88,1511.65 1922.31,1504.11 1953.74,1495.86 1985.17,1486.88 2016.59,1477.19 2048.02,1466.77 2079.45,1455.64 2110.88,1443.8 2142.3,1431.23 2173.73,1417.95 2205.16,1403.94 2236.58,1389.22 2268.01,1373.78 2299.44,1357.63 2330.87,1340.75 2362.29,1323.16 2393.72,1304.85 2425.15,1285.82 2456.57,1266.07 2488,1245.61 2519.43,1224.42 2550.86,1202.52 2582.28,1179.9 2613.71,1156.57 2645.14,1132.51 2676.57,1107.74 2707.99,1082.25 2739.42,1056.04 2770.85,1029.11 2802.27,1001.46 2833.7,973.1 2865.13,944.018 2896.56,914.218 2927.98,883.7 2959.41,852.464 2990.84,820.509 3022.26,787.837 3053.69,754.447 3085.12,720.338 3116.55,685.512 3147.97,649.967 3179.4,613.705 3210.83,576.724 3242.26,539.025 3273.68,500.608 3305.11,461.473 3336.54,421.62 3367.96,381.049 3399.39,339.76 3430.82,297.753 3462.25,255.028 "/>
<polyline clip-path="url(#clip0002)" style="stroke:#b22222; stroke-linecap:round; stroke-linejoin:round; stroke-width:8; stroke-opacity:1; fill:none" points="1576.61,3135.27 1576.61,-1496.77 "/>
<path clip-path="url(#clip0000)" d="M2702.55 455.111 L3446.15 455.111 L3446.15 98.7111 L2702.55 98.7111  Z" fill="#ffffff" fill-rule="evenodd" fill-opacity="1"/>
<polyline clip-path="url(#clip0000)" style="stroke:#000000; stroke-linecap:round; stroke-linejoin:round; stroke-width:4; stroke-opacity:1; fill:none" points="2702.55,455.111 3446.15,455.111 3446.15,98.7111 2702.55,98.7111 2702.55,455.111 "/>
<polyline clip-path="url(#clip0000)" style="stroke:#4682b4; stroke-linecap:round; stroke-linejoin:round; stroke-width:16.5; stroke-opacity:1; fill:none" points="2738.09,169.991 2951.29,169.991 "/>
<path clip-path="url(#clip0000)" d="M2993.25 151.515 L2993.25 169.37 L3001.34 169.37 Q3005.83 169.37 3008.28 167.047 Q3010.73 164.724 3010.73 160.427 Q3010.73 156.162 3008.28 153.838 Q3005.83 151.515 3001.34 151.515 L2993.25 151.515 M2986.82 146.231 L3001.34 146.231 Q3009.33 146.231 3013.4 149.86 Q3017.51 153.456 3017.51 160.427 Q3017.51 167.461 3013.4 171.057 Q3009.33 174.654 3001.34 174.654 L2993.25 174.654 L2993.25 193.751 L2986.82 193.751 L2986.82 146.231 Z" fill="#000000" fill-rule="nonzero" fill-opacity="1" /><path clip-path="url(#clip0000)" d="M3037.37 162.209 Q3032.66 162.209 3029.92 165.901 Q3027.18 169.561 3027.18 175.959 Q3027.18 182.357 3029.89 186.049 Q3032.63 189.709 3037.37 189.709 Q3042.05 189.709 3044.78 186.017 Q3047.52 182.325 3047.52 175.959 Q3047.52 169.625 3044.78 165.933 Q3042.05 162.209 3037.37 162.209 M3037.37 157.244 Q3045.01 157.244 3049.37 162.209 Q3053.73 167.174 3053.73 175.959 Q3053.73 184.712 3049.37 189.709 Q3045.01 194.674 3037.37 194.674 Q3029.7 194.674 3025.34 189.709 Q3021.01 184.712 3021.01 175.959 Q3021.01 167.174 3025.34 162.209 Q3029.7 157.244 3037.37 157.244 Z" fill="#000000" fill-rule="nonzero" fill-opacity="1" /><path clip-path="url(#clip0000)" d="M3063.44 158.103 L3069.29 158.103 L3069.29 193.751 L3063.44 193.751 L3063.44 158.103 M3063.44 144.226 L3069.29 144.226 L3069.29 151.642 L3063.44 151.642 L3063.44 144.226 Z" fill="#000000" fill-rule="nonzero" fill-opacity="1" /><path clip-path="url(#clip0000)" d="M3104.27 159.154 L3104.27 164.692 Q3101.79 163.419 3099.12 162.782 Q3096.44 162.145 3093.58 162.145 Q3089.22 162.145 3087.02 163.482 Q3084.86 164.819 3084.86 167.493 Q3084.86 169.53 3086.42 170.707 Q3087.98 171.853 3092.69 172.903 L3094.69 173.349 Q3100.93 174.686 3103.54 177.137 Q3106.18 179.556 3106.18 183.916 Q3106.18 188.881 3102.23 191.778 Q3098.32 194.674 3091.44 194.674 Q3088.58 194.674 3085.46 194.101 Q3082.37 193.56 3078.94 192.446 L3078.94 186.399 Q3082.18 188.086 3085.33 188.945 Q3088.48 189.773 3091.57 189.773 Q3095.71 189.773 3097.94 188.372 Q3100.17 186.94 3100.17 184.362 Q3100.17 181.975 3098.54 180.701 Q3096.95 179.428 3091.51 178.251 L3089.47 177.773 Q3084.03 176.627 3081.61 174.272 Q3079.19 171.885 3079.19 167.747 Q3079.19 162.718 3082.76 159.981 Q3086.32 157.244 3092.88 157.244 Q3096.12 157.244 3098.99 157.721 Q3101.85 158.199 3104.27 159.154 Z" fill="#000000" fill-rule="nonzero" fill-opacity="1" /><path clip-path="url(#clip0000)" d="M3138.23 159.154 L3138.23 164.692 Q3135.75 163.419 3133.08 162.782 Q3130.4 162.145 3127.54 162.145 Q3123.18 162.145 3120.98 163.482 Q3118.82 164.819 3118.82 167.493 Q3118.82 169.53 3120.38 170.707 Q3121.94 171.853 3126.65 172.903 L3128.65 173.349 Q3134.89 174.686 3137.5 177.137 Q3140.14 179.556 3140.14 183.916 Q3140.14 188.881 3136.2 191.778 Q3132.28 194.674 3125.41 194.674 Q3122.54 194.674 3119.42 194.101 Q3116.33 193.56 3112.9 192.446 L3112.9 186.399 Q3116.14 188.086 3119.29 188.945 Q3122.45 189.773 3125.53 189.773 Q3129.67 189.773 3131.9 188.372 Q3134.13 186.94 3134.13 184.362 Q3134.13 181.975 3132.5 180.701 Q3130.91 179.428 3125.47 178.251 L3123.43 177.773 Q3117.99 176.627 3115.57 174.272 Q3113.15 171.885 3113.15 167.747 Q3113.15 162.718 3116.72 159.981 Q3120.28 157.244 3126.84 157.244 Q3130.08 157.244 3132.95 157.721 Q3135.81 158.199 3138.23 159.154 Z" fill="#000000" fill-rule="nonzero" fill-opacity="1" /><path clip-path="url(#clip0000)" d="M3163.28 162.209 Q3158.57 162.209 3155.83 165.901 Q3153.1 169.561 3153.1 175.959 Q3153.1 182.357 3155.8 186.049 Q3158.54 189.709 3163.28 189.709 Q3167.96 189.709 3170.7 186.017 Q3173.43 182.325 3173.43 175.959 Q3173.43 169.625 3170.7 165.933 Q3167.96 162.209 3163.28 162.209 M3163.28 157.244 Q3170.92 157.244 3175.28 162.209 Q3179.64 167.174 3179.64 175.959 Q3179.64 184.712 3175.28 189.709 Q3170.92 194.674 3163.28 194.674 Q3155.61 194.674 3151.25 189.709 Q3146.92 184.712 3146.92 175.959 Q3146.92 167.174 3151.25 162.209 Q3155.61 157.244 3163.28 157.244 Z" fill="#000000" fill-rule="nonzero" fill-opacity="1" /><path clip-path="url(#clip0000)" d="M3218.98 172.235 L3218.98 193.751 L3213.13 193.751 L3213.13 172.426 Q3213.13 167.365 3211.15 164.851 Q3209.18 162.336 3205.23 162.336 Q3200.49 162.336 3197.75 165.36 Q3195.01 168.384 3195.01 173.604 L3195.01 193.751 L3189.13 193.751 L3189.13 158.103 L3195.01 158.103 L3195.01 163.641 Q3197.12 160.427 3199.95 158.835 Q3202.81 157.244 3206.54 157.244 Q3212.68 157.244 3215.83 161.063 Q3218.98 164.851 3218.98 172.235 Z" fill="#000000" fill-rule="nonzero" fill-opacity="1" /><polyline clip-path="url(#clip0000)" style="stroke:#ff8c00; stroke-linecap:round; stroke-linejoin:round; stroke-width:16.5; stroke-opacity:1; fill:none" points="2738.09,241.271 2951.29,241.271 "/>
<path clip-path="url(#clip0000)" d="M2986.82 217.511 L2995.48 217.511 L3016.55 257.265 L3016.55 217.511 L3022.79 217.511 L3022.79 265.031 L3014.13 265.031 L2993.06 225.277 L2993.06 265.031 L2986.82 265.031 L2986.82 217.511 Z" fill="#000000" fill-rule="nonzero" fill-opacity="1" /><path clip-path="url(#clip0000)" d="M3065.82 245.743 L3065.82 248.608 L3038.9 248.608 Q3039.28 254.655 3042.52 257.838 Q3045.8 260.989 3051.63 260.989 Q3055 260.989 3058.15 260.161 Q3061.33 259.334 3064.45 257.679 L3064.45 263.217 Q3061.3 264.554 3057.99 265.254 Q3054.68 265.954 3051.28 265.954 Q3042.75 265.954 3037.75 260.989 Q3032.78 256.024 3032.78 247.557 Q3032.78 238.804 3037.5 233.68 Q3042.24 228.524 3050.26 228.524 Q3057.45 228.524 3061.62 233.171 Q3065.82 237.786 3065.82 245.743 M3059.97 244.024 Q3059.9 239.218 3057.26 236.354 Q3054.65 233.489 3050.32 233.489 Q3045.42 233.489 3042.46 236.258 Q3039.53 239.027 3039.09 244.056 L3059.97 244.024 Z" fill="#000000" fill-rule="nonzero" fill-opacity="1" /><path clip-path="url(#clip0000)" d="M3098.89 246.793 Q3098.89 240.428 3096.25 236.927 Q3093.64 233.425 3088.9 233.425 Q3084.19 233.425 3081.55 236.927 Q3078.94 240.428 3078.94 246.793 Q3078.94 253.127 3081.55 256.628 Q3084.19 260.13 3088.9 260.13 Q3093.64 260.13 3096.25 256.628 Q3098.89 253.127 3098.89 246.793 M3104.75 260.607 Q3104.75 269.71 3100.71 274.134 Q3096.66 278.59 3088.33 278.59 Q3085.24 278.59 3082.5 278.113 Q3079.76 277.667 3077.19 276.712 L3077.19 271.015 Q3079.76 272.415 3082.28 273.084 Q3084.79 273.752 3087.4 273.752 Q3093.16 273.752 3096.03 270.728 Q3098.89 267.737 3098.89 261.657 L3098.89 258.761 Q3097.08 261.912 3094.25 263.472 Q3091.41 265.031 3087.47 265.031 Q3080.91 265.031 3076.9 260.034 Q3072.89 255.037 3072.89 246.793 Q3072.89 238.518 3076.9 233.521 Q3080.91 228.524 3087.47 228.524 Q3091.41 228.524 3094.25 230.083 Q3097.08 231.643 3098.89 234.794 L3098.89 229.383 L3104.75 229.383 L3104.75 260.607 Z" fill="#000000" fill-rule="nonzero" fill-opacity="1" /><path clip-path="url(#clip0000)" d="M3123.5 242.337 L3123.5 259.748 L3133.81 259.748 Q3139 259.748 3141.48 257.615 Q3143.99 255.451 3143.99 251.027 Q3143.99 246.571 3141.48 244.47 Q3139 242.337 3133.81 242.337 L3123.5 242.337 M3123.5 222.795 L3123.5 237.118 L3133.01 237.118 Q3137.72 237.118 3140.01 235.367 Q3142.34 233.585 3142.34 229.956 Q3142.34 226.359 3140.01 224.577 Q3137.72 222.795 3133.01 222.795 L3123.5 222.795 M3117.07 217.511 L3133.49 217.511 Q3140.84 217.511 3144.82 220.567 Q3148.8 223.622 3148.8 229.256 Q3148.8 233.616 3146.76 236.194 Q3144.73 238.773 3140.78 239.409 Q3145.52 240.428 3148.13 243.674 Q3150.77 246.889 3150.77 251.727 Q3150.77 258.093 3146.44 261.562 Q3142.12 265.031 3134.13 265.031 L3117.07 265.031 L3117.07 217.511 Z" fill="#000000" fill-rule="nonzero" fill-opacity="1" /><path clip-path="url(#clip0000)" d="M3161.53 229.383 L3167.39 229.383 L3167.39 265.031 L3161.53 265.031 L3161.53 229.383 M3161.53 215.506 L3167.39 215.506 L3167.39 222.922 L3161.53 222.922 L3161.53 215.506 Z" fill="#000000" fill-rule="nonzero" fill-opacity="1" /><path clip-path="url(#clip0000)" d="M3209.27 243.515 L3209.27 265.031 L3203.42 265.031 L3203.42 243.706 Q3203.42 238.645 3201.44 236.131 Q3199.47 233.616 3195.52 233.616 Q3190.78 233.616 3188.04 236.64 Q3185.31 239.664 3185.31 244.884 L3185.31 265.031 L3179.42 265.031 L3179.42 229.383 L3185.31 229.383 L3185.31 234.921 Q3187.41 231.707 3190.24 230.115 Q3193.1 228.524 3196.83 228.524 Q3202.97 228.524 3206.12 232.343 Q3209.27 236.131 3209.27 243.515 Z" fill="#000000" fill-rule="nonzero" fill-opacity="1" /><path clip-path="url(#clip0000)" d="M3261.92 234.126 Q3259.85 234.126 3259.85 238.741 L3259.85 260.575 Q3262.87 260.575 3265.9 257.265 Q3268.6 254.305 3268.6 247.207 Q3268.6 240.587 3265.86 237.022 Q3263.64 234.126 3261.92 234.126 M3261.92 229.129 Q3266.37 229.129 3270.42 233.33 Q3274.78 237.818 3274.78 247.207 Q3274.78 255.833 3270.42 260.957 Q3266.31 265.795 3259.85 265.795 L3259.85 278.59 L3254.02 278.59 L3254.02 265.827 Q3247.69 265.827 3243.43 260.957 Q3239.1 255.992 3239.1 247.239 Q3239.1 238.136 3243.43 233.489 Q3246.67 230.02 3251.96 229.129 L3251.96 234.317 Q3249.86 235.049 3248.01 237.531 Q3245.27 241.192 3245.27 247.239 Q3245.27 253.668 3248.01 257.329 Q3250.46 260.607 3254.02 260.607 L3254.02 238.741 Q3254.02 229.129 3261.92 229.129 Z" fill="#000000" fill-rule="nonzero" fill-opacity="1" /><path clip-path="url(#clip0000)" d="M3306.16 235.431 L3346.96 235.431 L3346.96 240.778 L3306.16 240.778 L3306.16 235.431 M3306.16 248.417 L3346.96 248.417 L3346.96 253.828 L3306.16 253.828 L3306.16 248.417 Z" fill="#000000" fill-rule="nonzero" fill-opacity="1" /><path clip-path="url(#clip0000)" d="M3381.63 217.511 L3406.87 217.511 L3406.87 222.922 L3387.51 222.922 L3387.51 234.571 Q3388.91 234.094 3390.31 233.871 Q3391.71 233.616 3393.12 233.616 Q3401.07 233.616 3405.72 237.977 Q3410.37 242.337 3410.37 249.785 Q3410.37 257.456 3405.59 261.721 Q3400.82 265.954 3392.13 265.954 Q3389.14 265.954 3386.02 265.445 Q3382.93 264.936 3379.62 263.917 L3379.62 257.456 Q3382.48 259.016 3385.54 259.779 Q3388.6 260.543 3392 260.543 Q3397.51 260.543 3400.72 257.647 Q3403.94 254.751 3403.94 249.785 Q3403.94 244.82 3400.72 241.924 Q3397.51 239.027 3392 239.027 Q3389.42 239.027 3386.85 239.6 Q3384.3 240.173 3381.63 241.383 L3381.63 217.511 Z" fill="#000000" fill-rule="nonzero" fill-opacity="1" /><polyline clip-path="url(#clip0000)" style="stroke:#2e8b57; stroke-linecap:round; stroke-linejoin:round; stroke-width:16.5; stroke-opacity:1; fill:none" stroke-dasharray="66, 41" points="2738.09,312.551 2951.29,312.551 "/>
<path clip-path="url(#clip0000)" d="M2986.82 288.791 L2995.48 288.791 L3016.55 328.545 L3016.55 288.791 L3022.79 288.791 L3022.79 336.311 L3014.13 336.311 L2993.06 296.557 L2993.06 336.311 L2986.82 336.311 L2986.82 288.791 Z" fill="#000000" fill-rule="nonzero" fill-opacity="1" /><path clip-path="url(#clip0000)" d="M3049.14 304.769 Q3044.43 304.769 3041.7 308.461 Q3038.96 312.121 3038.96 318.519 Q3038.96 324.917 3041.66 328.609 Q3044.4 332.269 3049.14 332.269 Q3053.82 332.269 3056.56 328.577 Q3059.3 324.885 3059.3 318.519 Q3059.3 312.185 3056.56 308.493 Q3053.82 304.769 3049.14 304.769 M3049.14 299.804 Q3056.78 299.804 3061.14 304.769 Q3065.5 309.734 3065.5 318.519 Q3065.5 327.272 3061.14 332.269 Q3056.78 337.234 3049.14 337.234 Q3041.47 337.234 3037.11 332.269 Q3032.78 327.272 3032.78 318.519 Q3032.78 309.734 3037.11 304.769 Q3041.47 299.804 3049.14 299.804 Z" fill="#000000" fill-rule="nonzero" fill-opacity="1" /><path clip-path="url(#clip0000)" d="M3095.87 306.138 Q3094.88 305.565 3093.7 305.31 Q3092.56 305.024 3091.16 305.024 Q3086.19 305.024 3083.52 308.27 Q3080.88 311.485 3080.88 317.532 L3080.88 336.311 L3074.99 336.311 L3074.99 300.663 L3080.88 300.663 L3080.88 306.201 Q3082.72 302.955 3085.68 301.395 Q3088.64 299.804 3092.88 299.804 Q3093.48 299.804 3094.21 299.899 Q3094.95 299.963 3095.84 300.122 L3095.87 306.138 Z" fill="#000000" fill-rule="nonzero" fill-opacity="1" /><path clip-path="url(#clip0000)" d="M3128.62 307.506 Q3130.82 303.56 3133.87 301.682 Q3136.93 299.804 3141.07 299.804 Q3146.64 299.804 3149.66 303.719 Q3152.68 307.602 3152.68 314.795 L3152.68 336.311 L3146.79 336.311 L3146.79 314.986 Q3146.79 309.862 3144.98 307.379 Q3143.17 304.896 3139.44 304.896 Q3134.89 304.896 3132.25 307.92 Q3129.61 310.944 3129.61 316.164 L3129.61 336.311 L3123.72 336.311 L3123.72 314.986 Q3123.72 309.83 3121.9 307.379 Q3120.09 304.896 3116.3 304.896 Q3111.81 304.896 3109.17 307.952 Q3106.53 310.976 3106.53 316.164 L3106.53 336.311 L3100.64 336.311 L3100.64 300.663 L3106.53 300.663 L3106.53 306.201 Q3108.54 302.923 3111.34 301.363 Q3114.14 299.804 3117.99 299.804 Q3121.87 299.804 3124.58 301.777 Q3127.32 303.751 3128.62 307.506 Z" fill="#000000" fill-rule="nonzero" fill-opacity="1" /><path clip-path="url(#clip0000)" d="M3180.56 318.392 Q3173.47 318.392 3170.73 320.015 Q3167.99 321.638 3167.99 325.553 Q3167.99 328.672 3170.03 330.518 Q3172.1 332.333 3175.63 332.333 Q3180.5 332.333 3183.43 328.895 Q3186.39 325.426 3186.39 319.697 L3186.39 318.392 L3180.56 318.392 M3192.25 315.973 L3192.25 336.311 L3186.39 336.311 L3186.39 330.9 Q3184.38 334.147 3181.39 335.706 Q3178.4 337.234 3174.07 337.234 Q3168.6 337.234 3165.35 334.179 Q3162.14 331.091 3162.14 325.935 Q3162.14 319.919 3166.15 316.864 Q3170.19 313.808 3178.18 313.808 L3186.39 313.808 L3186.39 313.235 Q3186.39 309.193 3183.72 306.997 Q3181.07 304.769 3176.27 304.769 Q3173.21 304.769 3170.32 305.501 Q3167.42 306.233 3164.75 307.697 L3164.75 302.286 Q3167.96 301.045 3170.98 300.44 Q3174.01 299.804 3176.87 299.804 Q3184.61 299.804 3188.43 303.814 Q3192.25 307.825 3192.25 315.973 Z" fill="#000000" fill-rule="nonzero" fill-opacity="1" /><path clip-path="url(#clip0000)" d="M3204.31 286.786 L3210.16 286.786 L3210.16 336.311 L3204.31 336.311 L3204.31 286.786 Z" fill="#000000" fill-rule="nonzero" fill-opacity="1" /><path clip-path="url(#clip0000)" d="M3256.95 305.31 Q3252.11 305.31 3249.51 308.811 Q3246.77 312.472 3246.77 318.519 Q3246.77 324.917 3249.47 328.609 Q3252.21 332.269 3256.95 332.269 Q3261.63 332.269 3264.37 328.577 Q3267.11 324.885 3267.11 318.519 Q3267.11 312.694 3264.37 308.811 Q3261.85 305.31 3256.95 305.31 M3256.95 300.663 L3276.4 300.663 L3276.4 306.52 L3269.84 306.52 Q3273.31 311.485 3273.31 318.519 Q3273.31 327.272 3268.95 332.237 Q3264.59 337.234 3256.95 337.234 Q3249.28 337.234 3244.95 332.237 Q3240.59 327.272 3240.59 318.519 Q3240.59 309.702 3244.95 304.769 Q3248.55 300.663 3256.95 300.663 Z" fill="#000000" fill-rule="nonzero" fill-opacity="1" /><path clip-path="url(#clip0000)" d="M3305.94 306.711 L3346.74 306.711 L3346.74 312.058 L3305.94 312.058 L3305.94 306.711 M3305.94 319.697 L3346.74 319.697 L3346.74 325.108 L3305.94 325.108 L3305.94 319.697 Z" fill="#000000" fill-rule="nonzero" fill-opacity="1" /><path clip-path="url(#clip0000)" d="M3400.82 310.689 Q3405.43 311.676 3408.01 314.795 Q3410.62 317.914 3410.62 322.498 Q3410.62 329.532 3405.78 333.383 Q3400.95 337.234 3392.03 337.234 Q3389.04 337.234 3385.86 336.629 Q3382.71 336.057 3379.33 334.879 L3379.33 328.672 Q3382.01 330.232 3385.19 331.028 Q3388.37 331.823 3391.84 331.823 Q3397.89 331.823 3401.04 329.436 Q3404.22 327.049 3404.22 322.498 Q3404.22 318.296 3401.26 315.941 Q3398.34 313.554 3393.08 313.554 L3387.55 313.554 L3387.55 308.27 L3393.34 308.27 Q3398.08 308.27 3400.6 306.392 Q3403.11 304.483 3403.11 300.918 Q3403.11 297.258 3400.5 295.316 Q3397.92 293.343 3393.08 293.343 Q3390.44 293.343 3387.42 293.916 Q3384.39 294.488 3380.77 295.698 L3380.77 289.969 Q3384.43 288.95 3387.61 288.441 Q3390.82 287.932 3393.66 287.932 Q3400.98 287.932 3405.24 291.274 Q3409.51 294.584 3409.51 300.249 Q3409.51 304.196 3407.25 306.933 Q3404.99 309.639 3400.82 310.689 Z" fill="#000000" fill-rule="nonzero" fill-opacity="1" /><polyline clip-path="url(#clip0000)" style="stroke:#b22222; stroke-linecap:round; stroke-linejoin:round; stroke-width:11; stroke-opacity:1; fill:none" points="2738.09,383.831 2951.29,383.831 "/>
<path clip-path="url(#clip0000)" d="M3008.85 364.432 Q3001.85 364.432 2997.71 369.652 Q2993.6 374.871 2993.6 383.879 Q2993.6 392.855 2997.71 398.074 Q3001.85 403.294 3008.85 403.294 Q3015.85 403.294 3019.93 398.074 Q3024.03 392.855 3024.03 383.879 Q3024.03 374.871 3019.93 369.652 Q3015.85 364.432 3008.85 364.432 M3008.85 359.212 Q3018.84 359.212 3024.83 365.928 Q3030.81 372.612 3030.81 383.879 Q3030.81 395.114 3024.83 401.83 Q3018.84 408.514 3008.85 408.514 Q2998.82 408.514 2992.81 401.83 Q2986.82 395.146 2986.82 383.879 Q2986.82 372.612 2992.81 365.928 Q2998.82 359.212 3008.85 359.212 Z" fill="#000000" fill-rule="nonzero" fill-opacity="1" /><path clip-path="url(#clip0000)" d="M3066.2 389.799 Q3066.2 383.338 3063.53 379.678 Q3060.89 375.985 3056.24 375.985 Q3051.6 375.985 3048.92 379.678 Q3046.28 383.338 3046.28 389.799 Q3046.28 396.26 3048.92 399.952 Q3051.6 403.613 3056.24 403.613 Q3060.89 403.613 3063.53 399.952 Q3066.2 396.26 3066.2 389.799 M3046.28 377.354 Q3048.13 374.171 3050.93 372.643 Q3053.76 371.084 3057.67 371.084 Q3064.17 371.084 3068.21 376.24 Q3072.28 381.396 3072.28 389.799 Q3072.28 398.202 3068.21 403.358 Q3064.17 408.514 3057.67 408.514 Q3053.76 408.514 3050.93 406.986 Q3048.13 405.427 3046.28 402.244 L3046.28 407.591 L3040.39 407.591 L3040.39 358.066 L3046.28 358.066 L3046.28 377.354 Z" fill="#000000" fill-rule="nonzero" fill-opacity="1" /><path clip-path="url(#clip0000)" d="M3104.72 372.994 L3104.72 378.532 Q3102.23 377.259 3099.56 376.622 Q3096.89 375.985 3094.02 375.985 Q3089.66 375.985 3087.47 377.322 Q3085.3 378.659 3085.3 381.333 Q3085.3 383.37 3086.86 384.547 Q3088.42 385.693 3093.13 386.743 L3095.14 387.189 Q3101.38 388.526 3103.98 390.977 Q3106.63 393.396 3106.63 397.756 Q3106.63 402.721 3102.68 405.618 Q3098.77 408.514 3091.89 408.514 Q3089.03 408.514 3085.91 407.941 Q3082.82 407.4 3079.38 406.286 L3079.38 400.239 Q3082.63 401.926 3085.78 402.785 Q3088.93 403.613 3092.02 403.613 Q3096.16 403.613 3098.38 402.212 Q3100.61 400.78 3100.61 398.202 Q3100.61 395.815 3098.99 394.541 Q3097.4 393.268 3091.95 392.091 L3089.92 391.613 Q3084.47 390.467 3082.06 388.112 Q3079.64 385.725 3079.64 381.587 Q3079.64 376.558 3083.2 373.821 Q3086.77 371.084 3093.32 371.084 Q3096.57 371.084 3099.43 371.561 Q3102.3 372.039 3104.72 372.994 Z" fill="#000000" fill-rule="nonzero" fill-opacity="1" /><path clip-path="url(#clip0000)" d="M3146.44 388.303 L3146.44 391.168 L3119.52 391.168 Q3119.9 397.215 3123.15 400.398 Q3126.42 403.549 3132.25 403.549 Q3135.62 403.549 3138.77 402.721 Q3141.96 401.894 3145.08 400.239 L3145.08 405.777 Q3141.92 407.114 3138.61 407.814 Q3135.3 408.514 3131.9 408.514 Q3123.37 408.514 3118.37 403.549 Q3113.41 398.584 3113.41 390.117 Q3113.41 381.364 3118.12 376.24 Q3122.86 371.084 3130.88 371.084 Q3138.07 371.084 3142.24 375.731 Q3146.44 380.346 3146.44 388.303 M3140.59 386.584 Q3140.52 381.778 3137.88 378.914 Q3135.27 376.049 3130.94 376.049 Q3126.04 376.049 3123.08 378.818 Q3120.15 381.587 3119.71 386.616 L3140.59 386.584 Z" fill="#000000" fill-rule="nonzero" fill-opacity="1" /><path clip-path="url(#clip0000)" d="M3176.71 377.418 Q3175.73 376.845 3174.55 376.59 Q3173.4 376.304 3172 376.304 Q3167.04 376.304 3164.36 379.55 Q3161.72 382.765 3161.72 388.812 L3161.72 407.591 L3155.83 407.591 L3155.83 371.943 L3161.72 371.943 L3161.72 377.481 Q3163.57 374.235 3166.53 372.675 Q3169.49 371.084 3173.72 371.084 Q3174.33 371.084 3175.06 371.179 Q3175.79 371.243 3176.68 371.402 L3176.71 377.418 Z" fill="#000000" fill-rule="nonzero" fill-opacity="1" /><path clip-path="url(#clip0000)" d="M3178.65 371.943 L3184.86 371.943 L3196 401.862 L3207.14 371.943 L3213.35 371.943 L3199.98 407.591 L3192.02 407.591 L3178.65 371.943 Z" fill="#000000" fill-rule="nonzero" fill-opacity="1" /><path clip-path="url(#clip0000)" d="M3251.92 388.303 L3251.92 391.168 L3225 391.168 Q3225.38 397.215 3228.63 400.398 Q3231.9 403.549 3237.73 403.549 Q3241.1 403.549 3244.25 402.721 Q3247.44 401.894 3250.56 400.239 L3250.56 405.777 Q3247.4 407.114 3244.09 407.814 Q3240.78 408.514 3237.38 408.514 Q3228.85 408.514 3223.85 403.549 Q3218.89 398.584 3218.89 390.117 Q3218.89 381.364 3223.6 376.24 Q3228.34 371.084 3236.36 371.084 Q3243.55 371.084 3247.72 375.731 Q3251.92 380.346 3251.92 388.303 M3246.07 386.584 Q3246 381.778 3243.36 378.914 Q3240.75 376.049 3236.42 376.049 Q3231.52 376.049 3228.56 378.818 Q3225.63 381.587 3225.19 386.616 L3246.07 386.584 Z" fill="#000000" fill-rule="nonzero" fill-opacity="1" /><path clip-path="url(#clip0000)" d="M3284.99 377.354 L3284.99 358.066 L3290.85 358.066 L3290.85 407.591 L3284.99 407.591 L3284.99 402.244 Q3283.15 405.427 3280.32 406.986 Q3277.51 408.514 3273.57 408.514 Q3267.11 408.514 3263.03 403.358 Q3258.99 398.202 3258.99 389.799 Q3258.99 381.396 3263.03 376.24 Q3267.11 371.084 3273.57 371.084 Q3277.51 371.084 3280.32 372.643 Q3283.15 374.171 3284.99 377.354 M3265.04 389.799 Q3265.04 396.26 3267.68 399.952 Q3270.35 403.613 3275 403.613 Q3279.65 403.613 3282.32 399.952 Q3284.99 396.26 3284.99 389.799 Q3284.99 383.338 3282.32 379.678 Q3279.65 375.985 3275 375.985 Q3270.35 375.985 3267.68 379.678 Q3265.04 383.338 3265.04 389.799 Z" fill="#000000" fill-rule="nonzero" fill-opacity="1" /><path clip-path="url(#clip0000)" d="M3325.58 402.18 L3336.08 402.18 L3336.08 365.928 L3324.65 368.219 L3324.65 362.363 L3336.02 360.071 L3342.44 360.071 L3342.44 402.18 L3352.95 402.18 L3352.95 407.591 L3325.58 407.591 L3325.58 402.18 Z" fill="#000000" fill-rule="nonzero" fill-opacity="1" /><path clip-path="url(#clip0000)" d="M3379.68 364.304 Q3374.72 364.304 3372.2 369.206 Q3369.72 374.076 3369.72 383.879 Q3369.72 393.65 3372.2 398.552 Q3374.72 403.422 3379.68 403.422 Q3384.68 403.422 3387.16 398.552 Q3389.68 393.65 3389.68 383.879 Q3389.68 374.076 3387.16 369.206 Q3384.68 364.304 3379.68 364.304 M3379.68 359.212 Q3387.67 359.212 3391.87 365.546 Q3396.11 371.848 3396.11 383.879 Q3396.11 395.878 3391.87 402.212 Q3387.67 408.514 3379.68 408.514 Q3371.69 408.514 3367.46 402.212 Q3363.26 395.878 3363.26 383.879 Q3363.26 371.848 3367.46 365.546 Q3371.69 359.212 3379.68 359.212 Z" fill="#000000" fill-rule="nonzero" fill-opacity="1" /></svg>
